M48
; DRILL file {KiCad 8.0.1} date 2024-03-25T00:20:22-0300
; FORMAT={-:-/ absolute / metric / decimal}
; #@! TF.CreationDate,2024-03-25T00:20:22-03:00
; #@! TF.GenerationSoftware,Kicad,Pcbnew,8.0.1
; #@! TF.FileFunction,MixedPlating,1,2
FMAT,2
METRIC
; #@! TA.AperFunction,Plated,PTH,ViaDrill
T1C0.300
; #@! TA.AperFunction,Plated,PTH,ComponentDrill
T2C0.450
; #@! TA.AperFunction,Plated,PTH,ComponentDrill
T3C1.000
; #@! TA.AperFunction,Plated,PTH,ComponentDrill
T4C1.100
%
G90
G05
T1
X92.0Y-54.5
X92.0Y-82.5
X92.61Y-84.0
X93.349Y-81.289
X94.0Y-84.0
X95.0Y-85.0
X96.0Y-67.0
X96.0Y-73.0
X97.0Y-59.0
X97.0Y-62.0
X97.0Y-83.0
X97.0Y-89.0
X97.676Y-78.8
X98.0Y-76.0
X98.0Y-85.0
X99.0Y-82.0
X100.0Y-112.0
X102.0Y-58.0
X102.0Y-63.0
X102.0Y-82.0
X102.0Y-108.0
X103.0Y-81.0
X103.0Y-84.0
X103.52Y-73.52
X104.0Y-76.0
X104.0Y-87.075
X104.0Y-90.5
X105.0Y-77.0
X106.0Y-61.0
X106.0Y-75.0
X106.0Y-88.0
X106.025Y-83.025
X107.0Y-61.0
X107.0Y-70.0
X107.0Y-77.73
X107.0Y-80.99
X107.0Y-82.29
X107.0Y-90.0
X107.0Y-103.0
X107.0Y-106.0
X107.0Y-111.0
X108.0Y-114.0
X109.0Y-68.0
X109.0Y-82.29
X110.0Y-82.29
X110.0Y-103.0
X110.46Y-110.0
X111.0Y-61.0
X111.0Y-66.0
X111.0Y-72.0
X111.0Y-78.0
X111.0Y-90.0
X111.0Y-103.0
X112.0Y-74.0
X112.0Y-78.0
X112.0Y-103.0
X112.0Y-111.0
X112.0Y-112.0
X113.0Y-73.0
X113.0Y-76.0
X113.0Y-78.0
X113.0Y-88.0
X113.0Y-103.0
X114.0Y-58.0
X114.0Y-72.0
X114.0Y-109.0
X115.0Y-60.0
X115.0Y-61.0
X115.0Y-68.0
X115.0Y-70.0
X115.0Y-71.0
X115.0Y-103.0
X115.0Y-108.0
X116.0Y-99.0
X116.0Y-101.0
X116.0Y-112.0
X118.0Y-68.0
X118.0Y-77.0
X118.0Y-89.0
X118.055Y-80.055
X119.0Y-64.15
X119.0Y-67.0
X119.0Y-86.0
X119.0Y-96.0
X119.81Y-61.81
X120.0Y-64.0
X120.0Y-65.0
X120.0Y-104.0
X120.0Y-109.0
X120.0Y-111.0
X121.0Y-63.0
X121.0Y-111.0
X122.0Y-73.0
T3
X94.0Y-57.0
X94.0Y-59.54
X94.0Y-62.08
X94.0Y-64.62
X94.0Y-67.16
X94.0Y-69.7
X94.0Y-72.24
X94.0Y-74.78
X94.0Y-77.32
X94.0Y-79.86
X94.46Y-98.0
X94.46Y-100.54
X94.46Y-103.08
X94.46Y-105.62
X97.0Y-98.0
X97.0Y-100.54
X97.0Y-103.08
X97.0Y-105.62
X101.46Y-98.0
X101.46Y-100.54
X101.46Y-103.08
X101.46Y-105.62
X104.0Y-98.0
X104.0Y-100.54
X104.0Y-103.08
X104.0Y-105.62
X108.0Y-92.46
X108.0Y-95.0
X111.0Y-114.0
X113.54Y-114.0
X122.0Y-58.0
X122.0Y-60.54
X122.0Y-63.08
X122.0Y-65.62
X122.0Y-68.16
X122.0Y-70.7
X122.0Y-76.38
X122.0Y-78.92
X122.0Y-81.46
X122.0Y-84.0
T4
X97.92Y-94.0
X100.46Y-94.0
X103.0Y-94.0
T2
G00X116.55Y-116.4
M15
G01X116.55Y-115.6
M16
G05
G00X123.7Y-115.6
M15
G01X123.7Y-116.4
M16
G05
M30
