%TF.GenerationSoftware,KiCad,Pcbnew,8.0.1*%
%TF.CreationDate,2024-03-25T00:20:22-03:00*%
%TF.ProjectId,estacao_metereologica_lora,65737461-6361-46f5-9f6d-65746572656f,rev?*%
%TF.SameCoordinates,Original*%
%TF.FileFunction,Copper,L1,Top*%
%TF.FilePolarity,Positive*%
%FSLAX46Y46*%
G04 Gerber Fmt 4.6, Leading zero omitted, Abs format (unit mm)*
G04 Created by KiCad (PCBNEW 8.0.1) date 2024-03-25 00:20:22*
%MOMM*%
%LPD*%
G01*
G04 APERTURE LIST*
G04 Aperture macros list*
%AMRoundRect*
0 Rectangle with rounded corners*
0 $1 Rounding radius*
0 $2 $3 $4 $5 $6 $7 $8 $9 X,Y pos of 4 corners*
0 Add a 4 corners polygon primitive as box body*
4,1,4,$2,$3,$4,$5,$6,$7,$8,$9,$2,$3,0*
0 Add four circle primitives for the rounded corners*
1,1,$1+$1,$2,$3*
1,1,$1+$1,$4,$5*
1,1,$1+$1,$6,$7*
1,1,$1+$1,$8,$9*
0 Add four rect primitives between the rounded corners*
20,1,$1+$1,$2,$3,$4,$5,0*
20,1,$1+$1,$4,$5,$6,$7,0*
20,1,$1+$1,$6,$7,$8,$9,0*
20,1,$1+$1,$8,$9,$2,$3,0*%
%AMFreePoly0*
4,1,9,3.862500,-0.866500,0.737500,-0.866500,0.737500,-0.450000,-0.737500,-0.450000,-0.737500,0.450000,0.737500,0.450000,0.737500,0.866500,3.862500,0.866500,3.862500,-0.866500,3.862500,-0.866500,$1*%
G04 Aperture macros list end*
%TA.AperFunction,SMDPad,CuDef*%
%ADD10RoundRect,0.250000X0.650000X-0.325000X0.650000X0.325000X-0.650000X0.325000X-0.650000X-0.325000X0*%
%TD*%
%TA.AperFunction,SMDPad,CuDef*%
%ADD11RoundRect,0.250000X0.625000X-0.312500X0.625000X0.312500X-0.625000X0.312500X-0.625000X-0.312500X0*%
%TD*%
%TA.AperFunction,SMDPad,CuDef*%
%ADD12RoundRect,0.225000X-0.375000X0.225000X-0.375000X-0.225000X0.375000X-0.225000X0.375000X0.225000X0*%
%TD*%
%TA.AperFunction,SMDPad,CuDef*%
%ADD13RoundRect,0.250000X0.375000X0.625000X-0.375000X0.625000X-0.375000X-0.625000X0.375000X-0.625000X0*%
%TD*%
%TA.AperFunction,SMDPad,CuDef*%
%ADD14RoundRect,0.250000X0.312500X0.625000X-0.312500X0.625000X-0.312500X-0.625000X0.312500X-0.625000X0*%
%TD*%
%TA.AperFunction,ComponentPad*%
%ADD15R,1.700000X1.700000*%
%TD*%
%TA.AperFunction,ComponentPad*%
%ADD16O,1.700000X1.700000*%
%TD*%
%TA.AperFunction,SMDPad,CuDef*%
%ADD17RoundRect,0.225000X0.425000X0.225000X-0.425000X0.225000X-0.425000X-0.225000X0.425000X-0.225000X0*%
%TD*%
%TA.AperFunction,SMDPad,CuDef*%
%ADD18FreePoly0,180.000000*%
%TD*%
%TA.AperFunction,SMDPad,CuDef*%
%ADD19R,0.400000X1.400000*%
%TD*%
%TA.AperFunction,ComponentPad*%
%ADD20O,1.050000X1.900000*%
%TD*%
%TA.AperFunction,SMDPad,CuDef*%
%ADD21R,1.150000X1.450000*%
%TD*%
%TA.AperFunction,SMDPad,CuDef*%
%ADD22R,1.750000X1.900000*%
%TD*%
%TA.AperFunction,SMDPad,CuDef*%
%ADD23RoundRect,0.250000X-0.650000X0.325000X-0.650000X-0.325000X0.650000X-0.325000X0.650000X0.325000X0*%
%TD*%
%TA.AperFunction,SMDPad,CuDef*%
%ADD24RoundRect,0.250000X-0.325000X-0.650000X0.325000X-0.650000X0.325000X0.650000X-0.325000X0.650000X0*%
%TD*%
%TA.AperFunction,ComponentPad*%
%ADD25R,1.905000X2.000000*%
%TD*%
%TA.AperFunction,ComponentPad*%
%ADD26O,1.905000X2.000000*%
%TD*%
%TA.AperFunction,SMDPad,CuDef*%
%ADD27R,1.250000X1.000000*%
%TD*%
%TA.AperFunction,SMDPad,CuDef*%
%ADD28R,1.210000X0.590000*%
%TD*%
%TA.AperFunction,SMDPad,CuDef*%
%ADD29RoundRect,0.250000X0.325000X0.650000X-0.325000X0.650000X-0.325000X-0.650000X0.325000X-0.650000X0*%
%TD*%
%TA.AperFunction,SMDPad,CuDef*%
%ADD30RoundRect,0.042000X0.258000X-0.943000X0.258000X0.943000X-0.258000X0.943000X-0.258000X-0.943000X0*%
%TD*%
%TA.AperFunction,SMDPad,CuDef*%
%ADD31R,3.302000X2.413000*%
%TD*%
%TA.AperFunction,SMDPad,CuDef*%
%ADD32RoundRect,0.020000X-0.760000X-0.180000X0.760000X-0.180000X0.760000X0.180000X-0.760000X0.180000X0*%
%TD*%
%TA.AperFunction,SMDPad,CuDef*%
%ADD33R,1.000000X1.250000*%
%TD*%
%TA.AperFunction,SMDPad,CuDef*%
%ADD34R,1.500000X0.900000*%
%TD*%
%TA.AperFunction,SMDPad,CuDef*%
%ADD35R,0.900000X1.500000*%
%TD*%
%TA.AperFunction,SMDPad,CuDef*%
%ADD36R,1.100000X1.100000*%
%TD*%
%TA.AperFunction,ViaPad*%
%ADD37C,0.600000*%
%TD*%
%TA.AperFunction,Conductor*%
%ADD38C,0.200000*%
%TD*%
%TA.AperFunction,Conductor*%
%ADD39C,0.300000*%
%TD*%
%TA.AperFunction,Conductor*%
%ADD40C,0.400000*%
%TD*%
%TA.AperFunction,Conductor*%
%ADD41C,0.500000*%
%TD*%
%TA.AperFunction,Conductor*%
%ADD42C,0.700000*%
%TD*%
%ADD43C,0.300000*%
%ADD44C,0.350000*%
%ADD45O,0.450000X1.250000*%
G04 APERTURE END LIST*
D10*
%TO.P,C5,1*%
%TO.N,/BATERY*%
X116000000Y-90000000D03*
%TO.P,C5,2*%
%TO.N,GND*%
X116000000Y-87050000D03*
%TD*%
D11*
%TO.P,R5,1*%
%TO.N,GND*%
X110000000Y-88925000D03*
%TO.P,R5,2*%
%TO.N,/BTN1*%
X110000000Y-86000000D03*
%TD*%
D12*
%TO.P,D3,1,K*%
%TO.N,Net-(D3-K)*%
X94000000Y-85700000D03*
%TO.P,D3,2,A*%
%TO.N,+5V*%
X94000000Y-89000000D03*
%TD*%
D13*
%TO.P,D2,1,K*%
%TO.N,Net-(D2-K)*%
X120400000Y-108000000D03*
%TO.P,D2,2,A*%
%TO.N,+5V*%
X117600000Y-108000000D03*
%TD*%
D14*
%TO.P,R1,2*%
%TO.N,GND*%
X104537500Y-114000000D03*
%TO.P,R1,1*%
%TO.N,Net-(U2-PROG)*%
X107462500Y-114000000D03*
%TD*%
D15*
%TO.P,J1,1,Pin_1*%
%TO.N,GND*%
X111000000Y-114000000D03*
D16*
%TO.P,J1,2,Pin_2*%
%TO.N,+5V*%
X113540000Y-114000000D03*
%TD*%
D17*
%TO.P,U4,1,GND*%
%TO.N,GND*%
X99950000Y-88500000D03*
D18*
%TO.P,U4,2,VIN*%
%TO.N,Net-(D3-K)*%
X99862500Y-87000000D03*
D17*
%TO.P,U4,3,VOUT*%
%TO.N,+3.3V*%
X99950000Y-85500000D03*
%TD*%
D19*
%TO.P,J2,1,VBUS*%
%TO.N,+5V*%
X118825000Y-113350000D03*
%TO.P,J2,2,D-*%
%TO.N,/USB_D-*%
X119475000Y-113350000D03*
%TO.P,J2,3,D+*%
%TO.N,/USB_D+*%
X120125000Y-113350000D03*
%TO.P,J2,4,ID*%
%TO.N,unconnected-(J2-ID-Pad4)*%
X120775000Y-113350000D03*
%TO.P,J2,5,GND*%
%TO.N,GND*%
X121425000Y-113350000D03*
D20*
%TO.P,J2,6,Shield*%
X116550000Y-116000000D03*
D21*
X117805000Y-113770000D03*
D22*
X119000000Y-116000000D03*
X121250000Y-116000000D03*
D21*
X122445000Y-113770000D03*
D20*
X123700000Y-116000000D03*
%TD*%
D23*
%TO.P,C6,1*%
%TO.N,Net-(D3-K)*%
X104000000Y-86000000D03*
%TO.P,C6,2*%
%TO.N,GND*%
X104000000Y-88950000D03*
%TD*%
D24*
%TO.P,C2,1*%
%TO.N,+5V*%
X119050000Y-102000000D03*
%TO.P,C2,2*%
%TO.N,GND*%
X122000000Y-102000000D03*
%TD*%
D25*
%TO.P,Q2,1,G*%
%TO.N,+5V*%
X97920000Y-94000000D03*
D26*
%TO.P,Q2,2,D*%
%TO.N,Net-(D3-K)*%
X100460000Y-94000000D03*
%TO.P,Q2,3,S*%
%TO.N,/BATERY*%
X103000000Y-94000000D03*
%TD*%
D15*
%TO.P,J3,1,Pin_1*%
%TO.N,/BATERY_N*%
X108000000Y-95000000D03*
D16*
%TO.P,J3,2,Pin_2*%
%TO.N,/BATERY*%
X108000000Y-92460000D03*
%TD*%
D27*
%TO.P,SW1,1,1*%
%TO.N,+3.3V*%
X92125000Y-110000000D03*
%TO.P,SW1,2,2*%
%TO.N,/BTN1*%
X99875000Y-110000000D03*
%TD*%
D28*
%TO.P,U3,1,OD*%
%TO.N,Net-(U3-OD)*%
X120000000Y-98900000D03*
%TO.P,U3,2,CS*%
%TO.N,Net-(U3-CS)*%
X120000000Y-97950000D03*
%TO.P,U3,3,OC*%
%TO.N,Net-(U3-OC)*%
X120000000Y-97000000D03*
%TO.P,U3,4,TD*%
%TO.N,unconnected-(U3-TD-Pad4)*%
X117490000Y-97000000D03*
%TO.P,U3,5,VCC*%
%TO.N,Net-(U3-VCC)*%
X117490000Y-97950000D03*
%TO.P,U3,6,GND*%
%TO.N,GND*%
X117490000Y-98900000D03*
%TD*%
D23*
%TO.P,C8,1*%
%TO.N,+3.3V*%
X107000000Y-86000000D03*
%TO.P,C8,2*%
%TO.N,GND*%
X107000000Y-88950000D03*
%TD*%
D15*
%TO.P,J5,1,Pin_1*%
%TO.N,+3.3V*%
X94000000Y-57000000D03*
D16*
%TO.P,J5,2,Pin_2*%
%TO.N,/ADC_0*%
X94000000Y-59540000D03*
%TO.P,J5,3,Pin_3*%
%TO.N,/ADC_1*%
X94000000Y-62080000D03*
%TO.P,J5,4,Pin_4*%
%TO.N,/ADC_2*%
X94000000Y-64620000D03*
%TO.P,J5,5,Pin_5*%
%TO.N,/ADC_3*%
X94000000Y-67160000D03*
%TO.P,J5,6,Pin_6*%
%TO.N,/ADC_4*%
X94000000Y-69700000D03*
%TO.P,J5,7,Pin_7*%
%TO.N,/ADC_5*%
X94000000Y-72240000D03*
%TO.P,J5,8,Pin_8*%
%TO.N,/DAC1*%
X94000000Y-74780000D03*
%TO.P,J5,9,Pin_9*%
%TO.N,/DAC2*%
X94000000Y-77320000D03*
%TO.P,J5,10,Pin_10*%
%TO.N,GND*%
X94000000Y-79860000D03*
%TD*%
D13*
%TO.P,D1,1,K*%
%TO.N,Net-(D1-K)*%
X120400000Y-105000000D03*
%TO.P,D1,2,A*%
%TO.N,+5V*%
X117600000Y-105000000D03*
%TD*%
D29*
%TO.P,C4,1*%
%TO.N,Net-(U3-VCC)*%
X114475000Y-95000000D03*
%TO.P,C4,2*%
%TO.N,/BATERY_N*%
X111525000Y-95000000D03*
%TD*%
D30*
%TO.P,U2,1,TEMP*%
%TO.N,GND*%
X109190000Y-110000000D03*
%TO.P,U2,2,PROG*%
%TO.N,Net-(U2-PROG)*%
X110460000Y-110000000D03*
%TO.P,U2,3,GND*%
%TO.N,GND*%
X111730000Y-110000000D03*
%TO.P,U2,4,VCC*%
%TO.N,+5V*%
X113000000Y-110000000D03*
%TO.P,U2,5,BAT*%
%TO.N,/BATERY*%
X113000000Y-105050000D03*
%TO.P,U2,6,~{STDBY}*%
%TO.N,Net-(U2-~{STDBY})*%
X111730000Y-105050000D03*
%TO.P,U2,7,~{CHRG}*%
%TO.N,Net-(U2-~{CHRG})*%
X110460000Y-105050000D03*
%TO.P,U2,8,CE*%
%TO.N,+5V*%
X109190000Y-105050000D03*
D31*
%TO.P,U2,9,EP*%
%TO.N,unconnected-(U2-EP-Pad9)*%
X111095000Y-107525000D03*
%TD*%
D32*
%TO.P,Q1,1*%
%TO.N,unconnected-(Q1-Pad1)_0*%
X108120000Y-99025000D03*
%TO.P,Q1,2*%
%TO.N,/BATERY_N*%
X108120000Y-99675000D03*
%TO.P,Q1,3*%
X108120000Y-100325000D03*
%TO.P,Q1,4*%
%TO.N,Net-(U3-OD)*%
X108120000Y-100975000D03*
%TO.P,Q1,5*%
%TO.N,Net-(U3-OC)*%
X113880000Y-100975000D03*
%TO.P,Q1,6*%
%TO.N,GND*%
X113880000Y-100325000D03*
%TO.P,Q1,7*%
X113880000Y-99675000D03*
%TO.P,Q1,8*%
%TO.N,unconnected-(Q1-Pad1)*%
X113880000Y-99025000D03*
%TD*%
D15*
%TO.P,J6,1,Pin_1*%
%TO.N,+3.3V*%
X101460000Y-98000000D03*
D16*
%TO.P,J6,2,Pin_2*%
X104000000Y-98000000D03*
%TO.P,J6,3,Pin_3*%
%TO.N,/SDA*%
X101460000Y-100540000D03*
%TO.P,J6,4,Pin_4*%
X104000000Y-100540000D03*
%TO.P,J6,5,Pin_5*%
%TO.N,/SCL*%
X101460000Y-103080000D03*
%TO.P,J6,6,Pin_6*%
X104000000Y-103080000D03*
%TO.P,J6,7,Pin_7*%
%TO.N,GND*%
X101460000Y-105620000D03*
%TO.P,J6,8,Pin_8*%
X104000000Y-105620000D03*
%TD*%
D11*
%TO.P,R6,1*%
%TO.N,GND*%
X113000000Y-88925000D03*
%TO.P,R6,2*%
%TO.N,/BTN2*%
X113000000Y-86000000D03*
%TD*%
D15*
%TO.P,J10,1,Pin_1*%
%TO.N,GND*%
X122000000Y-58000000D03*
D16*
%TO.P,J10,2,Pin_2*%
%TO.N,/TX*%
X122000000Y-60540000D03*
%TO.P,J10,3,Pin_3*%
%TO.N,/RX*%
X122000000Y-63080000D03*
%TO.P,J10,4,Pin_4*%
%TO.N,/gpio_00*%
X122000000Y-65620000D03*
%TO.P,J10,5,Pin_5*%
%TO.N,/reset*%
X122000000Y-68160000D03*
%TO.P,J10,6,Pin_6*%
%TO.N,+3.3V*%
X122000000Y-70700000D03*
%TD*%
D33*
%TO.P,SW3,1,1*%
%TO.N,GND*%
X122500000Y-95750000D03*
%TO.P,SW3,2,2*%
%TO.N,/reset*%
X122500000Y-88000000D03*
%TD*%
D34*
%TO.P,U1,1,GND*%
%TO.N,GND*%
X99000000Y-56000000D03*
%TO.P,U1,2,3V3*%
%TO.N,+3.3V*%
X99000000Y-57500000D03*
%TO.P,U1,3,GPIO0/BOOT*%
%TO.N,/gpio_00*%
X99000000Y-59000000D03*
%TO.P,U1,4,GPIO1/ADC1_CH0*%
%TO.N,/ADC_0*%
X99000000Y-60500000D03*
%TO.P,U1,5,GPIO2/ADC1_CH1*%
%TO.N,/ADC_1*%
X99000000Y-62000000D03*
%TO.P,U1,6,GPIO3/ADC1_CH2*%
%TO.N,/ADC_2*%
X99000000Y-63500000D03*
%TO.P,U1,7,GPIO4/ADC1_CH3*%
%TO.N,/ADC_3*%
X99000000Y-65000000D03*
%TO.P,U1,8,GPIO5/ADC1_CH4*%
%TO.N,/ADC_4*%
X99000000Y-66500000D03*
%TO.P,U1,9,GPIO6/ADC1_CH5*%
%TO.N,/ADC_5*%
X99000000Y-68000000D03*
%TO.P,U1,10,GPIO7/ADC1_CH6*%
%TO.N,/DISPLAY_SDA*%
X99000000Y-69500000D03*
%TO.P,U1,11,GPIO8/ADC1_CH7*%
%TO.N,/DISPLAY_SCL*%
X99000000Y-71000000D03*
%TO.P,U1,12,GPIO9/ADC1_CH8*%
%TO.N,/DIO1*%
X99000000Y-72500000D03*
%TO.P,U1,13,GPIO10/ADC1_CH9*%
%TO.N,/DIO2*%
X99000000Y-74000000D03*
%TO.P,U1,14,GPIO11/ADC2_CH0*%
%TO.N,/SDA*%
X99000000Y-75500000D03*
%TO.P,U1,15,GPIO12/ADC2_CH1*%
%TO.N,/SCL*%
X99000000Y-77000000D03*
%TO.P,U1,16,GPIO13/ADC2_CH2*%
%TO.N,/BTN1*%
X99000000Y-78500000D03*
D35*
%TO.P,U1,17,GPIO14/ADC2_CH3*%
%TO.N,/BTN2*%
X101000000Y-79250000D03*
%TO.P,U1,18,GPIO15/ADC2_CH4/XTAL_32K_P*%
%TO.N,unconnected-(U1-GPIO15{slash}ADC2_CH4{slash}XTAL_32K_P-Pad18)*%
X102500000Y-79250000D03*
%TO.P,U1,19,GPIO16/ADC2_CH5/XTAL_32K_N*%
%TO.N,unconnected-(U1-GPIO16{slash}ADC2_CH5{slash}XTAL_32K_N-Pad19)*%
X104000000Y-79250000D03*
%TO.P,U1,20,ADC2_CH6/DAC_1/GPIO17*%
%TO.N,/DAC1*%
X105500000Y-79250000D03*
%TO.P,U1,21,ADC2_CH7/DAC_2/GPIO18*%
%TO.N,/DAC2*%
X107000000Y-79250000D03*
%TO.P,U1,22,USB_D-/ADC2_CH8/GPIO19*%
%TO.N,/USB_D-*%
X108500000Y-79250000D03*
%TO.P,U1,23,USB_D+/ADC2_CH9/GPIO20*%
%TO.N,/USB_D+*%
X110000000Y-79250000D03*
%TO.P,U1,24,GPIO21*%
%TO.N,/TXEN*%
X111500000Y-79250000D03*
%TO.P,U1,25,SPI_CS1/GPIO26*%
%TO.N,unconnected-(U1-SPI_CS1{slash}GPIO26-Pad25)*%
X113000000Y-79250000D03*
%TO.P,U1,26,GND*%
%TO.N,GND*%
X114500000Y-79250000D03*
D34*
%TO.P,U1,27,GPIO33*%
%TO.N,/RXEN*%
X116500000Y-78500000D03*
%TO.P,U1,28,GPIO34*%
%TO.N,/NSS*%
X116500000Y-77000000D03*
%TO.P,U1,29,GPIO35*%
%TO.N,/MOSI*%
X116500000Y-75500000D03*
%TO.P,U1,30,GPIO36*%
%TO.N,/SCLK*%
X116500000Y-74000000D03*
%TO.P,U1,31,GPIO37*%
%TO.N,/MISO*%
X116500000Y-72500000D03*
%TO.P,U1,32,GPIO38*%
%TO.N,/RST*%
X116500000Y-71000000D03*
%TO.P,U1,33,MTCK/JTAG/GPIO39*%
%TO.N,unconnected-(U1-MTCK{slash}JTAG{slash}GPIO39-Pad33)*%
X116500000Y-69500000D03*
%TO.P,U1,34,MTDO/JTAG/GPIO40*%
%TO.N,unconnected-(U1-MTDO{slash}JTAG{slash}GPIO40-Pad34)*%
X116500000Y-68000000D03*
%TO.P,U1,35,MTDI/JTAG/GPIO41*%
%TO.N,unconnected-(U1-MTDI{slash}JTAG{slash}GPIO41-Pad35)*%
X116500000Y-66500000D03*
%TO.P,U1,36,MTMS/JTAG/GPIO42*%
%TO.N,unconnected-(U1-MTMS{slash}JTAG{slash}GPIO42-Pad36)*%
X116500000Y-65000000D03*
%TO.P,U1,37,GPIO43/U0TXD/PROG*%
%TO.N,/TX*%
X116500000Y-63500000D03*
%TO.P,U1,38,GPIO44/U0RXD/PROG*%
%TO.N,/RX*%
X116500000Y-62000000D03*
%TO.P,U1,39,GPIO45*%
%TO.N,/BUSY*%
X116500000Y-60500000D03*
%TO.P,U1,40,GPIO46*%
%TO.N,unconnected-(U1-GPIO46-Pad40)*%
X116500000Y-59000000D03*
%TO.P,U1,41,CHIP/PU/RESET*%
%TO.N,/reset*%
X116500000Y-57500000D03*
%TO.P,U1,42,GND*%
%TO.N,GND*%
X116500000Y-56000000D03*
D36*
%TO.P,U1,43,GND*%
X105060000Y-62550000D03*
X105060000Y-64050000D03*
X105060000Y-65550000D03*
X106560000Y-62550000D03*
X106560000Y-64050000D03*
X106560000Y-65550000D03*
X108060000Y-62550000D03*
X108060000Y-64050000D03*
X108060000Y-65550000D03*
%TD*%
D11*
%TO.P,R8,1*%
%TO.N,GND*%
X94000000Y-94462500D03*
%TO.P,R8,2*%
%TO.N,+5V*%
X94000000Y-91537500D03*
%TD*%
D15*
%TO.P,J4,1,Pin_1*%
%TO.N,+3.3V*%
X94460000Y-98000000D03*
D16*
%TO.P,J4,2,Pin_2*%
X97000000Y-98000000D03*
%TO.P,J4,3,Pin_3*%
%TO.N,/SDA*%
X94460000Y-100540000D03*
%TO.P,J4,4,Pin_4*%
X97000000Y-100540000D03*
%TO.P,J4,5,Pin_5*%
%TO.N,/SCL*%
X94460000Y-103080000D03*
%TO.P,J4,6,Pin_6*%
X97000000Y-103080000D03*
%TO.P,J4,7,Pin_7*%
%TO.N,GND*%
X94460000Y-105620000D03*
%TO.P,J4,8,Pin_8*%
X97000000Y-105620000D03*
%TD*%
D14*
%TO.P,R7,1*%
%TO.N,Net-(U3-VCC)*%
X114000000Y-92000000D03*
%TO.P,R7,2*%
%TO.N,/BATERY*%
X111075000Y-92000000D03*
%TD*%
D11*
%TO.P,R4,1*%
%TO.N,Net-(U3-CS)*%
X119000000Y-93925000D03*
%TO.P,R4,2*%
%TO.N,GND*%
X119000000Y-91000000D03*
%TD*%
D27*
%TO.P,SW2,1,1*%
%TO.N,+3.3V*%
X92125000Y-115000000D03*
%TO.P,SW2,2,2*%
%TO.N,/BTN2*%
X99875000Y-115000000D03*
%TD*%
D15*
%TO.P,J9,1,Pin_1*%
%TO.N,GND*%
X122000000Y-84000000D03*
D16*
%TO.P,J9,2,Pin_2*%
%TO.N,+3.3V*%
X122000000Y-81460000D03*
%TO.P,J9,3,Pin_3*%
%TO.N,/DISPLAY_SCL*%
X122000000Y-78920000D03*
%TO.P,J9,4,Pin_4*%
%TO.N,/DISPLAY_SDA*%
X122000000Y-76380000D03*
%TD*%
D37*
%TO.N,Net-(U2-PROG)*%
X108000000Y-114000000D03*
X110460000Y-110000000D03*
%TO.N,GND*%
X107000000Y-111000000D03*
X118000000Y-89000000D03*
X119000000Y-86000000D03*
X111000000Y-72000000D03*
X110000000Y-103000000D03*
X107000000Y-90000000D03*
X95000000Y-85000000D03*
X102000000Y-82000000D03*
X115000000Y-108000000D03*
X106000000Y-75000000D03*
X120000000Y-64000000D03*
X114000000Y-72000000D03*
X107000000Y-70000000D03*
X116000000Y-99000000D03*
X104000000Y-90500000D03*
X97000000Y-62000000D03*
X97000000Y-59000000D03*
X100000000Y-112000000D03*
X106000000Y-61000000D03*
X97000000Y-89000000D03*
X113000000Y-88000000D03*
X96000000Y-67000000D03*
X96000000Y-73000000D03*
X112000000Y-111000000D03*
X104000000Y-87075000D03*
X97000000Y-83000000D03*
X92000000Y-54500000D03*
X103000000Y-84000000D03*
X112000000Y-112000000D03*
X106000000Y-88000000D03*
X116000000Y-112000000D03*
X111000000Y-90000000D03*
X93349239Y-81288578D03*
X105000000Y-77000000D03*
X102000000Y-63000000D03*
X92000000Y-82500000D03*
X115000000Y-103000000D03*
X119000000Y-67000000D03*
X109000000Y-68000000D03*
X107000000Y-106000000D03*
X122000000Y-73000000D03*
X102000000Y-108000000D03*
%TO.N,+3.3V*%
X107000000Y-80990000D03*
X115000000Y-68000000D03*
X103520000Y-73520000D03*
X98000000Y-85000000D03*
X118000000Y-68000000D03*
X111000000Y-66000000D03*
X102000000Y-58000000D03*
X107000000Y-77730000D03*
%TO.N,+5V*%
X114000000Y-109000000D03*
X107000000Y-103000000D03*
%TO.N,/BATERY*%
X113000000Y-103000000D03*
%TO.N,/reset*%
X114000000Y-58000000D03*
X119000000Y-64150000D03*
%TO.N,/gpio_00*%
X120000000Y-65000000D03*
X115000000Y-60000000D03*
X107000000Y-61000000D03*
X111000000Y-61000000D03*
%TO.N,Net-(D1-K)*%
X120000000Y-104000000D03*
%TO.N,Net-(D2-K)*%
X120000000Y-109000000D03*
%TO.N,/BUSY*%
X115000000Y-61000000D03*
%TO.N,/MISO*%
X113000000Y-76000000D03*
%TO.N,/RXEN*%
X118054620Y-80054620D03*
%TO.N,/DIO1*%
X113000000Y-73000000D03*
%TO.N,/DIO2*%
X104000000Y-76000000D03*
%TO.N,/MOSI*%
X113000000Y-78000000D03*
%TO.N,/NSS*%
X118000000Y-77000000D03*
%TO.N,/TXEN*%
X111000000Y-78000000D03*
%TO.N,/RST*%
X112000000Y-74000000D03*
%TO.N,/SCLK*%
X112000000Y-78000000D03*
%TO.N,/USB_D+*%
X121000000Y-111000000D03*
X110000000Y-82290000D03*
%TO.N,/USB_D-*%
X120000000Y-111000000D03*
X109000000Y-82290000D03*
%TO.N,/SDA*%
X98000000Y-76000000D03*
%TO.N,/SCL*%
X97676298Y-78800000D03*
X94000000Y-84000000D03*
X92610000Y-84000000D03*
%TO.N,/DISPLAY_SDA*%
X115000000Y-70000000D03*
%TO.N,/DISPLAY_SCL*%
X115000000Y-71000000D03*
%TO.N,/RX*%
X119810380Y-61810380D03*
X121000000Y-63000000D03*
%TO.N,Net-(U3-OC)*%
X119000000Y-96000000D03*
X116000000Y-101000000D03*
%TO.N,Net-(U2-~{STDBY})*%
X112000000Y-103000000D03*
%TO.N,Net-(U2-~{CHRG})*%
X111000000Y-103000000D03*
%TO.N,/BTN1*%
X106025331Y-83025331D03*
X99000000Y-82000000D03*
%TO.N,/BTN2*%
X103000000Y-81000000D03*
X107000000Y-82290000D03*
%TD*%
D38*
%TO.N,Net-(U2-PROG)*%
X107462500Y-114000000D02*
X108000000Y-114000000D01*
D39*
%TO.N,GND*%
X119000000Y-114965000D02*
X117805000Y-113770000D01*
X122445000Y-114745000D02*
X123700000Y-116000000D01*
X119000000Y-116000000D02*
X119000000Y-114965000D01*
X112000000Y-111000000D02*
X112000000Y-110270000D01*
D40*
X106950000Y-88950000D02*
X106000000Y-88000000D01*
D39*
X122445000Y-113770000D02*
X122445000Y-114745000D01*
D40*
X116715000Y-99675000D02*
X117490000Y-98900000D01*
D39*
X116550000Y-116000000D02*
X116550000Y-115025000D01*
X121845000Y-113770000D02*
X121425000Y-113350000D01*
X121250000Y-116000000D02*
X123700000Y-116000000D01*
X122445000Y-113770000D02*
X122445000Y-114805000D01*
D40*
X113880000Y-99675000D02*
X116715000Y-99675000D01*
D39*
X116550000Y-116000000D02*
X119000000Y-116000000D01*
X121250000Y-116000000D02*
X119000000Y-116000000D01*
X116550000Y-115025000D02*
X117805000Y-113770000D01*
X122445000Y-113770000D02*
X121845000Y-113770000D01*
X122445000Y-114805000D02*
X121250000Y-116000000D01*
D40*
X107000000Y-88950000D02*
X106950000Y-88950000D01*
X113880000Y-99675000D02*
X113880000Y-100325000D01*
D39*
X112000000Y-110270000D02*
X111730000Y-110000000D01*
D41*
%TO.N,+3.3V*%
X102803122Y-85225000D02*
X103053122Y-84975000D01*
X104985939Y-83004062D02*
X107000000Y-80990000D01*
X107000000Y-77730000D02*
X103520000Y-74250000D01*
X103520000Y-74250000D02*
X103520000Y-73520000D01*
X120000000Y-73000000D02*
X121000000Y-72000000D01*
D39*
X92440761Y-83250000D02*
X91500000Y-84190761D01*
X91500000Y-84190761D02*
X91500000Y-109375000D01*
D41*
X92750000Y-81750000D02*
X92689339Y-81750000D01*
X107000000Y-86000000D02*
X105350000Y-86000000D01*
X99950000Y-85500000D02*
X100225000Y-85225000D01*
X93000000Y-82000000D02*
X92750000Y-81750000D01*
D39*
X92125000Y-115000000D02*
X92125000Y-110000000D01*
D41*
X101460000Y-98000000D02*
X104000000Y-98000000D01*
X98000000Y-57000000D02*
X94000000Y-57000000D01*
X102803122Y-85225000D02*
X100225000Y-85225000D01*
X93000000Y-83250000D02*
X93000000Y-82000000D01*
X94500000Y-83250000D02*
X96250000Y-85000000D01*
X92000000Y-59000000D02*
X94000000Y-57000000D01*
X105350000Y-85378122D02*
X104946878Y-84975000D01*
X92689339Y-81750000D02*
X92000000Y-81060661D01*
D39*
X93000000Y-83250000D02*
X92440761Y-83250000D01*
D41*
X121000000Y-71700000D02*
X122000000Y-70700000D01*
X96250000Y-85000000D02*
X98000000Y-85000000D01*
X113000000Y-68000000D02*
X111000000Y-66000000D01*
X92000000Y-81060661D02*
X92000000Y-59000000D01*
X99500000Y-58000000D02*
X99000000Y-57500000D01*
X93000000Y-83250000D02*
X94500000Y-83250000D01*
X103053122Y-84975000D02*
X104946878Y-84975000D01*
X120000000Y-79460000D02*
X120000000Y-73000000D01*
X98500000Y-57500000D02*
X98000000Y-57000000D01*
X98500000Y-85500000D02*
X98000000Y-85000000D01*
X122000000Y-70700000D02*
X120700000Y-70700000D01*
X99000000Y-57500000D02*
X98500000Y-57500000D01*
X101460000Y-98000000D02*
X97000000Y-98000000D01*
X99950000Y-85500000D02*
X98500000Y-85500000D01*
X115000000Y-68000000D02*
X113000000Y-68000000D01*
X102000000Y-58000000D02*
X99500000Y-58000000D01*
X94460000Y-98000000D02*
X97000000Y-98000000D01*
D39*
X91500000Y-109375000D02*
X92125000Y-110000000D01*
D41*
X105350000Y-86000000D02*
X105350000Y-85378122D01*
X122000000Y-81460000D02*
X120000000Y-79460000D01*
X120700000Y-70700000D02*
X118000000Y-68000000D01*
X104985939Y-85014061D02*
X104985939Y-83004062D01*
X104946878Y-84975000D02*
X104985939Y-85014061D01*
X121000000Y-72000000D02*
X121000000Y-71700000D01*
%TO.N,+5V*%
X97920000Y-91920000D02*
X97920000Y-94000000D01*
X94000000Y-89000000D02*
X95000000Y-89000000D01*
D40*
X114975000Y-109000000D02*
X114000000Y-109000000D01*
D39*
X117600000Y-108000000D02*
X117600000Y-108400000D01*
D42*
X113000000Y-110000000D02*
X114000000Y-109000000D01*
D40*
X118825000Y-113350000D02*
X118825000Y-112850000D01*
X118825000Y-109225000D02*
X117600000Y-108000000D01*
X118825000Y-112850000D02*
X114975000Y-109000000D01*
D41*
X117600000Y-105000000D02*
X117600000Y-108000000D01*
D39*
X94000000Y-91537500D02*
X94000000Y-89000000D01*
D41*
X119050000Y-102000000D02*
X119050000Y-103550000D01*
D42*
X113540000Y-114000000D02*
X113540000Y-110000000D01*
D41*
X95000000Y-89000000D02*
X97920000Y-91920000D01*
D42*
X109190000Y-105050000D02*
X109050000Y-105050000D01*
D40*
X118825000Y-113350000D02*
X118825000Y-109225000D01*
D42*
X113540000Y-110000000D02*
X113000000Y-110000000D01*
D41*
X119050000Y-103550000D02*
X117600000Y-105000000D01*
D42*
X109050000Y-105050000D02*
X107000000Y-103000000D01*
D41*
%TO.N,/BATERY_N*%
X108120000Y-100325000D02*
X107340001Y-100325000D01*
X108120000Y-99675000D02*
X107164764Y-99675000D01*
X106890000Y-99400236D02*
X106890000Y-96110000D01*
X106890000Y-99874999D02*
X106890000Y-96110000D01*
X107164764Y-99675000D02*
X106890000Y-99400236D01*
X107340001Y-100325000D02*
X106890000Y-99874999D01*
X108120000Y-100325000D02*
X108120000Y-99675000D01*
X111525000Y-95000000D02*
X108000000Y-95000000D01*
X106890000Y-96110000D02*
X108000000Y-95000000D01*
%TO.N,Net-(U3-VCC)*%
X114475000Y-96040000D02*
X114475000Y-95000000D01*
X117490000Y-97950000D02*
X116385000Y-97950000D01*
X116385000Y-97950000D02*
X114475000Y-96040000D01*
X114475000Y-95000000D02*
X114475000Y-92475000D01*
X114475000Y-92475000D02*
X114000000Y-92000000D01*
%TO.N,/BATERY*%
X112500000Y-90575000D02*
X115425000Y-90575000D01*
X115425000Y-90575000D02*
X116000000Y-90000000D01*
D42*
X111075000Y-92000000D02*
X108460000Y-92000000D01*
X113000000Y-105050000D02*
X113000000Y-103000000D01*
D41*
X111075000Y-92000000D02*
X112500000Y-90575000D01*
D42*
X108460000Y-92000000D02*
X108000000Y-92460000D01*
D41*
%TO.N,Net-(D3-K)*%
X103000000Y-87000000D02*
X104000000Y-86000000D01*
X98850000Y-91850000D02*
X98850000Y-87989172D01*
X99862500Y-87000000D02*
X103000000Y-87000000D01*
X100460000Y-94000000D02*
X100460000Y-93460000D01*
X98850000Y-87989172D02*
X99839172Y-87000000D01*
X100460000Y-93460000D02*
X98850000Y-91850000D01*
X99839172Y-87000000D02*
X99862500Y-87000000D01*
X95300000Y-87000000D02*
X94000000Y-85700000D01*
X99862500Y-87000000D02*
X95300000Y-87000000D01*
D39*
%TO.N,/reset*%
X114000000Y-58000000D02*
X116000000Y-58000000D01*
X122500000Y-88000000D02*
X124000000Y-86500000D01*
X122000000Y-68160000D02*
X119000000Y-65160000D01*
X116000000Y-58000000D02*
X116500000Y-57500000D01*
X119000000Y-65160000D02*
X119000000Y-64150000D01*
X124000000Y-70160000D02*
X122000000Y-68160000D01*
X124000000Y-86500000D02*
X124000000Y-70160000D01*
%TO.N,/gpio_00*%
X105000000Y-59000000D02*
X107000000Y-61000000D01*
X122000000Y-65620000D02*
X120620000Y-65620000D01*
X114000000Y-61000000D02*
X111000000Y-61000000D01*
X99000000Y-59000000D02*
X105000000Y-59000000D01*
X120620000Y-65620000D02*
X120000000Y-65000000D01*
X115000000Y-60000000D02*
X114000000Y-61000000D01*
%TO.N,Net-(D1-K)*%
X120400000Y-104400000D02*
X120000000Y-104000000D01*
X120400000Y-105000000D02*
X120400000Y-104400000D01*
%TO.N,Net-(D2-K)*%
X120400000Y-108600000D02*
X120000000Y-109000000D01*
X120400000Y-108000000D02*
X120400000Y-108600000D01*
%TO.N,/BUSY*%
X115000000Y-61000000D02*
X116000000Y-61000000D01*
X116000000Y-61000000D02*
X116500000Y-60500000D01*
%TO.N,/MISO*%
X113000000Y-75700000D02*
X116200000Y-72500000D01*
X113000000Y-76000000D02*
X113000000Y-75700000D01*
X116200000Y-72500000D02*
X116500000Y-72500000D01*
%TO.N,/RXEN*%
X118054620Y-80054620D02*
X116500000Y-78500000D01*
%TO.N,/DIO1*%
X113000000Y-73000000D02*
X107000000Y-73000000D01*
X107000000Y-73000000D02*
X106500000Y-72500000D01*
X106500000Y-72500000D02*
X99000000Y-72500000D01*
%TO.N,/DIO2*%
X104000000Y-76000000D02*
X102000000Y-74000000D01*
X102000000Y-74000000D02*
X99000000Y-74000000D01*
%TO.N,/MOSI*%
X113000000Y-78000000D02*
X115500000Y-75500000D01*
X115500000Y-75500000D02*
X116500000Y-75500000D01*
%TO.N,/NSS*%
X118000000Y-77000000D02*
X116500000Y-77000000D01*
%TO.N,/TXEN*%
X111000000Y-78750000D02*
X111500000Y-79250000D01*
X111000000Y-78000000D02*
X111000000Y-78750000D01*
%TO.N,/RST*%
X112000000Y-74000000D02*
X113200000Y-74000000D01*
X113200000Y-74000000D02*
X116200000Y-71000000D01*
X116200000Y-71000000D02*
X116500000Y-71000000D01*
%TO.N,/SCLK*%
X116000000Y-74000000D02*
X116500000Y-74000000D01*
X112000000Y-78000000D02*
X116000000Y-74000000D01*
%TO.N,/USB_D+*%
X120125000Y-111875000D02*
X120125000Y-113350000D01*
X121000000Y-111000000D02*
X120125000Y-111875000D01*
X110000000Y-79250000D02*
X110000000Y-82290000D01*
%TO.N,/USB_D-*%
X108500000Y-80500000D02*
X108500000Y-79250000D01*
X119475000Y-113350000D02*
X119475000Y-111525000D01*
X119475000Y-111525000D02*
X120000000Y-111000000D01*
X109000000Y-81000000D02*
X108500000Y-80500000D01*
X109000000Y-82290000D02*
X109000000Y-81000000D01*
%TO.N,/SDA*%
X98500000Y-75500000D02*
X98000000Y-76000000D01*
D41*
X101460000Y-100540000D02*
X104000000Y-100540000D01*
X94460000Y-100540000D02*
X97000000Y-100540000D01*
X97000000Y-100540000D02*
X101460000Y-100540000D01*
D39*
X99000000Y-75500000D02*
X98500000Y-75500000D01*
%TO.N,/SCL*%
X94000000Y-84000000D02*
X92610000Y-84000000D01*
X97676298Y-78800000D02*
X97676298Y-77923702D01*
X98600000Y-77000000D02*
X99000000Y-77000000D01*
D41*
X94460000Y-103080000D02*
X97000000Y-103080000D01*
X97000000Y-103080000D02*
X101460000Y-103080000D01*
X101460000Y-103080000D02*
X104000000Y-103080000D01*
D39*
X97676298Y-77923702D02*
X98600000Y-77000000D01*
%TO.N,/ADC_3*%
X94000000Y-67160000D02*
X96160000Y-65000000D01*
X96160000Y-65000000D02*
X99000000Y-65000000D01*
%TO.N,/ADC_0*%
X94000000Y-59540000D02*
X94960000Y-60500000D01*
X94960000Y-60500000D02*
X99000000Y-60500000D01*
%TO.N,/ADC_2*%
X94000000Y-64620000D02*
X94620000Y-64000000D01*
X94620000Y-64000000D02*
X98500000Y-64000000D01*
X98500000Y-64000000D02*
X99000000Y-63500000D01*
%TO.N,/DAC2*%
X107000000Y-79650000D02*
X107000000Y-79250000D01*
X94680000Y-78000000D02*
X95000000Y-78000000D01*
X105407106Y-80350000D02*
X106300000Y-80350000D01*
X98442894Y-83150000D02*
X102607106Y-83150000D01*
X97850000Y-80850000D02*
X97850000Y-82557106D01*
X94000000Y-77320000D02*
X94680000Y-78000000D01*
X97850000Y-82557106D02*
X98442894Y-83150000D01*
X95000000Y-78000000D02*
X97850000Y-80850000D01*
X106300000Y-80350000D02*
X107000000Y-79650000D01*
X102607106Y-83150000D02*
X105407106Y-80350000D01*
%TO.N,/DAC1*%
X94000000Y-74780000D02*
X96588149Y-77368149D01*
X102400000Y-82650000D02*
X105500000Y-79550000D01*
X96588149Y-78631090D02*
X97407059Y-79450000D01*
X97450000Y-79450000D02*
X98350000Y-80350000D01*
X98350000Y-80350000D02*
X98350000Y-82269239D01*
X97407059Y-79450000D02*
X97450000Y-79450000D01*
X98730761Y-82650000D02*
X102400000Y-82650000D01*
X98350000Y-82269239D02*
X98730761Y-82650000D01*
X105500000Y-79550000D02*
X105500000Y-79250000D01*
X96588149Y-77368149D02*
X96588149Y-78631090D01*
%TO.N,/ADC_4*%
X98500000Y-66500000D02*
X99000000Y-66500000D01*
X95000000Y-70000000D02*
X98500000Y-66500000D01*
X94000000Y-69700000D02*
X94300000Y-70000000D01*
X94300000Y-70000000D02*
X95000000Y-70000000D01*
%TO.N,/ADC_5*%
X94000000Y-72240000D02*
X98240000Y-68000000D01*
X98240000Y-68000000D02*
X99000000Y-68000000D01*
%TO.N,/ADC_1*%
X94000000Y-62080000D02*
X95080000Y-61000000D01*
X98600000Y-62000000D02*
X99000000Y-62000000D01*
X97600000Y-61000000D02*
X98600000Y-62000000D01*
X95080000Y-61000000D02*
X97600000Y-61000000D01*
%TO.N,/DISPLAY_SDA*%
X99000000Y-69500000D02*
X99500000Y-69000000D01*
X99500000Y-69000000D02*
X114000000Y-69000000D01*
X114000000Y-69000000D02*
X115000000Y-70000000D01*
%TO.N,/DISPLAY_SCL*%
X99000000Y-71000000D02*
X115000000Y-71000000D01*
%TO.N,/RX*%
X121080000Y-63080000D02*
X121000000Y-63000000D01*
X122000000Y-63080000D02*
X121080000Y-63080000D01*
X119810380Y-61810380D02*
X119620760Y-62000000D01*
X119620760Y-62000000D02*
X116500000Y-62000000D01*
%TO.N,/TX*%
X120040000Y-62500000D02*
X117900000Y-62500000D01*
X122000000Y-60540000D02*
X120040000Y-62500000D01*
X117900000Y-62500000D02*
X116900000Y-63500000D01*
X116900000Y-63500000D02*
X116500000Y-63500000D01*
D41*
%TO.N,Net-(U3-OC)*%
X120000000Y-97000000D02*
X119000000Y-96000000D01*
X116000000Y-101000000D02*
X113905000Y-101000000D01*
X113905000Y-101000000D02*
X113880000Y-100975000D01*
%TO.N,Net-(U3-OD)*%
X118060661Y-100000000D02*
X116310661Y-101750000D01*
X120000000Y-100000000D02*
X118060661Y-100000000D01*
X120000000Y-98900000D02*
X120000000Y-100000000D01*
X108845000Y-101750000D02*
X108120000Y-101025000D01*
X116310661Y-101750000D02*
X108845000Y-101750000D01*
D39*
%TO.N,Net-(U2-~{STDBY})*%
X112000000Y-104780000D02*
X111730000Y-105050000D01*
X112000000Y-103000000D02*
X112000000Y-104780000D01*
%TO.N,Net-(U2-~{CHRG})*%
X111000000Y-104510000D02*
X110460000Y-105050000D01*
X111000000Y-103000000D02*
X111000000Y-104510000D01*
%TO.N,Net-(U3-CS)*%
X120955000Y-96335000D02*
X119000000Y-94380000D01*
X120650000Y-97950000D02*
X120955000Y-97645000D01*
X119000000Y-94380000D02*
X119000000Y-93925000D01*
X120000000Y-97950000D02*
X120650000Y-97950000D01*
X120955000Y-97645000D02*
X120955000Y-96335000D01*
%TO.N,/BTN1*%
X99000000Y-82000000D02*
X99000000Y-78500000D01*
X109000000Y-86000000D02*
X106025331Y-83025331D01*
X110000000Y-86000000D02*
X109000000Y-86000000D01*
X109000000Y-87000000D02*
X110000000Y-86000000D01*
X105250000Y-87709619D02*
X105959619Y-87000000D01*
X105250000Y-107067057D02*
X105250000Y-87709619D01*
X99875000Y-110000000D02*
X102317057Y-110000000D01*
X105959619Y-87000000D02*
X109000000Y-87000000D01*
X102317057Y-110000000D02*
X105250000Y-107067057D01*
%TO.N,/BTN2*%
X99875000Y-115000000D02*
X99875000Y-114200000D01*
X112087500Y-85087500D02*
X109797500Y-85087500D01*
X99875000Y-114200000D02*
X106290000Y-107785000D01*
X108775000Y-88137500D02*
X110000000Y-86912500D01*
X108775000Y-89987943D02*
X108775000Y-88137500D01*
X109797500Y-85087500D02*
X107000000Y-82290000D01*
X112087500Y-86912500D02*
X113000000Y-86000000D01*
X113000000Y-86000000D02*
X112087500Y-85087500D01*
X101000000Y-79550000D02*
X101000000Y-79250000D01*
X102350000Y-80350000D02*
X101800000Y-80350000D01*
X110000000Y-86912500D02*
X112087500Y-86912500D01*
X106290000Y-92472943D02*
X108775000Y-89987943D01*
X101800000Y-80350000D02*
X101000000Y-79550000D01*
X103000000Y-81000000D02*
X102350000Y-80350000D01*
X106290000Y-107785000D02*
X106290000Y-92472943D01*
%TD*%
%TA.AperFunction,Conductor*%
%TO.N,GND*%
G36*
X98693039Y-48520185D02*
G01*
X98738794Y-48572989D01*
X98750000Y-48624500D01*
X98750000Y-54800000D01*
X116750000Y-54800000D01*
X116750000Y-51000001D01*
X120080395Y-51000001D01*
X120099934Y-51273188D01*
X120099935Y-51273195D01*
X120157337Y-51537068D01*
X120158152Y-51540815D01*
X120253866Y-51797433D01*
X120253868Y-51797438D01*
X120385122Y-52037811D01*
X120385127Y-52037819D01*
X120549252Y-52257066D01*
X120549268Y-52257084D01*
X120742915Y-52450731D01*
X120742933Y-52450747D01*
X120962180Y-52614872D01*
X120962188Y-52614877D01*
X121202561Y-52746131D01*
X121202560Y-52746131D01*
X121202564Y-52746132D01*
X121202567Y-52746134D01*
X121459185Y-52841848D01*
X121726812Y-52900066D01*
X121980460Y-52918207D01*
X121999999Y-52919605D01*
X122000000Y-52919605D01*
X122000001Y-52919605D01*
X122018235Y-52918300D01*
X122273188Y-52900066D01*
X122540815Y-52841848D01*
X122797433Y-52746134D01*
X123037817Y-52614874D01*
X123257074Y-52450741D01*
X123450741Y-52257074D01*
X123614874Y-52037817D01*
X123746134Y-51797433D01*
X123841848Y-51540815D01*
X123900066Y-51273188D01*
X123919605Y-51000000D01*
X123900066Y-50726812D01*
X123841848Y-50459185D01*
X123746134Y-50202567D01*
X123741773Y-50194581D01*
X123614877Y-49962188D01*
X123614872Y-49962180D01*
X123450747Y-49742933D01*
X123450731Y-49742915D01*
X123257084Y-49549268D01*
X123257066Y-49549252D01*
X123037819Y-49385127D01*
X123037811Y-49385122D01*
X122797438Y-49253868D01*
X122797439Y-49253868D01*
X122747468Y-49235230D01*
X122540815Y-49158152D01*
X122540808Y-49158150D01*
X122540807Y-49158150D01*
X122273195Y-49099935D01*
X122273188Y-49099934D01*
X122000001Y-49080395D01*
X121999999Y-49080395D01*
X121726811Y-49099934D01*
X121726804Y-49099935D01*
X121459192Y-49158150D01*
X121459188Y-49158151D01*
X121459185Y-49158152D01*
X121274489Y-49227040D01*
X121202561Y-49253868D01*
X120962188Y-49385122D01*
X120962180Y-49385127D01*
X120742933Y-49549252D01*
X120742915Y-49549268D01*
X120549268Y-49742915D01*
X120549252Y-49742933D01*
X120385127Y-49962180D01*
X120385122Y-49962188D01*
X120253868Y-50202561D01*
X120251578Y-50208700D01*
X120158152Y-50459185D01*
X120158151Y-50459188D01*
X120158150Y-50459192D01*
X120099935Y-50726804D01*
X120099934Y-50726811D01*
X120080395Y-50999998D01*
X120080395Y-51000001D01*
X116750000Y-51000001D01*
X116750000Y-48624500D01*
X116769685Y-48557461D01*
X116822489Y-48511706D01*
X116874000Y-48500500D01*
X124875500Y-48500500D01*
X124942539Y-48520185D01*
X124988294Y-48572989D01*
X124999500Y-48624500D01*
X124999500Y-117375500D01*
X124979815Y-117442539D01*
X124927011Y-117488294D01*
X124875500Y-117499500D01*
X124345624Y-117499500D01*
X124278585Y-117479815D01*
X124232830Y-117427011D01*
X124222886Y-117357853D01*
X124251911Y-117294297D01*
X124276733Y-117272398D01*
X124353399Y-117221170D01*
X124353403Y-117221167D01*
X124496167Y-117078403D01*
X124496170Y-117078399D01*
X124608340Y-116910526D01*
X124608347Y-116910513D01*
X124685609Y-116723983D01*
X124685612Y-116723974D01*
X124724999Y-116525958D01*
X124725000Y-116525955D01*
X124725000Y-116250000D01*
X123925000Y-116250000D01*
X123925000Y-115555245D01*
X123890746Y-115472548D01*
X123827452Y-115409254D01*
X123744755Y-115375000D01*
X123655245Y-115375000D01*
X123572548Y-115409254D01*
X123509254Y-115472548D01*
X123475000Y-115555245D01*
X123475000Y-116250000D01*
X116775000Y-116250000D01*
X116775000Y-115555245D01*
X116740746Y-115472548D01*
X116677452Y-115409254D01*
X116594755Y-115375000D01*
X116505245Y-115375000D01*
X116422548Y-115409254D01*
X116359254Y-115472548D01*
X116325000Y-115555245D01*
X116325000Y-116250000D01*
X115525000Y-116250000D01*
X115525000Y-116525958D01*
X115564387Y-116723974D01*
X115564390Y-116723983D01*
X115641652Y-116910513D01*
X115641659Y-116910526D01*
X115753829Y-117078399D01*
X115753832Y-117078403D01*
X115896596Y-117221167D01*
X115896600Y-117221170D01*
X115973267Y-117272398D01*
X116018072Y-117326010D01*
X116026779Y-117395335D01*
X115996624Y-117458363D01*
X115937181Y-117495082D01*
X115904376Y-117499500D01*
X91124500Y-117499500D01*
X91057461Y-117479815D01*
X91011706Y-117427011D01*
X91000500Y-117375500D01*
X91000500Y-115999001D01*
X91020185Y-115931962D01*
X91072989Y-115886207D01*
X91142147Y-115876263D01*
X91198810Y-115899734D01*
X91241861Y-115931962D01*
X91257668Y-115943795D01*
X91257671Y-115943797D01*
X91392517Y-115994091D01*
X91392516Y-115994091D01*
X91399444Y-115994835D01*
X91452127Y-116000500D01*
X92797872Y-116000499D01*
X92857483Y-115994091D01*
X92992331Y-115943796D01*
X93107546Y-115857546D01*
X93193796Y-115742331D01*
X93244091Y-115607483D01*
X93250500Y-115547873D01*
X93250499Y-114452128D01*
X93244091Y-114392517D01*
X93242941Y-114389435D01*
X93193797Y-114257671D01*
X93193793Y-114257664D01*
X93107547Y-114142455D01*
X93107544Y-114142452D01*
X92992335Y-114056206D01*
X92992330Y-114056203D01*
X92856166Y-114005417D01*
X92800233Y-113963545D01*
X92775816Y-113898081D01*
X92775500Y-113889235D01*
X92775500Y-111110764D01*
X92795185Y-111043725D01*
X92847989Y-110997970D01*
X92856167Y-110994582D01*
X92992328Y-110943797D01*
X92992327Y-110943797D01*
X92992331Y-110943796D01*
X93107546Y-110857546D01*
X93193796Y-110742331D01*
X93244091Y-110607483D01*
X93250500Y-110547873D01*
X93250499Y-109452128D01*
X93244091Y-109392517D01*
X93242121Y-109387236D01*
X93193797Y-109257671D01*
X93193793Y-109257664D01*
X93107547Y-109142455D01*
X93107544Y-109142452D01*
X92992335Y-109056206D01*
X92992328Y-109056202D01*
X92857482Y-109005908D01*
X92857483Y-109005908D01*
X92797883Y-108999501D01*
X92797881Y-108999500D01*
X92797873Y-108999500D01*
X92797865Y-108999500D01*
X92274500Y-108999500D01*
X92207461Y-108979815D01*
X92161706Y-108927011D01*
X92150500Y-108875500D01*
X92150500Y-94712500D01*
X92625001Y-94712500D01*
X92625001Y-94824986D01*
X92635494Y-94927697D01*
X92690641Y-95094119D01*
X92690643Y-95094124D01*
X92782684Y-95243345D01*
X92906654Y-95367315D01*
X93055875Y-95459356D01*
X93055880Y-95459358D01*
X93222302Y-95514505D01*
X93222309Y-95514506D01*
X93325019Y-95524999D01*
X93749999Y-95524999D01*
X93750000Y-95524998D01*
X93750000Y-94712500D01*
X94250000Y-94712500D01*
X94250000Y-95524999D01*
X94674972Y-95524999D01*
X94674986Y-95524998D01*
X94777697Y-95514505D01*
X94944119Y-95459358D01*
X94944124Y-95459356D01*
X95093345Y-95367315D01*
X95217315Y-95243345D01*
X95309356Y-95094124D01*
X95309358Y-95094119D01*
X95364505Y-94927697D01*
X95364506Y-94927690D01*
X95374999Y-94824986D01*
X95375000Y-94824973D01*
X95375000Y-94712500D01*
X94250000Y-94712500D01*
X93750000Y-94712500D01*
X92625001Y-94712500D01*
X92150500Y-94712500D01*
X92150500Y-94212500D01*
X92625000Y-94212500D01*
X93750000Y-94212500D01*
X93750000Y-93400000D01*
X94250000Y-93400000D01*
X94250000Y-94212500D01*
X95374999Y-94212500D01*
X95374999Y-94100028D01*
X95374998Y-94100013D01*
X95364505Y-93997302D01*
X95309358Y-93830880D01*
X95309356Y-93830875D01*
X95217315Y-93681654D01*
X95093345Y-93557684D01*
X94944124Y-93465643D01*
X94944119Y-93465641D01*
X94777697Y-93410494D01*
X94777690Y-93410493D01*
X94674986Y-93400000D01*
X94250000Y-93400000D01*
X93750000Y-93400000D01*
X93325028Y-93400000D01*
X93325012Y-93400001D01*
X93222302Y-93410494D01*
X93055880Y-93465641D01*
X93055875Y-93465643D01*
X92906654Y-93557684D01*
X92782684Y-93681654D01*
X92690643Y-93830875D01*
X92690641Y-93830880D01*
X92635494Y-93997302D01*
X92635493Y-93997309D01*
X92625000Y-94100013D01*
X92625000Y-94212500D01*
X92150500Y-94212500D01*
X92150500Y-84862068D01*
X92170185Y-84795029D01*
X92222989Y-84749274D01*
X92292147Y-84739330D01*
X92315455Y-84745027D01*
X92430737Y-84785366D01*
X92430743Y-84785367D01*
X92430745Y-84785368D01*
X92430746Y-84785368D01*
X92430750Y-84785369D01*
X92609996Y-84805565D01*
X92610000Y-84805565D01*
X92610004Y-84805565D01*
X92789249Y-84785369D01*
X92789251Y-84785368D01*
X92789255Y-84785368D01*
X92789258Y-84785366D01*
X92789262Y-84785366D01*
X92904543Y-84745027D01*
X92959522Y-84725789D01*
X93049096Y-84669505D01*
X93115068Y-84650500D01*
X93142516Y-84650500D01*
X93209555Y-84670185D01*
X93255310Y-84722989D01*
X93265254Y-84792147D01*
X93236229Y-84855703D01*
X93207615Y-84880036D01*
X93181123Y-84896377D01*
X93171954Y-84902033D01*
X93052032Y-85021955D01*
X93052029Y-85021959D01*
X92963001Y-85166294D01*
X92962996Y-85166305D01*
X92909651Y-85327290D01*
X92899500Y-85426647D01*
X92899500Y-85973337D01*
X92899501Y-85973355D01*
X92909650Y-86072707D01*
X92909651Y-86072710D01*
X92962996Y-86233694D01*
X92963001Y-86233705D01*
X93052029Y-86378040D01*
X93052032Y-86378044D01*
X93171955Y-86497967D01*
X93171959Y-86497970D01*
X93316294Y-86586998D01*
X93316297Y-86586999D01*
X93316303Y-86587003D01*
X93477292Y-86640349D01*
X93576655Y-86650500D01*
X93837769Y-86650499D01*
X93904808Y-86670183D01*
X93925450Y-86686818D01*
X94821581Y-87582949D01*
X94835747Y-87592415D01*
X94835748Y-87592415D01*
X94835749Y-87592416D01*
X94944505Y-87665084D01*
X94944506Y-87665084D01*
X94944507Y-87665085D01*
X95001079Y-87688518D01*
X95001080Y-87688518D01*
X95081088Y-87721659D01*
X95197241Y-87744763D01*
X95216468Y-87748587D01*
X95226081Y-87750500D01*
X95226082Y-87750500D01*
X95226083Y-87750500D01*
X95370755Y-87750500D01*
X95437794Y-87770185D01*
X95483549Y-87822989D01*
X95494439Y-87865654D01*
X95499644Y-87938440D01*
X95523647Y-88020184D01*
X95539282Y-88073431D01*
X95540182Y-88076494D01*
X95617967Y-88197530D01*
X95617971Y-88197534D01*
X95711228Y-88278342D01*
X95726706Y-88291754D01*
X95744848Y-88300039D01*
X95857580Y-88351523D01*
X95857583Y-88351523D01*
X95857584Y-88351524D01*
X96000000Y-88372000D01*
X97975500Y-88372000D01*
X98042539Y-88391685D01*
X98088294Y-88444489D01*
X98099500Y-88496000D01*
X98099500Y-90738770D01*
X98079815Y-90805809D01*
X98027011Y-90851564D01*
X97957853Y-90861508D01*
X97894297Y-90832483D01*
X97887819Y-90826451D01*
X95478417Y-88417049D01*
X95440456Y-88391685D01*
X95403295Y-88366855D01*
X95380351Y-88351524D01*
X95355500Y-88334919D01*
X95355488Y-88334912D01*
X95218917Y-88278343D01*
X95218907Y-88278340D01*
X95073920Y-88249500D01*
X95073918Y-88249500D01*
X94926874Y-88249500D01*
X94859835Y-88229815D01*
X94839193Y-88213181D01*
X94828044Y-88202032D01*
X94828040Y-88202029D01*
X94683705Y-88113001D01*
X94683699Y-88112998D01*
X94683697Y-88112997D01*
X94683694Y-88112996D01*
X94522709Y-88059651D01*
X94423346Y-88049500D01*
X93576662Y-88049500D01*
X93576644Y-88049501D01*
X93477292Y-88059650D01*
X93477289Y-88059651D01*
X93316305Y-88112996D01*
X93316294Y-88113001D01*
X93171959Y-88202029D01*
X93171955Y-88202032D01*
X93052032Y-88321955D01*
X93052029Y-88321959D01*
X92963001Y-88466294D01*
X92962996Y-88466305D01*
X92909651Y-88627290D01*
X92899500Y-88726647D01*
X92899500Y-89273337D01*
X92899501Y-89273355D01*
X92909650Y-89372707D01*
X92909651Y-89372710D01*
X92962996Y-89533694D01*
X92963001Y-89533705D01*
X93052029Y-89678040D01*
X93052032Y-89678044D01*
X93171956Y-89797968D01*
X93290599Y-89871148D01*
X93337321Y-89923094D01*
X93349500Y-89976685D01*
X93349500Y-90360018D01*
X93329815Y-90427057D01*
X93277011Y-90472812D01*
X93238107Y-90483376D01*
X93222200Y-90485001D01*
X93055668Y-90540185D01*
X93055663Y-90540187D01*
X92906342Y-90632289D01*
X92782289Y-90756342D01*
X92690187Y-90905663D01*
X92690185Y-90905668D01*
X92677385Y-90944297D01*
X92635001Y-91072203D01*
X92635001Y-91072204D01*
X92635000Y-91072204D01*
X92624500Y-91174983D01*
X92624500Y-91900001D01*
X92624501Y-91900019D01*
X92635000Y-92002796D01*
X92635001Y-92002799D01*
X92651307Y-92052006D01*
X92690186Y-92169334D01*
X92782288Y-92318656D01*
X92906344Y-92442712D01*
X93055666Y-92534814D01*
X93222203Y-92589999D01*
X93324991Y-92600500D01*
X94675008Y-92600499D01*
X94777797Y-92589999D01*
X94944334Y-92534814D01*
X95093656Y-92442712D01*
X95217712Y-92318656D01*
X95309814Y-92169334D01*
X95364999Y-92002797D01*
X95375500Y-91900009D01*
X95375499Y-91174992D01*
X95373758Y-91157952D01*
X95364999Y-91072203D01*
X95364998Y-91072200D01*
X95362449Y-91064507D01*
X95309814Y-90905666D01*
X95217712Y-90756344D01*
X95093656Y-90632288D01*
X94944334Y-90540186D01*
X94777797Y-90485001D01*
X94773965Y-90484609D01*
X94761894Y-90483376D01*
X94697203Y-90456978D01*
X94657053Y-90399796D01*
X94650500Y-90360018D01*
X94650500Y-90011229D01*
X94670185Y-89944190D01*
X94722989Y-89898435D01*
X94792147Y-89888491D01*
X94855703Y-89917516D01*
X94862167Y-89923534D01*
X95976765Y-91038132D01*
X97133181Y-92194548D01*
X97166666Y-92255871D01*
X97169500Y-92282229D01*
X97169500Y-92375500D01*
X97149815Y-92442539D01*
X97097011Y-92488294D01*
X97045501Y-92499500D01*
X96919630Y-92499500D01*
X96919623Y-92499501D01*
X96860016Y-92505908D01*
X96725171Y-92556202D01*
X96725164Y-92556206D01*
X96609955Y-92642452D01*
X96609952Y-92642455D01*
X96523706Y-92757664D01*
X96523702Y-92757671D01*
X96473408Y-92892517D01*
X96467001Y-92952116D01*
X96467000Y-92952135D01*
X96467000Y-95047870D01*
X96467001Y-95047876D01*
X96473408Y-95107483D01*
X96523702Y-95242328D01*
X96523706Y-95242335D01*
X96609952Y-95357544D01*
X96609955Y-95357547D01*
X96725164Y-95443793D01*
X96725171Y-95443797D01*
X96860017Y-95494091D01*
X96860016Y-95494091D01*
X96866944Y-95494835D01*
X96919627Y-95500500D01*
X98920372Y-95500499D01*
X98979983Y-95494091D01*
X99114831Y-95443796D01*
X99230046Y-95357546D01*
X99316296Y-95242331D01*
X99326690Y-95214460D01*
X99368560Y-95158527D01*
X99434023Y-95134108D01*
X99502297Y-95148958D01*
X99515746Y-95157465D01*
X99698462Y-95290217D01*
X99855406Y-95370184D01*
X99902244Y-95394049D01*
X100119751Y-95464721D01*
X100119752Y-95464721D01*
X100119755Y-95464722D01*
X100345646Y-95500500D01*
X100345647Y-95500500D01*
X100574353Y-95500500D01*
X100574354Y-95500500D01*
X100800245Y-95464722D01*
X100800248Y-95464721D01*
X100800249Y-95464721D01*
X101017755Y-95394049D01*
X101017755Y-95394048D01*
X101017758Y-95394048D01*
X101221538Y-95290217D01*
X101406566Y-95155786D01*
X101568286Y-94994066D01*
X101629683Y-94909559D01*
X101685012Y-94866896D01*
X101754625Y-94860917D01*
X101816420Y-94893523D01*
X101830314Y-94909556D01*
X101891714Y-94994066D01*
X102053434Y-95155786D01*
X102238462Y-95290217D01*
X102395406Y-95370184D01*
X102442244Y-95394049D01*
X102659751Y-95464721D01*
X102659752Y-95464721D01*
X102659755Y-95464722D01*
X102885646Y-95500500D01*
X102885647Y-95500500D01*
X103114353Y-95500500D01*
X103114354Y-95500500D01*
X103340245Y-95464722D01*
X103340248Y-95464721D01*
X103340249Y-95464721D01*
X103557755Y-95394049D01*
X103557755Y-95394048D01*
X103557758Y-95394048D01*
X103761538Y-95290217D01*
X103946566Y-95155786D01*
X104108286Y-94994066D01*
X104242717Y-94809038D01*
X104346548Y-94605258D01*
X104346550Y-94605253D01*
X104357569Y-94571341D01*
X104397006Y-94513665D01*
X104461364Y-94486466D01*
X104530211Y-94498380D01*
X104581687Y-94545624D01*
X104599500Y-94609658D01*
X104599500Y-96600894D01*
X104579815Y-96667933D01*
X104527011Y-96713688D01*
X104457853Y-96723632D01*
X104443407Y-96720669D01*
X104235413Y-96664938D01*
X104235403Y-96664936D01*
X104000001Y-96644341D01*
X103999999Y-96644341D01*
X103764596Y-96664936D01*
X103764586Y-96664938D01*
X103536344Y-96726094D01*
X103536335Y-96726098D01*
X103322171Y-96825964D01*
X103322169Y-96825965D01*
X103128600Y-96961503D01*
X103006673Y-97083430D01*
X102945350Y-97116914D01*
X102875658Y-97111930D01*
X102819725Y-97070058D01*
X102802810Y-97039081D01*
X102753797Y-96907671D01*
X102753793Y-96907664D01*
X102667547Y-96792455D01*
X102667544Y-96792452D01*
X102552335Y-96706206D01*
X102552328Y-96706202D01*
X102417482Y-96655908D01*
X102417483Y-96655908D01*
X102357883Y-96649501D01*
X102357881Y-96649500D01*
X102357873Y-96649500D01*
X102357864Y-96649500D01*
X100562129Y-96649500D01*
X100562123Y-96649501D01*
X100502516Y-96655908D01*
X100367671Y-96706202D01*
X100367664Y-96706206D01*
X100252455Y-96792452D01*
X100252452Y-96792455D01*
X100166206Y-96907664D01*
X100166202Y-96907671D01*
X100115908Y-97042517D01*
X100109501Y-97102116D01*
X100109500Y-97102135D01*
X100109500Y-97125500D01*
X100089815Y-97192539D01*
X100037011Y-97238294D01*
X99985500Y-97249500D01*
X98187701Y-97249500D01*
X98120662Y-97229815D01*
X98086126Y-97196623D01*
X98038494Y-97128597D01*
X97871402Y-96961506D01*
X97871395Y-96961501D01*
X97863350Y-96955868D01*
X97794518Y-96907671D01*
X97677834Y-96825967D01*
X97677830Y-96825965D01*
X97659381Y-96817362D01*
X97463663Y-96726097D01*
X97463659Y-96726096D01*
X97463655Y-96726094D01*
X97235413Y-96664938D01*
X97235403Y-96664936D01*
X97000001Y-96644341D01*
X96999999Y-96644341D01*
X96764596Y-96664936D01*
X96764586Y-96664938D01*
X96536344Y-96726094D01*
X96536335Y-96726098D01*
X96322171Y-96825964D01*
X96322169Y-96825965D01*
X96128600Y-96961503D01*
X96006673Y-97083430D01*
X95945350Y-97116914D01*
X95875658Y-97111930D01*
X95819725Y-97070058D01*
X95802810Y-97039081D01*
X95753797Y-96907671D01*
X95753793Y-96907664D01*
X95667547Y-96792455D01*
X95667544Y-96792452D01*
X95552335Y-96706206D01*
X95552328Y-96706202D01*
X95417482Y-96655908D01*
X95417483Y-96655908D01*
X95357883Y-96649501D01*
X95357881Y-96649500D01*
X95357873Y-96649500D01*
X95357864Y-96649500D01*
X93562129Y-96649500D01*
X93562123Y-96649501D01*
X93502516Y-96655908D01*
X93367671Y-96706202D01*
X93367664Y-96706206D01*
X93252455Y-96792452D01*
X93252452Y-96792455D01*
X93166206Y-96907664D01*
X93166202Y-96907671D01*
X93115908Y-97042517D01*
X93109501Y-97102116D01*
X93109500Y-97102135D01*
X93109500Y-98897870D01*
X93109501Y-98897876D01*
X93115908Y-98957483D01*
X93166202Y-99092328D01*
X93166206Y-99092335D01*
X93252452Y-99207544D01*
X93252455Y-99207547D01*
X93367664Y-99293793D01*
X93367671Y-99293797D01*
X93499081Y-99342810D01*
X93555015Y-99384681D01*
X93579432Y-99450145D01*
X93564580Y-99518418D01*
X93543430Y-99546673D01*
X93421503Y-99668600D01*
X93285965Y-99862169D01*
X93285964Y-99862171D01*
X93186098Y-100076335D01*
X93186094Y-100076344D01*
X93124938Y-100304586D01*
X93124936Y-100304596D01*
X93104341Y-100539999D01*
X93104341Y-100540000D01*
X93124936Y-100775403D01*
X93124938Y-100775413D01*
X93186094Y-101003655D01*
X93186096Y-101003659D01*
X93186097Y-101003663D01*
X93198789Y-101030880D01*
X93285965Y-101217830D01*
X93285967Y-101217834D01*
X93421501Y-101411395D01*
X93421506Y-101411402D01*
X93588597Y-101578493D01*
X93588603Y-101578498D01*
X93774158Y-101708425D01*
X93817783Y-101763002D01*
X93824977Y-101832500D01*
X93793454Y-101894855D01*
X93774158Y-101911575D01*
X93588597Y-102041505D01*
X93421505Y-102208597D01*
X93285965Y-102402169D01*
X93285964Y-102402171D01*
X93186098Y-102616335D01*
X93186094Y-102616344D01*
X93124938Y-102844586D01*
X93124936Y-102844596D01*
X93104341Y-103079999D01*
X93104341Y-103080000D01*
X93124936Y-103315403D01*
X93124938Y-103315413D01*
X93186094Y-103543655D01*
X93186096Y-103543659D01*
X93186097Y-103543663D01*
X93264615Y-103712044D01*
X93285965Y-103757830D01*
X93285967Y-103757834D01*
X93421501Y-103951395D01*
X93421506Y-103951402D01*
X93588597Y-104118493D01*
X93588603Y-104118498D01*
X93774594Y-104248730D01*
X93818219Y-104303307D01*
X93825413Y-104372805D01*
X93793890Y-104435160D01*
X93774595Y-104451880D01*
X93588922Y-104581890D01*
X93588920Y-104581891D01*
X93421891Y-104748920D01*
X93421886Y-104748926D01*
X93286400Y-104942420D01*
X93286399Y-104942422D01*
X93186570Y-105156507D01*
X93186567Y-105156513D01*
X93129364Y-105369999D01*
X93129364Y-105370000D01*
X94026988Y-105370000D01*
X93994075Y-105427007D01*
X93960000Y-105554174D01*
X93960000Y-105685826D01*
X93994075Y-105812993D01*
X94026988Y-105870000D01*
X93129364Y-105870000D01*
X93186567Y-106083486D01*
X93186570Y-106083492D01*
X93286399Y-106297578D01*
X93421894Y-106491082D01*
X93588917Y-106658105D01*
X93782421Y-106793600D01*
X93996507Y-106893429D01*
X93996516Y-106893433D01*
X94210000Y-106950634D01*
X94210000Y-106053012D01*
X94267007Y-106085925D01*
X94394174Y-106120000D01*
X94525826Y-106120000D01*
X94652993Y-106085925D01*
X94710000Y-106053012D01*
X94710000Y-106950633D01*
X94923483Y-106893433D01*
X94923492Y-106893429D01*
X95137578Y-106793600D01*
X95331082Y-106658105D01*
X95498105Y-106491082D01*
X95628425Y-106304968D01*
X95683002Y-106261344D01*
X95752501Y-106254151D01*
X95814855Y-106285673D01*
X95831575Y-106304968D01*
X95961894Y-106491082D01*
X96128917Y-106658105D01*
X96322421Y-106793600D01*
X96536507Y-106893429D01*
X96536516Y-106893433D01*
X96750000Y-106950634D01*
X96750000Y-106053012D01*
X96807007Y-106085925D01*
X96934174Y-106120000D01*
X97065826Y-106120000D01*
X97192993Y-106085925D01*
X97250000Y-106053012D01*
X97250000Y-106950634D01*
X97463483Y-106893433D01*
X97463492Y-106893429D01*
X97677578Y-106793600D01*
X97871082Y-106658105D01*
X98038105Y-106491082D01*
X98173600Y-106297578D01*
X98273429Y-106083492D01*
X98273432Y-106083486D01*
X98330636Y-105870000D01*
X97433012Y-105870000D01*
X97465925Y-105812993D01*
X97500000Y-105685826D01*
X97500000Y-105554174D01*
X97465925Y-105427007D01*
X97433012Y-105370000D01*
X98330636Y-105370000D01*
X98330635Y-105369999D01*
X98273432Y-105156513D01*
X98273429Y-105156507D01*
X98173600Y-104942422D01*
X98173599Y-104942420D01*
X98038113Y-104748926D01*
X98038108Y-104748920D01*
X97871078Y-104581890D01*
X97685405Y-104451879D01*
X97641780Y-104397302D01*
X97634588Y-104327804D01*
X97666110Y-104265449D01*
X97685406Y-104248730D01*
X97723289Y-104222204D01*
X97871401Y-104118495D01*
X98038495Y-103951401D01*
X98086127Y-103883376D01*
X98140704Y-103839751D01*
X98187701Y-103830500D01*
X100272299Y-103830500D01*
X100339338Y-103850185D01*
X100373873Y-103883376D01*
X100421505Y-103951401D01*
X100588597Y-104118493D01*
X100588603Y-104118498D01*
X100774594Y-104248730D01*
X100818219Y-104303307D01*
X100825413Y-104372805D01*
X100793890Y-104435160D01*
X100774595Y-104451880D01*
X100588922Y-104581890D01*
X100588920Y-104581891D01*
X100421891Y-104748920D01*
X100421886Y-104748926D01*
X100286400Y-104942420D01*
X100286399Y-104942422D01*
X100186570Y-105156507D01*
X100186567Y-105156513D01*
X100129364Y-105369999D01*
X100129364Y-105370000D01*
X101026988Y-105370000D01*
X100994075Y-105427007D01*
X100960000Y-105554174D01*
X100960000Y-105685826D01*
X100994075Y-105812993D01*
X101026988Y-105870000D01*
X100129364Y-105870000D01*
X100186567Y-106083486D01*
X100186570Y-106083492D01*
X100286399Y-106297578D01*
X100421894Y-106491082D01*
X100588917Y-106658105D01*
X100782421Y-106793600D01*
X100996507Y-106893429D01*
X100996516Y-106893433D01*
X101210000Y-106950634D01*
X101210000Y-106053012D01*
X101267007Y-106085925D01*
X101394174Y-106120000D01*
X101525826Y-106120000D01*
X101652993Y-106085925D01*
X101710000Y-106053012D01*
X101710000Y-106950633D01*
X101923483Y-106893433D01*
X101923492Y-106893429D01*
X102137578Y-106793600D01*
X102331082Y-106658105D01*
X102498105Y-106491082D01*
X102628425Y-106304968D01*
X102683002Y-106261344D01*
X102752501Y-106254151D01*
X102814855Y-106285673D01*
X102831575Y-106304968D01*
X102961894Y-106491082D01*
X103128917Y-106658105D01*
X103322421Y-106793600D01*
X103536507Y-106893429D01*
X103536516Y-106893433D01*
X103750000Y-106950634D01*
X103750000Y-106053012D01*
X103807007Y-106085925D01*
X103934174Y-106120000D01*
X104065826Y-106120000D01*
X104192993Y-106085925D01*
X104250000Y-106053012D01*
X104250000Y-106951240D01*
X104290197Y-107006291D01*
X104294352Y-107076037D01*
X104261189Y-107135920D01*
X102083930Y-109313181D01*
X102022607Y-109346666D01*
X101996249Y-109349500D01*
X101064141Y-109349500D01*
X100997102Y-109329815D01*
X100951347Y-109277011D01*
X100947969Y-109268859D01*
X100943796Y-109257669D01*
X100943793Y-109257665D01*
X100943793Y-109257664D01*
X100857547Y-109142455D01*
X100857544Y-109142452D01*
X100742335Y-109056206D01*
X100742328Y-109056202D01*
X100607482Y-109005908D01*
X100607483Y-109005908D01*
X100547883Y-108999501D01*
X100547881Y-108999500D01*
X100547873Y-108999500D01*
X100547864Y-108999500D01*
X99202129Y-108999500D01*
X99202123Y-108999501D01*
X99142516Y-109005908D01*
X99007671Y-109056202D01*
X99007664Y-109056206D01*
X98892455Y-109142452D01*
X98892452Y-109142455D01*
X98806206Y-109257664D01*
X98806202Y-109257671D01*
X98755908Y-109392517D01*
X98749501Y-109452116D01*
X98749501Y-109452123D01*
X98749500Y-109452135D01*
X98749500Y-110547870D01*
X98749501Y-110547876D01*
X98755908Y-110607483D01*
X98806202Y-110742328D01*
X98806206Y-110742335D01*
X98892452Y-110857544D01*
X98892455Y-110857547D01*
X99007664Y-110943793D01*
X99007671Y-110943797D01*
X99142517Y-110994091D01*
X99142516Y-110994091D01*
X99149444Y-110994835D01*
X99202127Y-111000500D01*
X100547872Y-111000499D01*
X100607483Y-110994091D01*
X100742331Y-110943796D01*
X100857546Y-110857546D01*
X100943796Y-110742331D01*
X100947960Y-110731165D01*
X100989829Y-110675234D01*
X101055293Y-110650816D01*
X101064141Y-110650500D01*
X102205191Y-110650500D01*
X102272230Y-110670185D01*
X102317985Y-110722989D01*
X102327929Y-110792147D01*
X102298904Y-110855703D01*
X102292872Y-110862181D01*
X99369727Y-113785325D01*
X99369724Y-113785328D01*
X99331068Y-113843183D01*
X99298538Y-113891866D01*
X99298536Y-113891871D01*
X99298535Y-113891873D01*
X99294017Y-113902779D01*
X99284523Y-113925699D01*
X99240680Y-113980101D01*
X99183218Y-114001532D01*
X99142520Y-114005907D01*
X99007671Y-114056202D01*
X99007664Y-114056206D01*
X98892455Y-114142452D01*
X98892452Y-114142455D01*
X98806206Y-114257664D01*
X98806202Y-114257671D01*
X98755908Y-114392517D01*
X98749501Y-114452116D01*
X98749501Y-114452123D01*
X98749500Y-114452135D01*
X98749500Y-115547870D01*
X98749501Y-115547876D01*
X98755908Y-115607483D01*
X98806202Y-115742328D01*
X98806206Y-115742335D01*
X98892452Y-115857544D01*
X98892455Y-115857547D01*
X99007664Y-115943793D01*
X99007671Y-115943797D01*
X99142517Y-115994091D01*
X99142516Y-115994091D01*
X99149444Y-115994835D01*
X99202127Y-116000500D01*
X100547872Y-116000499D01*
X100607483Y-115994091D01*
X100742331Y-115943796D01*
X100857546Y-115857546D01*
X100938055Y-115750000D01*
X115525000Y-115750000D01*
X116300000Y-115750000D01*
X116300000Y-114579646D01*
X116299999Y-114579645D01*
X116251022Y-114589388D01*
X116251015Y-114589390D01*
X116064486Y-114666652D01*
X116064473Y-114666659D01*
X115896600Y-114778829D01*
X115896596Y-114778832D01*
X115753832Y-114921596D01*
X115753829Y-114921600D01*
X115641659Y-115089473D01*
X115641652Y-115089486D01*
X115564390Y-115276016D01*
X115564387Y-115276025D01*
X115525000Y-115474041D01*
X115525000Y-115750000D01*
X100938055Y-115750000D01*
X100943796Y-115742331D01*
X100994091Y-115607483D01*
X101000500Y-115547873D01*
X101000499Y-114452128D01*
X100994091Y-114392517D01*
X100992941Y-114389435D01*
X100943797Y-114257671D01*
X100943795Y-114257668D01*
X100938055Y-114250000D01*
X103475001Y-114250000D01*
X103475001Y-114674986D01*
X103485494Y-114777697D01*
X103540641Y-114944119D01*
X103540643Y-114944124D01*
X103632684Y-115093345D01*
X103756654Y-115217315D01*
X103905875Y-115309356D01*
X103905880Y-115309358D01*
X104072302Y-115364505D01*
X104072309Y-115364506D01*
X104175019Y-115374999D01*
X104287499Y-115374999D01*
X104287500Y-115374998D01*
X104287500Y-114250000D01*
X104787500Y-114250000D01*
X104787500Y-115374999D01*
X104899972Y-115374999D01*
X104899986Y-115374998D01*
X105002697Y-115364505D01*
X105169119Y-115309358D01*
X105169124Y-115309356D01*
X105318345Y-115217315D01*
X105442315Y-115093345D01*
X105534356Y-114944124D01*
X105534358Y-114944119D01*
X105589505Y-114777697D01*
X105589506Y-114777690D01*
X105599997Y-114675001D01*
X106399500Y-114675001D01*
X106399501Y-114675018D01*
X106410000Y-114777796D01*
X106410001Y-114777799D01*
X106443927Y-114880178D01*
X106465186Y-114944334D01*
X106557288Y-115093656D01*
X106681344Y-115217712D01*
X106830666Y-115309814D01*
X106997203Y-115364999D01*
X107099991Y-115375500D01*
X107825008Y-115375499D01*
X107825016Y-115375498D01*
X107825019Y-115375498D01*
X107881302Y-115369748D01*
X107927797Y-115364999D01*
X108094334Y-115309814D01*
X108243656Y-115217712D01*
X108367712Y-115093656D01*
X108459814Y-114944334D01*
X108514999Y-114777797D01*
X108525500Y-114675009D01*
X108525499Y-114657943D01*
X108545180Y-114590906D01*
X108561819Y-114570258D01*
X108581578Y-114550500D01*
X108629816Y-114502262D01*
X108725789Y-114349522D01*
X108785368Y-114179255D01*
X108787821Y-114157483D01*
X108805565Y-114000003D01*
X108805565Y-113999996D01*
X108785369Y-113820750D01*
X108785368Y-113820745D01*
X108760613Y-113750000D01*
X108725789Y-113650478D01*
X108629816Y-113497738D01*
X108561818Y-113429740D01*
X108528333Y-113368417D01*
X108525499Y-113342059D01*
X108525499Y-113324998D01*
X108525498Y-113324981D01*
X108514999Y-113222203D01*
X108514998Y-113222200D01*
X108459814Y-113055666D01*
X108367712Y-112906344D01*
X108243656Y-112782288D01*
X108121025Y-112706649D01*
X108094336Y-112690187D01*
X108094331Y-112690185D01*
X108087161Y-112687809D01*
X107927797Y-112635001D01*
X107927795Y-112635000D01*
X107825010Y-112624500D01*
X107099998Y-112624500D01*
X107099980Y-112624501D01*
X106997203Y-112635000D01*
X106997200Y-112635001D01*
X106830668Y-112690185D01*
X106830663Y-112690187D01*
X106681342Y-112782289D01*
X106557289Y-112906342D01*
X106465187Y-113055663D01*
X106465185Y-113055668D01*
X106465115Y-113055880D01*
X106410001Y-113222203D01*
X106410001Y-113222204D01*
X106410000Y-113222204D01*
X106399500Y-113324983D01*
X106399500Y-114675001D01*
X105599997Y-114675001D01*
X105599999Y-114674986D01*
X105600000Y-114674973D01*
X105600000Y-114250000D01*
X104787500Y-114250000D01*
X104287500Y-114250000D01*
X103475001Y-114250000D01*
X100938055Y-114250000D01*
X100927131Y-114235408D01*
X100919772Y-114225577D01*
X100895355Y-114160115D01*
X100910206Y-114091842D01*
X100931354Y-114063590D01*
X101244944Y-113750000D01*
X103475000Y-113750000D01*
X104287500Y-113750000D01*
X104287500Y-112625000D01*
X104787500Y-112625000D01*
X104787500Y-113750000D01*
X105599999Y-113750000D01*
X105599999Y-113325028D01*
X105599998Y-113325013D01*
X105589505Y-113222302D01*
X105534358Y-113055880D01*
X105534356Y-113055875D01*
X105442315Y-112906654D01*
X105318345Y-112782684D01*
X105169124Y-112690643D01*
X105169119Y-112690641D01*
X105002697Y-112635494D01*
X105002690Y-112635493D01*
X104899986Y-112625000D01*
X104787500Y-112625000D01*
X104287500Y-112625000D01*
X104175027Y-112625000D01*
X104175012Y-112625001D01*
X104072302Y-112635494D01*
X103905880Y-112690641D01*
X103905875Y-112690643D01*
X103756654Y-112782684D01*
X103632684Y-112906654D01*
X103540643Y-113055875D01*
X103540641Y-113055880D01*
X103485494Y-113222302D01*
X103485493Y-113222309D01*
X103475000Y-113325013D01*
X103475000Y-113750000D01*
X101244944Y-113750000D01*
X104744945Y-110250000D01*
X108390000Y-110250000D01*
X108390000Y-110985434D01*
X108400459Y-111072530D01*
X108400459Y-111072531D01*
X108455119Y-111211139D01*
X108545144Y-111329855D01*
X108663860Y-111419880D01*
X108802468Y-111474540D01*
X108889566Y-111485000D01*
X108940000Y-111485000D01*
X108940000Y-110250000D01*
X108390000Y-110250000D01*
X104744945Y-110250000D01*
X106795277Y-108199669D01*
X106866465Y-108093127D01*
X106915501Y-107974744D01*
X106920522Y-107949501D01*
X106940500Y-107849069D01*
X106940500Y-104442651D01*
X106960185Y-104375612D01*
X107012989Y-104329857D01*
X107082147Y-104319913D01*
X107145703Y-104348938D01*
X107152181Y-104354970D01*
X108353181Y-105555970D01*
X108386666Y-105617293D01*
X108389500Y-105643651D01*
X108389500Y-106035468D01*
X108399969Y-106122649D01*
X108399971Y-106122657D01*
X108454677Y-106261380D01*
X108454680Y-106261386D01*
X108476973Y-106290784D01*
X108544788Y-106380212D01*
X108663616Y-106470321D01*
X108802348Y-106525030D01*
X108834287Y-106528865D01*
X108898498Y-106556401D01*
X108937631Y-106614284D01*
X108943500Y-106651980D01*
X108943500Y-108398523D01*
X108923815Y-108465562D01*
X108871011Y-108511317D01*
X108834288Y-108521638D01*
X108802468Y-108525459D01*
X108663860Y-108580119D01*
X108545144Y-108670144D01*
X108455119Y-108788860D01*
X108400459Y-108927468D01*
X108400459Y-108927469D01*
X108390000Y-109014565D01*
X108390000Y-109750000D01*
X109316000Y-109750000D01*
X109383039Y-109769685D01*
X109428794Y-109822489D01*
X109440000Y-109874000D01*
X109440000Y-111485000D01*
X109490434Y-111485000D01*
X109577530Y-111474540D01*
X109577531Y-111474540D01*
X109716139Y-111419880D01*
X109749661Y-111394460D01*
X109814972Y-111369636D01*
X109883336Y-111384064D01*
X109899508Y-111394456D01*
X109933616Y-111420321D01*
X109933619Y-111420322D01*
X110072342Y-111475028D01*
X110072344Y-111475028D01*
X110072348Y-111475030D01*
X110130470Y-111482010D01*
X110159531Y-111485500D01*
X110159532Y-111485500D01*
X110760469Y-111485500D01*
X110782264Y-111482882D01*
X110847652Y-111475030D01*
X110986384Y-111420321D01*
X111020489Y-111394458D01*
X111085796Y-111369636D01*
X111154160Y-111384063D01*
X111170337Y-111394459D01*
X111203860Y-111419880D01*
X111342468Y-111474540D01*
X111429566Y-111485000D01*
X111480000Y-111485000D01*
X111480000Y-109874000D01*
X111499685Y-109806961D01*
X111552489Y-109761206D01*
X111604000Y-109750000D01*
X111856000Y-109750000D01*
X111923039Y-109769685D01*
X111968794Y-109822489D01*
X111980000Y-109874000D01*
X111980000Y-111485000D01*
X112030434Y-111485000D01*
X112117530Y-111474540D01*
X112117531Y-111474540D01*
X112256139Y-111419880D01*
X112289661Y-111394460D01*
X112354972Y-111369636D01*
X112423336Y-111384064D01*
X112439508Y-111394456D01*
X112473616Y-111420321D01*
X112610991Y-111474495D01*
X112666134Y-111517399D01*
X112689327Y-111583307D01*
X112689500Y-111589848D01*
X112689500Y-112889241D01*
X112669815Y-112956280D01*
X112653181Y-112976923D01*
X112546284Y-113083819D01*
X112484961Y-113117303D01*
X112415269Y-113112319D01*
X112359336Y-113070447D01*
X112342421Y-113039470D01*
X112293354Y-112907913D01*
X112293350Y-112907906D01*
X112207190Y-112792812D01*
X112207187Y-112792809D01*
X112092093Y-112706649D01*
X112092086Y-112706645D01*
X111957379Y-112656403D01*
X111957372Y-112656401D01*
X111897844Y-112650000D01*
X111250000Y-112650000D01*
X111250000Y-113566988D01*
X111192993Y-113534075D01*
X111065826Y-113500000D01*
X110934174Y-113500000D01*
X110807007Y-113534075D01*
X110750000Y-113566988D01*
X110750000Y-112650000D01*
X110102155Y-112650000D01*
X110042627Y-112656401D01*
X110042620Y-112656403D01*
X109907913Y-112706645D01*
X109907906Y-112706649D01*
X109792812Y-112792809D01*
X109792809Y-112792812D01*
X109706649Y-112907906D01*
X109706645Y-112907913D01*
X109656403Y-113042620D01*
X109656401Y-113042627D01*
X109650000Y-113102155D01*
X109650000Y-113750000D01*
X110566988Y-113750000D01*
X110534075Y-113807007D01*
X110500000Y-113934174D01*
X110500000Y-114065826D01*
X110534075Y-114192993D01*
X110566988Y-114250000D01*
X109650000Y-114250000D01*
X109650000Y-114897844D01*
X109656401Y-114957372D01*
X109656403Y-114957379D01*
X109706645Y-115092086D01*
X109706649Y-115092093D01*
X109792809Y-115207187D01*
X109792812Y-115207190D01*
X109907906Y-115293350D01*
X109907913Y-115293354D01*
X110042620Y-115343596D01*
X110042627Y-115343598D01*
X110102155Y-115349999D01*
X110102172Y-115350000D01*
X110750000Y-115350000D01*
X110750000Y-114433012D01*
X110807007Y-114465925D01*
X110934174Y-114500000D01*
X111065826Y-114500000D01*
X111192993Y-114465925D01*
X111250000Y-114433012D01*
X111250000Y-115350000D01*
X111897828Y-115350000D01*
X111897844Y-115349999D01*
X111957372Y-115343598D01*
X111957379Y-115343596D01*
X112092086Y-115293354D01*
X112092093Y-115293350D01*
X112207187Y-115207190D01*
X112207190Y-115207187D01*
X112293350Y-115092093D01*
X112293354Y-115092086D01*
X112342422Y-114960529D01*
X112384293Y-114904595D01*
X112449757Y-114880178D01*
X112518030Y-114895030D01*
X112546285Y-114916181D01*
X112668599Y-115038495D01*
X112765384Y-115106265D01*
X112862165Y-115174032D01*
X112862167Y-115174033D01*
X112862170Y-115174035D01*
X113076337Y-115273903D01*
X113076343Y-115273904D01*
X113076344Y-115273905D01*
X113131285Y-115288626D01*
X113304592Y-115335063D01*
X113475319Y-115350000D01*
X113539999Y-115355659D01*
X113540000Y-115355659D01*
X113540001Y-115355659D01*
X113604681Y-115350000D01*
X113775408Y-115335063D01*
X114003663Y-115273903D01*
X114217830Y-115174035D01*
X114411401Y-115038495D01*
X114578495Y-114871401D01*
X114714035Y-114677830D01*
X114813903Y-114463663D01*
X114875063Y-114235408D01*
X114895659Y-114000000D01*
X114875063Y-113764592D01*
X114813903Y-113536337D01*
X114714035Y-113322171D01*
X114644112Y-113222309D01*
X114578494Y-113128597D01*
X114426819Y-112976922D01*
X114393334Y-112915599D01*
X114390500Y-112889241D01*
X114390500Y-109916232D01*
X114386185Y-109894541D01*
X114392411Y-109824950D01*
X114420123Y-109782665D01*
X114465973Y-109736817D01*
X114527297Y-109703333D01*
X114553652Y-109700500D01*
X114633481Y-109700500D01*
X114700520Y-109720185D01*
X114721162Y-109736819D01*
X117317662Y-112333319D01*
X117351147Y-112394642D01*
X117346163Y-112464334D01*
X117304291Y-112520267D01*
X117238827Y-112544684D01*
X117229981Y-112545000D01*
X117182155Y-112545000D01*
X117122627Y-112551401D01*
X117122620Y-112551403D01*
X116987913Y-112601645D01*
X116987906Y-112601649D01*
X116872812Y-112687809D01*
X116872809Y-112687812D01*
X116786649Y-112802906D01*
X116786645Y-112802913D01*
X116736403Y-112937620D01*
X116736401Y-112937627D01*
X116730000Y-112997155D01*
X116730000Y-113520000D01*
X117931000Y-113520000D01*
X117998039Y-113539685D01*
X118043794Y-113592489D01*
X118055000Y-113644000D01*
X118055000Y-113896000D01*
X118035315Y-113963039D01*
X117982511Y-114008794D01*
X117931000Y-114020000D01*
X116730000Y-114020000D01*
X116730000Y-114507000D01*
X116763681Y-114540681D01*
X116797166Y-114602004D01*
X116800000Y-114628362D01*
X116800000Y-115750000D01*
X121000000Y-115750000D01*
X121000000Y-114660950D01*
X121019685Y-114593911D01*
X121072489Y-114548156D01*
X121080667Y-114544768D01*
X121082481Y-114544091D01*
X121082483Y-114544091D01*
X121160968Y-114514817D01*
X121204301Y-114507000D01*
X121225000Y-114507000D01*
X121242926Y-114489073D01*
X121244685Y-114483084D01*
X121274686Y-114450859D01*
X121332546Y-114407546D01*
X121401733Y-114315123D01*
X121457667Y-114273253D01*
X121527359Y-114268269D01*
X121588682Y-114301754D01*
X121622166Y-114363078D01*
X121625000Y-114389435D01*
X121625000Y-114469000D01*
X121605315Y-114536039D01*
X121552511Y-114581794D01*
X121501000Y-114593000D01*
X121500000Y-114593000D01*
X121500000Y-115750000D01*
X123450000Y-115750000D01*
X123450000Y-114628362D01*
X123464305Y-114579645D01*
X123950000Y-114579645D01*
X123950000Y-115750000D01*
X124725000Y-115750000D01*
X124725000Y-115474045D01*
X124724999Y-115474041D01*
X124685612Y-115276025D01*
X124685609Y-115276016D01*
X124608347Y-115089486D01*
X124608340Y-115089473D01*
X124496170Y-114921600D01*
X124496167Y-114921596D01*
X124353403Y-114778832D01*
X124353399Y-114778829D01*
X124185526Y-114666659D01*
X124185513Y-114666652D01*
X123998984Y-114589390D01*
X123998977Y-114589388D01*
X123950000Y-114579645D01*
X123464305Y-114579645D01*
X123469685Y-114561323D01*
X123486319Y-114540681D01*
X123520000Y-114507000D01*
X123520000Y-114020000D01*
X122319000Y-114020000D01*
X122251961Y-114000315D01*
X122206206Y-113947511D01*
X122195000Y-113896000D01*
X122195000Y-112545000D01*
X122695000Y-112545000D01*
X122695000Y-113520000D01*
X123520000Y-113520000D01*
X123520000Y-112997172D01*
X123519999Y-112997155D01*
X123513598Y-112937627D01*
X123513596Y-112937620D01*
X123463354Y-112802913D01*
X123463350Y-112802906D01*
X123377190Y-112687812D01*
X123377187Y-112687809D01*
X123262093Y-112601649D01*
X123262086Y-112601645D01*
X123127379Y-112551403D01*
X123127372Y-112551401D01*
X123067844Y-112545000D01*
X122695000Y-112545000D01*
X122195000Y-112545000D01*
X122190601Y-112540601D01*
X122138541Y-112525315D01*
X122092786Y-112472511D01*
X122089398Y-112464334D01*
X122068353Y-112407911D01*
X122068350Y-112407906D01*
X121982190Y-112292812D01*
X121982187Y-112292809D01*
X121867093Y-112206649D01*
X121867086Y-112206645D01*
X121732379Y-112156403D01*
X121732372Y-112156401D01*
X121672844Y-112150000D01*
X121625000Y-112150000D01*
X121625000Y-112310565D01*
X121605315Y-112377604D01*
X121552511Y-112423359D01*
X121483353Y-112433303D01*
X121419797Y-112404278D01*
X121401734Y-112384876D01*
X121332547Y-112292455D01*
X121274688Y-112249141D01*
X121232818Y-112193207D01*
X121225027Y-112150027D01*
X121225000Y-112150000D01*
X121177166Y-112150000D01*
X121115595Y-112156619D01*
X121089088Y-112156619D01*
X121079094Y-112155544D01*
X121052640Y-112152700D01*
X120988091Y-112125963D01*
X120948242Y-112068571D01*
X120945747Y-111998746D01*
X120978212Y-111941733D01*
X121098225Y-111821719D01*
X121159544Y-111788237D01*
X121172019Y-111786183D01*
X121179255Y-111785368D01*
X121349522Y-111725789D01*
X121502262Y-111629816D01*
X121629816Y-111502262D01*
X121725789Y-111349522D01*
X121785368Y-111179255D01*
X121797393Y-111072530D01*
X121805565Y-111000003D01*
X121805565Y-110999996D01*
X121785369Y-110820750D01*
X121785368Y-110820745D01*
X121725907Y-110650816D01*
X121725789Y-110650478D01*
X121699985Y-110609412D01*
X121629815Y-110497737D01*
X121502262Y-110370184D01*
X121349523Y-110274211D01*
X121179254Y-110214631D01*
X121179249Y-110214630D01*
X121000004Y-110194435D01*
X120999996Y-110194435D01*
X120820750Y-110214630D01*
X120820737Y-110214633D01*
X120650479Y-110274209D01*
X120565971Y-110327309D01*
X120498734Y-110346309D01*
X120434029Y-110327309D01*
X120349520Y-110274209D01*
X120179262Y-110214633D01*
X120179249Y-110214630D01*
X120000004Y-110194435D01*
X119999996Y-110194435D01*
X119820750Y-110214630D01*
X119820742Y-110214632D01*
X119690454Y-110260222D01*
X119620675Y-110263783D01*
X119560048Y-110229054D01*
X119527821Y-110167061D01*
X119525500Y-110143180D01*
X119525500Y-109856819D01*
X119545185Y-109789780D01*
X119597989Y-109744025D01*
X119667147Y-109734081D01*
X119690455Y-109739778D01*
X119820737Y-109785366D01*
X119820743Y-109785367D01*
X119820745Y-109785368D01*
X119820746Y-109785368D01*
X119820750Y-109785369D01*
X119999996Y-109805565D01*
X120000000Y-109805565D01*
X120000004Y-109805565D01*
X120179249Y-109785369D01*
X120179252Y-109785368D01*
X120179255Y-109785368D01*
X120349522Y-109725789D01*
X120502262Y-109629816D01*
X120629816Y-109502262D01*
X120673005Y-109433527D01*
X120725340Y-109387236D01*
X120777999Y-109375499D01*
X120825002Y-109375499D01*
X120825008Y-109375499D01*
X120927797Y-109364999D01*
X121094334Y-109309814D01*
X121243656Y-109217712D01*
X121367712Y-109093656D01*
X121459814Y-108944334D01*
X121514999Y-108777797D01*
X121525500Y-108675009D01*
X121525499Y-107324992D01*
X121514999Y-107222203D01*
X121459814Y-107055666D01*
X121367712Y-106906344D01*
X121243656Y-106782288D01*
X121094334Y-106690186D01*
X120927797Y-106635001D01*
X120927795Y-106635000D01*
X120825010Y-106624500D01*
X119974998Y-106624500D01*
X119974980Y-106624501D01*
X119872203Y-106635000D01*
X119872200Y-106635001D01*
X119705668Y-106690185D01*
X119705663Y-106690187D01*
X119556342Y-106782289D01*
X119432289Y-106906342D01*
X119340187Y-107055663D01*
X119340185Y-107055668D01*
X119313592Y-107135920D01*
X119285001Y-107222203D01*
X119285001Y-107222204D01*
X119285000Y-107222204D01*
X119274500Y-107324983D01*
X119274500Y-108384481D01*
X119254815Y-108451520D01*
X119202011Y-108497275D01*
X119132853Y-108507219D01*
X119069297Y-108478194D01*
X119062819Y-108472162D01*
X118761818Y-108171161D01*
X118728333Y-108109838D01*
X118725499Y-108083480D01*
X118725499Y-107324998D01*
X118725498Y-107324981D01*
X118714999Y-107222203D01*
X118714998Y-107222200D01*
X118659814Y-107055666D01*
X118567712Y-106906344D01*
X118443656Y-106782288D01*
X118443653Y-106782285D01*
X118409401Y-106761158D01*
X118362678Y-106709210D01*
X118350500Y-106655621D01*
X118350500Y-106344377D01*
X118370185Y-106277338D01*
X118409406Y-106238837D01*
X118443654Y-106217713D01*
X118443653Y-106217713D01*
X118443656Y-106217712D01*
X118567712Y-106093656D01*
X118659814Y-105944334D01*
X118714999Y-105777797D01*
X118725500Y-105675009D01*
X118725499Y-104987228D01*
X118745183Y-104920190D01*
X118761813Y-104899553D01*
X119062821Y-104598545D01*
X119124142Y-104565062D01*
X119193834Y-104570046D01*
X119249767Y-104611918D01*
X119274184Y-104677382D01*
X119274500Y-104686228D01*
X119274500Y-105675001D01*
X119274501Y-105675018D01*
X119285000Y-105777796D01*
X119285001Y-105777799D01*
X119315554Y-105870000D01*
X119340186Y-105944334D01*
X119432288Y-106093656D01*
X119556344Y-106217712D01*
X119705666Y-106309814D01*
X119872203Y-106364999D01*
X119974991Y-106375500D01*
X120825008Y-106375499D01*
X120825016Y-106375498D01*
X120825019Y-106375498D01*
X120881302Y-106369748D01*
X120927797Y-106364999D01*
X121094334Y-106309814D01*
X121243656Y-106217712D01*
X121367712Y-106093656D01*
X121459814Y-105944334D01*
X121514999Y-105777797D01*
X121525500Y-105675009D01*
X121525499Y-104324992D01*
X121514999Y-104222203D01*
X121459814Y-104055666D01*
X121367712Y-103906344D01*
X121243656Y-103782288D01*
X121094334Y-103690186D01*
X120927797Y-103635001D01*
X120927795Y-103635000D01*
X120825016Y-103624500D01*
X120825009Y-103624500D01*
X120777998Y-103624500D01*
X120710959Y-103604815D01*
X120673005Y-103566473D01*
X120629816Y-103497738D01*
X120502262Y-103370184D01*
X120349523Y-103274211D01*
X120179254Y-103214631D01*
X120179250Y-103214630D01*
X120120412Y-103208001D01*
X120055998Y-103180934D01*
X120016443Y-103123339D01*
X120014306Y-103053502D01*
X120028758Y-103019684D01*
X120059809Y-102969342D01*
X120059808Y-102969342D01*
X120059814Y-102969334D01*
X120114999Y-102802797D01*
X120125500Y-102700009D01*
X120125500Y-102250000D01*
X120925001Y-102250000D01*
X120925001Y-102699986D01*
X120935494Y-102802697D01*
X120990641Y-102969119D01*
X120990643Y-102969124D01*
X121082684Y-103118345D01*
X121206654Y-103242315D01*
X121355875Y-103334356D01*
X121355880Y-103334358D01*
X121522302Y-103389505D01*
X121522309Y-103389506D01*
X121625019Y-103399999D01*
X121749999Y-103399999D01*
X121750000Y-103399998D01*
X121750000Y-102250000D01*
X122250000Y-102250000D01*
X122250000Y-103399999D01*
X122374972Y-103399999D01*
X122374986Y-103399998D01*
X122477697Y-103389505D01*
X122644119Y-103334358D01*
X122644124Y-103334356D01*
X122793345Y-103242315D01*
X122917315Y-103118345D01*
X123009356Y-102969124D01*
X123009358Y-102969119D01*
X123064505Y-102802697D01*
X123064506Y-102802690D01*
X123074999Y-102699986D01*
X123075000Y-102699973D01*
X123075000Y-102250000D01*
X122250000Y-102250000D01*
X121750000Y-102250000D01*
X120925001Y-102250000D01*
X120125500Y-102250000D01*
X120125499Y-101750000D01*
X120925000Y-101750000D01*
X121750000Y-101750000D01*
X121750000Y-100600000D01*
X122250000Y-100600000D01*
X122250000Y-101750000D01*
X123074999Y-101750000D01*
X123074999Y-101300028D01*
X123074998Y-101300013D01*
X123064505Y-101197302D01*
X123009358Y-101030880D01*
X123009356Y-101030875D01*
X122917315Y-100881654D01*
X122793345Y-100757684D01*
X122644124Y-100665643D01*
X122644119Y-100665641D01*
X122477697Y-100610494D01*
X122477690Y-100610493D01*
X122374986Y-100600000D01*
X122250000Y-100600000D01*
X121750000Y-100600000D01*
X121625027Y-100600000D01*
X121625012Y-100600001D01*
X121522302Y-100610494D01*
X121355880Y-100665641D01*
X121355875Y-100665643D01*
X121206654Y-100757684D01*
X121082684Y-100881654D01*
X120990643Y-101030875D01*
X120990641Y-101030880D01*
X120935494Y-101197302D01*
X120935493Y-101197309D01*
X120925000Y-101300013D01*
X120925000Y-101750000D01*
X120125499Y-101750000D01*
X120125499Y-101299992D01*
X120125474Y-101299751D01*
X120114999Y-101197203D01*
X120114998Y-101197200D01*
X120059814Y-101030666D01*
X120001122Y-100935511D01*
X119982683Y-100868120D01*
X120003606Y-100801457D01*
X120057248Y-100756687D01*
X120082470Y-100748799D01*
X120139727Y-100737409D01*
X120218913Y-100721658D01*
X120342166Y-100670605D01*
X120355488Y-100665087D01*
X120355488Y-100665086D01*
X120355495Y-100665084D01*
X120478416Y-100582951D01*
X120582951Y-100478416D01*
X120665084Y-100355495D01*
X120721658Y-100218913D01*
X120736423Y-100144685D01*
X120750500Y-100073920D01*
X120750500Y-99761006D01*
X120770185Y-99693967D01*
X120822989Y-99648212D01*
X120831156Y-99644828D01*
X120847331Y-99638796D01*
X120962546Y-99552546D01*
X121048796Y-99437331D01*
X121099091Y-99302483D01*
X121105500Y-99242873D01*
X121105499Y-98557128D01*
X121099091Y-98497517D01*
X121098262Y-98489804D01*
X121101057Y-98489503D01*
X121104072Y-98433059D01*
X121133332Y-98386612D01*
X121460276Y-98059669D01*
X121531465Y-97953127D01*
X121580501Y-97834744D01*
X121588307Y-97795500D01*
X121605500Y-97709069D01*
X121605500Y-96940100D01*
X121625185Y-96873061D01*
X121677989Y-96827306D01*
X121747147Y-96817362D01*
X121772834Y-96823918D01*
X121892623Y-96868597D01*
X121892627Y-96868598D01*
X121952155Y-96874999D01*
X121952172Y-96875000D01*
X122250000Y-96875000D01*
X122250000Y-96000000D01*
X122750000Y-96000000D01*
X122750000Y-96875000D01*
X123047828Y-96875000D01*
X123047844Y-96874999D01*
X123107372Y-96868598D01*
X123107379Y-96868596D01*
X123242086Y-96818354D01*
X123242093Y-96818350D01*
X123357187Y-96732190D01*
X123357190Y-96732187D01*
X123443350Y-96617093D01*
X123443354Y-96617086D01*
X123493596Y-96482379D01*
X123493598Y-96482372D01*
X123499999Y-96422844D01*
X123500000Y-96422827D01*
X123500000Y-96000000D01*
X122750000Y-96000000D01*
X122250000Y-96000000D01*
X121579790Y-96000000D01*
X121512751Y-95980315D01*
X121476688Y-95944891D01*
X121460277Y-95920331D01*
X121460274Y-95920327D01*
X121039947Y-95500000D01*
X121500000Y-95500000D01*
X122250000Y-95500000D01*
X122250000Y-94625000D01*
X122750000Y-94625000D01*
X122750000Y-95500000D01*
X123500000Y-95500000D01*
X123500000Y-95077172D01*
X123499999Y-95077155D01*
X123493598Y-95017627D01*
X123493596Y-95017620D01*
X123443354Y-94882913D01*
X123443350Y-94882906D01*
X123357190Y-94767812D01*
X123357187Y-94767809D01*
X123242093Y-94681649D01*
X123242086Y-94681645D01*
X123107379Y-94631403D01*
X123107372Y-94631401D01*
X123047844Y-94625000D01*
X122750000Y-94625000D01*
X122250000Y-94625000D01*
X121952155Y-94625000D01*
X121892627Y-94631401D01*
X121892620Y-94631403D01*
X121757913Y-94681645D01*
X121757906Y-94681649D01*
X121642812Y-94767809D01*
X121642809Y-94767812D01*
X121556649Y-94882906D01*
X121556645Y-94882913D01*
X121506403Y-95017620D01*
X121506401Y-95017627D01*
X121500000Y-95077155D01*
X121500000Y-95500000D01*
X121039947Y-95500000D01*
X120297871Y-94757925D01*
X120264386Y-94696602D01*
X120269370Y-94626910D01*
X120280011Y-94605151D01*
X120309814Y-94556834D01*
X120364999Y-94390297D01*
X120375500Y-94287509D01*
X120375499Y-93562492D01*
X120370451Y-93513079D01*
X120364999Y-93459703D01*
X120364998Y-93459700D01*
X120348692Y-93410493D01*
X120309814Y-93293166D01*
X120217712Y-93143844D01*
X120093656Y-93019788D01*
X119983972Y-92952135D01*
X119944336Y-92927687D01*
X119944331Y-92927685D01*
X119930159Y-92922989D01*
X119777797Y-92872501D01*
X119777795Y-92872500D01*
X119675010Y-92862000D01*
X118324998Y-92862000D01*
X118324981Y-92862001D01*
X118222203Y-92872500D01*
X118222200Y-92872501D01*
X118055668Y-92927685D01*
X118055663Y-92927687D01*
X117906342Y-93019789D01*
X117782289Y-93143842D01*
X117690187Y-93293163D01*
X117690186Y-93293166D01*
X117635001Y-93459703D01*
X117635001Y-93459704D01*
X117635000Y-93459704D01*
X117624500Y-93562483D01*
X117624500Y-94287501D01*
X117624501Y-94287519D01*
X117635000Y-94390296D01*
X117635001Y-94390299D01*
X117666868Y-94486466D01*
X117690186Y-94556834D01*
X117782288Y-94706156D01*
X117906344Y-94830212D01*
X118055666Y-94922314D01*
X118222203Y-94977499D01*
X118324991Y-94988000D01*
X118636691Y-94987999D01*
X118703730Y-95007683D01*
X118724372Y-95024318D01*
X118750791Y-95050737D01*
X118784276Y-95112060D01*
X118779292Y-95181752D01*
X118737420Y-95237685D01*
X118704065Y-95255459D01*
X118650480Y-95274209D01*
X118497737Y-95370184D01*
X118370184Y-95497737D01*
X118274211Y-95650476D01*
X118214631Y-95820745D01*
X118214630Y-95820750D01*
X118194435Y-95999996D01*
X118194435Y-96000000D01*
X118201940Y-96066617D01*
X118189885Y-96135439D01*
X118142536Y-96186818D01*
X118078720Y-96204500D01*
X116837129Y-96204500D01*
X116837123Y-96204501D01*
X116777516Y-96210908D01*
X116642671Y-96261202D01*
X116642664Y-96261206D01*
X116527455Y-96347452D01*
X116527452Y-96347455D01*
X116441206Y-96462664D01*
X116441202Y-96462671D01*
X116390909Y-96597515D01*
X116389779Y-96608022D01*
X116363037Y-96672572D01*
X116305642Y-96712417D01*
X116235817Y-96714906D01*
X116178809Y-96682441D01*
X115534139Y-96037771D01*
X115500654Y-95976448D01*
X115504113Y-95911091D01*
X115539999Y-95802797D01*
X115550500Y-95700009D01*
X115550499Y-94299992D01*
X115539999Y-94197203D01*
X115484814Y-94030666D01*
X115392712Y-93881344D01*
X115268656Y-93757288D01*
X115263549Y-93752181D01*
X115265435Y-93750294D01*
X115232212Y-93703375D01*
X115225500Y-93663132D01*
X115225500Y-92401079D01*
X115196659Y-92256092D01*
X115196658Y-92256091D01*
X115196658Y-92256087D01*
X115160723Y-92169331D01*
X115140087Y-92119511D01*
X115140080Y-92119498D01*
X115083897Y-92035414D01*
X115063019Y-91968736D01*
X115062999Y-91966523D01*
X115062999Y-91449500D01*
X115082684Y-91382461D01*
X115135488Y-91336706D01*
X115186999Y-91325500D01*
X115498920Y-91325500D01*
X115596462Y-91306096D01*
X115643913Y-91296658D01*
X115756556Y-91250000D01*
X117625001Y-91250000D01*
X117625001Y-91362486D01*
X117635494Y-91465197D01*
X117690641Y-91631619D01*
X117690643Y-91631624D01*
X117782684Y-91780845D01*
X117906654Y-91904815D01*
X118055875Y-91996856D01*
X118055880Y-91996858D01*
X118222302Y-92052005D01*
X118222309Y-92052006D01*
X118325019Y-92062499D01*
X118749999Y-92062499D01*
X118750000Y-92062498D01*
X118750000Y-91250000D01*
X119250000Y-91250000D01*
X119250000Y-92062499D01*
X119674972Y-92062499D01*
X119674986Y-92062498D01*
X119777697Y-92052005D01*
X119944119Y-91996858D01*
X119944124Y-91996856D01*
X120093345Y-91904815D01*
X120217315Y-91780845D01*
X120309356Y-91631624D01*
X120309358Y-91631619D01*
X120364505Y-91465197D01*
X120364506Y-91465190D01*
X120374999Y-91362486D01*
X120375000Y-91362473D01*
X120375000Y-91250000D01*
X119250000Y-91250000D01*
X118750000Y-91250000D01*
X117625001Y-91250000D01*
X115756556Y-91250000D01*
X115780495Y-91240084D01*
X115829729Y-91207186D01*
X115903414Y-91157954D01*
X115949549Y-91111819D01*
X116010872Y-91078333D01*
X116037231Y-91075499D01*
X116700002Y-91075499D01*
X116700008Y-91075499D01*
X116802797Y-91064999D01*
X116969334Y-91009814D01*
X117118656Y-90917712D01*
X117242712Y-90793656D01*
X117269639Y-90750000D01*
X117625000Y-90750000D01*
X118750000Y-90750000D01*
X118750000Y-89937500D01*
X119250000Y-89937500D01*
X119250000Y-90750000D01*
X120374999Y-90750000D01*
X120374999Y-90637528D01*
X120374998Y-90637513D01*
X120364505Y-90534802D01*
X120309358Y-90368380D01*
X120309356Y-90368375D01*
X120217315Y-90219154D01*
X120093345Y-90095184D01*
X119944124Y-90003143D01*
X119944119Y-90003141D01*
X119777697Y-89947994D01*
X119777690Y-89947993D01*
X119674986Y-89937500D01*
X119250000Y-89937500D01*
X118750000Y-89937500D01*
X118325028Y-89937500D01*
X118325012Y-89937501D01*
X118222302Y-89947994D01*
X118055880Y-90003141D01*
X118055875Y-90003143D01*
X117906654Y-90095184D01*
X117782684Y-90219154D01*
X117690643Y-90368375D01*
X117690641Y-90368380D01*
X117635494Y-90534802D01*
X117635493Y-90534809D01*
X117625000Y-90637513D01*
X117625000Y-90750000D01*
X117269639Y-90750000D01*
X117334814Y-90644334D01*
X117389999Y-90477797D01*
X117400500Y-90375009D01*
X117400499Y-89624992D01*
X117389999Y-89522203D01*
X117334814Y-89355666D01*
X117242712Y-89206344D01*
X117118656Y-89082288D01*
X116969334Y-88990186D01*
X116802797Y-88935001D01*
X116802795Y-88935000D01*
X116700010Y-88924500D01*
X115299998Y-88924500D01*
X115299981Y-88924501D01*
X115197203Y-88935000D01*
X115197200Y-88935001D01*
X115030668Y-88990185D01*
X115030663Y-88990187D01*
X114881342Y-89082289D01*
X114757289Y-89206342D01*
X114665187Y-89355663D01*
X114665185Y-89355668D01*
X114641317Y-89427697D01*
X114610001Y-89522203D01*
X114610001Y-89522204D01*
X114610000Y-89522204D01*
X114599500Y-89624983D01*
X114599500Y-89700500D01*
X114579815Y-89767539D01*
X114527011Y-89813294D01*
X114475500Y-89824500D01*
X114366304Y-89824500D01*
X114299265Y-89804815D01*
X114253510Y-89752011D01*
X114243566Y-89682853D01*
X114260765Y-89635403D01*
X114309356Y-89556624D01*
X114309358Y-89556619D01*
X114364505Y-89390197D01*
X114364506Y-89390190D01*
X114374999Y-89287486D01*
X114375000Y-89287473D01*
X114375000Y-89175000D01*
X111625001Y-89175000D01*
X111625001Y-89287486D01*
X111635494Y-89390197D01*
X111690641Y-89556619D01*
X111690643Y-89556624D01*
X111782684Y-89705845D01*
X111906654Y-89829815D01*
X111944604Y-89853223D01*
X111991328Y-89905171D01*
X112002551Y-89974134D01*
X111974707Y-90038216D01*
X111967188Y-90046443D01*
X111425450Y-90588181D01*
X111364127Y-90621666D01*
X111337769Y-90624500D01*
X110712498Y-90624500D01*
X110712480Y-90624501D01*
X110609703Y-90635000D01*
X110609700Y-90635001D01*
X110443168Y-90690185D01*
X110443163Y-90690187D01*
X110293842Y-90782289D01*
X110169789Y-90906342D01*
X110077685Y-91055667D01*
X110074756Y-91064507D01*
X110034982Y-91121951D01*
X109970465Y-91148772D01*
X109957051Y-91149500D01*
X108832751Y-91149500D01*
X108765712Y-91129815D01*
X108719957Y-91077011D01*
X108710013Y-91007853D01*
X108739038Y-90944297D01*
X108745070Y-90937819D01*
X109280273Y-90402616D01*
X109280277Y-90402612D01*
X109351465Y-90296070D01*
X109400501Y-90177686D01*
X109402697Y-90166646D01*
X109418480Y-90087306D01*
X109450866Y-90025396D01*
X109511582Y-89990822D01*
X109540097Y-89987499D01*
X109750000Y-89987499D01*
X109750000Y-89175000D01*
X110250000Y-89175000D01*
X110250000Y-89987499D01*
X110674972Y-89987499D01*
X110674986Y-89987498D01*
X110777697Y-89977005D01*
X110944119Y-89921858D01*
X110944124Y-89921856D01*
X111093345Y-89829815D01*
X111217315Y-89705845D01*
X111309356Y-89556624D01*
X111309358Y-89556619D01*
X111364505Y-89390197D01*
X111364506Y-89390190D01*
X111374999Y-89287486D01*
X111375000Y-89287473D01*
X111375000Y-89175000D01*
X110250000Y-89175000D01*
X109750000Y-89175000D01*
X109750000Y-88799000D01*
X109769685Y-88731961D01*
X109822489Y-88686206D01*
X109874000Y-88675000D01*
X111374999Y-88675000D01*
X111625000Y-88675000D01*
X112750000Y-88675000D01*
X112750000Y-87862500D01*
X113250000Y-87862500D01*
X113250000Y-88675000D01*
X114374999Y-88675000D01*
X114374999Y-88562528D01*
X114374998Y-88562513D01*
X114364505Y-88459802D01*
X114309358Y-88293380D01*
X114309356Y-88293375D01*
X114217315Y-88144154D01*
X114093345Y-88020184D01*
X113944124Y-87928143D01*
X113944119Y-87928141D01*
X113777697Y-87872994D01*
X113777690Y-87872993D01*
X113674986Y-87862500D01*
X113250000Y-87862500D01*
X112750000Y-87862500D01*
X112325028Y-87862500D01*
X112325012Y-87862501D01*
X112222302Y-87872994D01*
X112055880Y-87928141D01*
X112055875Y-87928143D01*
X111906654Y-88020184D01*
X111782684Y-88144154D01*
X111690643Y-88293375D01*
X111690641Y-88293380D01*
X111635494Y-88459802D01*
X111635493Y-88459809D01*
X111625000Y-88562513D01*
X111625000Y-88675000D01*
X111374999Y-88675000D01*
X111374999Y-88562528D01*
X111374998Y-88562513D01*
X111364505Y-88459802D01*
X111309358Y-88293380D01*
X111309356Y-88293375D01*
X111217315Y-88144154D01*
X111093345Y-88020184D01*
X110944124Y-87928143D01*
X110944119Y-87928141D01*
X110777697Y-87872994D01*
X110777690Y-87872993D01*
X110674986Y-87862500D01*
X110269308Y-87862500D01*
X110202269Y-87842815D01*
X110156514Y-87790011D01*
X110146570Y-87720853D01*
X110175595Y-87657297D01*
X110181627Y-87650819D01*
X110233127Y-87599319D01*
X110294450Y-87565834D01*
X110320808Y-87563000D01*
X112151571Y-87563000D01*
X112236115Y-87546182D01*
X112277244Y-87538001D01*
X112395627Y-87488965D01*
X112411415Y-87478416D01*
X112502169Y-87417777D01*
X112619945Y-87300000D01*
X114600001Y-87300000D01*
X114600001Y-87424986D01*
X114610494Y-87527697D01*
X114665641Y-87694119D01*
X114665643Y-87694124D01*
X114757684Y-87843345D01*
X114881654Y-87967315D01*
X115030875Y-88059356D01*
X115030880Y-88059358D01*
X115197302Y-88114505D01*
X115197309Y-88114506D01*
X115300019Y-88124999D01*
X115749999Y-88124999D01*
X115750000Y-88124998D01*
X115750000Y-87300000D01*
X116250000Y-87300000D01*
X116250000Y-88124999D01*
X116699972Y-88124999D01*
X116699986Y-88124998D01*
X116802697Y-88114505D01*
X116969119Y-88059358D01*
X116969124Y-88059356D01*
X117118345Y-87967315D01*
X117242315Y-87843345D01*
X117334356Y-87694124D01*
X117334358Y-87694119D01*
X117389505Y-87527697D01*
X117389506Y-87527690D01*
X117399999Y-87424986D01*
X117400000Y-87424973D01*
X117400000Y-87300000D01*
X116250000Y-87300000D01*
X115750000Y-87300000D01*
X114600001Y-87300000D01*
X112619945Y-87300000D01*
X112820628Y-87099316D01*
X112881950Y-87065833D01*
X112908308Y-87062999D01*
X113675002Y-87062999D01*
X113675008Y-87062999D01*
X113777797Y-87052499D01*
X113944334Y-86997314D01*
X114093656Y-86905212D01*
X114198868Y-86800000D01*
X114600000Y-86800000D01*
X115750000Y-86800000D01*
X115750000Y-85975000D01*
X116250000Y-85975000D01*
X116250000Y-86800000D01*
X117399999Y-86800000D01*
X117399999Y-86675028D01*
X117399998Y-86675013D01*
X117389505Y-86572302D01*
X117334358Y-86405880D01*
X117334356Y-86405875D01*
X117242315Y-86256654D01*
X117118345Y-86132684D01*
X116969124Y-86040643D01*
X116969119Y-86040641D01*
X116802697Y-85985494D01*
X116802690Y-85985493D01*
X116699986Y-85975000D01*
X116250000Y-85975000D01*
X115750000Y-85975000D01*
X115300028Y-85975000D01*
X115300012Y-85975001D01*
X115197302Y-85985494D01*
X115030880Y-86040641D01*
X115030875Y-86040643D01*
X114881654Y-86132684D01*
X114757684Y-86256654D01*
X114665643Y-86405875D01*
X114665641Y-86405880D01*
X114610494Y-86572302D01*
X114610493Y-86572309D01*
X114600000Y-86675013D01*
X114600000Y-86800000D01*
X114198868Y-86800000D01*
X114217712Y-86781156D01*
X114309814Y-86631834D01*
X114364999Y-86465297D01*
X114375500Y-86362509D01*
X114375499Y-85637492D01*
X114364999Y-85534703D01*
X114309814Y-85368166D01*
X114217712Y-85218844D01*
X114093656Y-85094788D01*
X113944334Y-85002686D01*
X113777797Y-84947501D01*
X113777795Y-84947500D01*
X113675016Y-84937000D01*
X113675009Y-84937000D01*
X112908308Y-84937000D01*
X112841269Y-84917315D01*
X112820627Y-84900681D01*
X112502174Y-84582227D01*
X112502173Y-84582226D01*
X112468387Y-84559651D01*
X112395627Y-84511035D01*
X112377047Y-84503339D01*
X112277244Y-84461999D01*
X112277240Y-84461998D01*
X112274021Y-84461358D01*
X112270802Y-84460717D01*
X112270799Y-84460716D01*
X112270799Y-84460717D01*
X112151571Y-84437000D01*
X112151569Y-84437000D01*
X110118308Y-84437000D01*
X110051269Y-84417315D01*
X110030627Y-84400681D01*
X108935378Y-83305432D01*
X108901893Y-83244109D01*
X108906877Y-83174417D01*
X108948749Y-83118484D01*
X109009175Y-83094531D01*
X109055900Y-83089266D01*
X109179249Y-83075369D01*
X109179252Y-83075368D01*
X109179255Y-83075368D01*
X109349522Y-83015789D01*
X109362285Y-83007770D01*
X109434027Y-82962691D01*
X109501264Y-82943690D01*
X109565973Y-82962691D01*
X109650475Y-83015788D01*
X109820745Y-83075368D01*
X109820750Y-83075369D01*
X109999996Y-83095565D01*
X110000000Y-83095565D01*
X110000004Y-83095565D01*
X110179249Y-83075369D01*
X110179252Y-83075368D01*
X110179255Y-83075368D01*
X110349522Y-83015789D01*
X110502262Y-82919816D01*
X110629816Y-82792262D01*
X110725789Y-82639522D01*
X110785368Y-82469255D01*
X110794644Y-82386930D01*
X110805565Y-82290003D01*
X110805565Y-82289996D01*
X110785369Y-82110750D01*
X110785366Y-82110737D01*
X110725790Y-81940481D01*
X110725789Y-81940478D01*
X110693684Y-81889383D01*
X110669506Y-81850903D01*
X110650500Y-81784931D01*
X110650500Y-80563768D01*
X110670185Y-80496729D01*
X110722989Y-80450974D01*
X110792147Y-80441030D01*
X110817822Y-80447583D01*
X110942517Y-80494091D01*
X111002127Y-80500500D01*
X111997872Y-80500499D01*
X112057483Y-80494091D01*
X112192331Y-80443796D01*
X112192333Y-80443794D01*
X112200640Y-80440696D01*
X112201285Y-80442426D01*
X112258837Y-80429902D01*
X112298988Y-80441691D01*
X112299360Y-80440696D01*
X112307666Y-80443794D01*
X112307669Y-80443796D01*
X112442517Y-80494091D01*
X112502127Y-80500500D01*
X113497872Y-80500499D01*
X113557483Y-80494091D01*
X113692331Y-80443796D01*
X113692333Y-80443794D01*
X113700640Y-80440696D01*
X113701225Y-80442265D01*
X113759367Y-80429616D01*
X113799207Y-80441312D01*
X113799602Y-80440253D01*
X113942623Y-80493597D01*
X113942627Y-80493598D01*
X114002155Y-80499999D01*
X114002172Y-80500000D01*
X114250000Y-80500000D01*
X114250000Y-78000000D01*
X114219306Y-78000000D01*
X114152267Y-77980315D01*
X114106512Y-77927511D01*
X114096568Y-77858353D01*
X114125593Y-77794797D01*
X114131611Y-77788333D01*
X115037821Y-76882123D01*
X115099142Y-76848640D01*
X115168834Y-76853624D01*
X115224767Y-76895496D01*
X115249184Y-76960960D01*
X115249500Y-76969806D01*
X115249500Y-77497870D01*
X115249501Y-77497876D01*
X115255908Y-77557483D01*
X115309303Y-77700641D01*
X115307575Y-77701285D01*
X115320095Y-77758853D01*
X115308309Y-77798989D01*
X115309303Y-77799360D01*
X115254078Y-77947424D01*
X115212206Y-78003357D01*
X115146742Y-78027774D01*
X115094562Y-78020272D01*
X115057376Y-78006402D01*
X115057372Y-78006401D01*
X114997844Y-78000000D01*
X114750000Y-78000000D01*
X114750000Y-80500000D01*
X114997828Y-80500000D01*
X114997844Y-80499999D01*
X115057372Y-80493598D01*
X115057379Y-80493596D01*
X115192086Y-80443354D01*
X115192093Y-80443350D01*
X115307187Y-80357190D01*
X115307190Y-80357187D01*
X115393350Y-80242093D01*
X115393354Y-80242086D01*
X115443596Y-80107379D01*
X115443598Y-80107372D01*
X115449999Y-80047844D01*
X115450000Y-80047827D01*
X115450000Y-79550880D01*
X115469685Y-79483841D01*
X115522489Y-79438086D01*
X115591647Y-79428142D01*
X115617330Y-79434697D01*
X115642517Y-79444091D01*
X115702127Y-79450500D01*
X116479191Y-79450499D01*
X116546230Y-79470183D01*
X116566872Y-79486818D01*
X117232897Y-80152843D01*
X117266382Y-80214166D01*
X117268435Y-80226632D01*
X117269250Y-80233866D01*
X117269252Y-80233875D01*
X117328830Y-80404141D01*
X117389376Y-80500499D01*
X117424804Y-80556882D01*
X117552358Y-80684436D01*
X117705098Y-80780409D01*
X117875365Y-80839988D01*
X117875370Y-80839989D01*
X118054616Y-80860185D01*
X118054620Y-80860185D01*
X118054624Y-80860185D01*
X118233869Y-80839989D01*
X118233872Y-80839988D01*
X118233875Y-80839988D01*
X118404142Y-80780409D01*
X118556882Y-80684436D01*
X118684436Y-80556882D01*
X118780409Y-80404142D01*
X118839988Y-80233875D01*
X118842209Y-80214166D01*
X118860185Y-80054623D01*
X118860185Y-80054616D01*
X118839989Y-79875370D01*
X118839988Y-79875365D01*
X118829266Y-79844724D01*
X118780409Y-79705098D01*
X118763958Y-79678917D01*
X118684435Y-79552357D01*
X118556882Y-79424804D01*
X118404141Y-79328830D01*
X118233875Y-79269252D01*
X118233866Y-79269250D01*
X118226632Y-79268435D01*
X118162220Y-79241364D01*
X118152843Y-79232897D01*
X117786818Y-78866872D01*
X117753333Y-78805549D01*
X117750499Y-78779191D01*
X117750499Y-78002129D01*
X117750498Y-78002123D01*
X117750216Y-77999501D01*
X117744790Y-77949026D01*
X117743262Y-77934804D01*
X117744847Y-77934633D01*
X117748096Y-77873903D01*
X117788956Y-77817226D01*
X117853971Y-77791638D01*
X117878921Y-77791923D01*
X117999997Y-77805565D01*
X118000000Y-77805565D01*
X118000004Y-77805565D01*
X118179249Y-77785369D01*
X118179252Y-77785368D01*
X118179255Y-77785368D01*
X118349522Y-77725789D01*
X118502262Y-77629816D01*
X118629816Y-77502262D01*
X118725789Y-77349522D01*
X118785368Y-77179255D01*
X118785369Y-77179249D01*
X118805565Y-77000003D01*
X118805565Y-76999996D01*
X118785369Y-76820750D01*
X118785368Y-76820745D01*
X118740929Y-76693746D01*
X118725789Y-76650478D01*
X118720569Y-76642171D01*
X118644371Y-76520902D01*
X118629816Y-76497738D01*
X118502262Y-76370184D01*
X118469377Y-76349521D01*
X118349523Y-76274211D01*
X118179254Y-76214631D01*
X118179249Y-76214630D01*
X118000004Y-76194435D01*
X117999996Y-76194435D01*
X117878920Y-76208076D01*
X117810098Y-76196021D01*
X117758719Y-76148672D01*
X117741095Y-76081061D01*
X117743572Y-76062303D01*
X117744089Y-76057485D01*
X117744091Y-76057483D01*
X117750500Y-75997873D01*
X117750499Y-75002128D01*
X117744091Y-74942517D01*
X117693796Y-74807669D01*
X117693794Y-74807666D01*
X117690696Y-74799360D01*
X117692426Y-74798714D01*
X117679902Y-74741163D01*
X117691691Y-74701011D01*
X117690696Y-74700640D01*
X117693794Y-74692333D01*
X117693796Y-74692331D01*
X117744091Y-74557483D01*
X117750500Y-74497873D01*
X117750499Y-73502128D01*
X117744091Y-73442517D01*
X117693796Y-73307669D01*
X117693794Y-73307666D01*
X117690696Y-73299360D01*
X117692426Y-73298714D01*
X117679902Y-73241163D01*
X117691691Y-73201011D01*
X117690696Y-73200640D01*
X117693794Y-73192333D01*
X117693796Y-73192331D01*
X117744091Y-73057483D01*
X117750500Y-72997873D01*
X117750499Y-72002128D01*
X117744091Y-71942517D01*
X117693796Y-71807669D01*
X117693794Y-71807666D01*
X117690696Y-71799360D01*
X117692426Y-71798714D01*
X117679902Y-71741163D01*
X117691691Y-71701011D01*
X117690696Y-71700640D01*
X117693794Y-71692333D01*
X117693796Y-71692331D01*
X117744091Y-71557483D01*
X117750500Y-71497873D01*
X117750499Y-70502128D01*
X117744091Y-70442517D01*
X117693796Y-70307669D01*
X117693794Y-70307666D01*
X117690696Y-70299360D01*
X117692426Y-70298714D01*
X117679902Y-70241163D01*
X117691691Y-70201011D01*
X117690696Y-70200640D01*
X117693794Y-70192333D01*
X117693796Y-70192331D01*
X117744091Y-70057483D01*
X117750500Y-69997873D01*
X117750499Y-69111227D01*
X117770183Y-69044189D01*
X117822987Y-68998434D01*
X117892146Y-68988490D01*
X117955702Y-69017515D01*
X117962167Y-69023535D01*
X120117048Y-71178415D01*
X120117049Y-71178416D01*
X120221584Y-71282951D01*
X120245706Y-71299068D01*
X120290509Y-71352677D01*
X120299218Y-71422002D01*
X120291376Y-71449620D01*
X120278341Y-71481089D01*
X120278340Y-71481093D01*
X120249500Y-71626079D01*
X120249500Y-71637769D01*
X120229815Y-71704808D01*
X120213181Y-71725450D01*
X119417052Y-72521578D01*
X119417049Y-72521581D01*
X119388660Y-72564068D01*
X119388661Y-72564069D01*
X119334914Y-72644508D01*
X119278343Y-72781082D01*
X119278340Y-72781092D01*
X119249500Y-72926079D01*
X119249500Y-72926082D01*
X119249500Y-79533918D01*
X119249500Y-79533920D01*
X119249499Y-79533920D01*
X119278340Y-79678907D01*
X119278343Y-79678917D01*
X119334914Y-79815491D01*
X119334916Y-79815495D01*
X119354446Y-79844724D01*
X119354445Y-79844724D01*
X119417046Y-79938414D01*
X119417052Y-79938421D01*
X120627130Y-81148497D01*
X120660615Y-81209820D01*
X120662977Y-81246985D01*
X120644341Y-81459997D01*
X120644341Y-81460000D01*
X120664936Y-81695403D01*
X120664938Y-81695413D01*
X120726094Y-81923655D01*
X120726096Y-81923659D01*
X120726097Y-81923663D01*
X120813331Y-82110737D01*
X120825965Y-82137830D01*
X120825967Y-82137834D01*
X120904736Y-82250327D01*
X120961501Y-82331396D01*
X120961506Y-82331402D01*
X121083818Y-82453714D01*
X121117303Y-82515037D01*
X121112319Y-82584729D01*
X121070447Y-82640662D01*
X121039471Y-82657577D01*
X120907912Y-82706646D01*
X120907906Y-82706649D01*
X120792812Y-82792809D01*
X120792809Y-82792812D01*
X120706649Y-82907906D01*
X120706645Y-82907913D01*
X120656403Y-83042620D01*
X120656401Y-83042627D01*
X120650000Y-83102155D01*
X120650000Y-83750000D01*
X121566988Y-83750000D01*
X121534075Y-83807007D01*
X121500000Y-83934174D01*
X121500000Y-84065826D01*
X121534075Y-84192993D01*
X121566988Y-84250000D01*
X120650000Y-84250000D01*
X120650000Y-84897844D01*
X120656401Y-84957372D01*
X120656403Y-84957379D01*
X120706645Y-85092086D01*
X120706649Y-85092093D01*
X120792809Y-85207187D01*
X120792812Y-85207190D01*
X120907906Y-85293350D01*
X120907913Y-85293354D01*
X121042620Y-85343596D01*
X121042627Y-85343598D01*
X121102155Y-85349999D01*
X121102172Y-85350000D01*
X121750000Y-85350000D01*
X121750000Y-84433012D01*
X121807007Y-84465925D01*
X121934174Y-84500000D01*
X122065826Y-84500000D01*
X122192993Y-84465925D01*
X122250000Y-84433012D01*
X122250000Y-85350000D01*
X122897828Y-85350000D01*
X122897844Y-85349999D01*
X122957372Y-85343598D01*
X122957379Y-85343596D01*
X123092086Y-85293354D01*
X123092089Y-85293352D01*
X123151188Y-85249111D01*
X123216652Y-85224693D01*
X123284926Y-85239544D01*
X123334331Y-85288949D01*
X123349500Y-85348377D01*
X123349500Y-86179191D01*
X123329815Y-86246230D01*
X123313181Y-86266872D01*
X122741871Y-86838181D01*
X122680548Y-86871666D01*
X122654190Y-86874500D01*
X121952129Y-86874500D01*
X121952123Y-86874501D01*
X121892516Y-86880908D01*
X121757671Y-86931202D01*
X121757664Y-86931206D01*
X121642455Y-87017452D01*
X121642452Y-87017455D01*
X121556206Y-87132664D01*
X121556202Y-87132671D01*
X121505908Y-87267517D01*
X121499501Y-87327116D01*
X121499500Y-87327135D01*
X121499500Y-88672870D01*
X121499501Y-88672876D01*
X121505908Y-88732483D01*
X121556202Y-88867328D01*
X121556206Y-88867335D01*
X121642452Y-88982544D01*
X121642455Y-88982547D01*
X121757664Y-89068793D01*
X121757671Y-89068797D01*
X121892517Y-89119091D01*
X121892516Y-89119091D01*
X121899444Y-89119835D01*
X121952127Y-89125500D01*
X123047872Y-89125499D01*
X123107483Y-89119091D01*
X123242331Y-89068796D01*
X123357546Y-88982546D01*
X123443796Y-88867331D01*
X123494091Y-88732483D01*
X123500500Y-88672873D01*
X123500499Y-87970807D01*
X123520183Y-87903769D01*
X123536818Y-87883127D01*
X124018453Y-87401493D01*
X124505276Y-86914670D01*
X124576465Y-86808127D01*
X124625501Y-86689744D01*
X124633307Y-86650500D01*
X124650500Y-86564069D01*
X124650500Y-70095931D01*
X124650500Y-70095928D01*
X124625502Y-69970261D01*
X124625501Y-69970260D01*
X124625501Y-69970256D01*
X124576465Y-69851873D01*
X124576464Y-69851872D01*
X124576461Y-69851866D01*
X124505277Y-69745332D01*
X124460905Y-69700960D01*
X124414669Y-69654724D01*
X123943949Y-69184004D01*
X123347709Y-68587763D01*
X123314224Y-68526440D01*
X123315615Y-68467989D01*
X123325794Y-68430000D01*
X123335063Y-68395408D01*
X123355659Y-68160000D01*
X123335063Y-67924592D01*
X123273903Y-67696337D01*
X123174035Y-67482171D01*
X123113284Y-67395408D01*
X123038494Y-67288597D01*
X122871402Y-67121506D01*
X122871396Y-67121501D01*
X122685842Y-66991575D01*
X122642217Y-66936998D01*
X122635023Y-66867500D01*
X122666546Y-66805145D01*
X122685842Y-66788425D01*
X122708026Y-66772891D01*
X122871401Y-66658495D01*
X123038495Y-66491401D01*
X123174035Y-66297830D01*
X123273903Y-66083663D01*
X123335063Y-65855408D01*
X123355659Y-65620000D01*
X123335063Y-65384592D01*
X123273903Y-65156337D01*
X123174035Y-64942171D01*
X123139339Y-64892619D01*
X123038494Y-64748597D01*
X122871402Y-64581506D01*
X122871396Y-64581501D01*
X122685842Y-64451575D01*
X122642217Y-64396998D01*
X122635023Y-64327500D01*
X122666546Y-64265145D01*
X122685842Y-64248425D01*
X122754086Y-64200640D01*
X122871401Y-64118495D01*
X123038495Y-63951401D01*
X123174035Y-63757830D01*
X123273903Y-63543663D01*
X123335063Y-63315408D01*
X123355659Y-63080000D01*
X123335063Y-62844592D01*
X123273903Y-62616337D01*
X123174035Y-62402171D01*
X123113284Y-62315408D01*
X123038494Y-62208597D01*
X122871402Y-62041506D01*
X122871396Y-62041501D01*
X122685842Y-61911575D01*
X122642217Y-61856998D01*
X122635023Y-61787500D01*
X122666546Y-61725145D01*
X122685842Y-61708425D01*
X122798107Y-61629816D01*
X122871401Y-61578495D01*
X123038495Y-61411401D01*
X123174035Y-61217830D01*
X123273903Y-61003663D01*
X123335063Y-60775408D01*
X123355659Y-60540000D01*
X123335063Y-60304592D01*
X123273903Y-60076337D01*
X123174035Y-59862171D01*
X123163178Y-59846666D01*
X123038496Y-59668600D01*
X123020374Y-59650478D01*
X122916179Y-59546283D01*
X122882696Y-59484963D01*
X122887680Y-59415271D01*
X122929551Y-59359337D01*
X122960529Y-59342422D01*
X123092086Y-59293354D01*
X123092093Y-59293350D01*
X123207187Y-59207190D01*
X123207190Y-59207187D01*
X123293350Y-59092093D01*
X123293354Y-59092086D01*
X123343596Y-58957379D01*
X123343598Y-58957372D01*
X123349999Y-58897844D01*
X123350000Y-58897827D01*
X123350000Y-58250000D01*
X122433012Y-58250000D01*
X122465925Y-58192993D01*
X122500000Y-58065826D01*
X122500000Y-57934174D01*
X122465925Y-57807007D01*
X122433012Y-57750000D01*
X123350000Y-57750000D01*
X123350000Y-57102172D01*
X123349999Y-57102155D01*
X123343598Y-57042627D01*
X123343596Y-57042620D01*
X123293354Y-56907913D01*
X123293350Y-56907906D01*
X123207190Y-56792812D01*
X123207187Y-56792809D01*
X123092093Y-56706649D01*
X123092086Y-56706645D01*
X122957379Y-56656403D01*
X122957372Y-56656401D01*
X122897844Y-56650000D01*
X122250000Y-56650000D01*
X122250000Y-57566988D01*
X122192993Y-57534075D01*
X122065826Y-57500000D01*
X121934174Y-57500000D01*
X121807007Y-57534075D01*
X121750000Y-57566988D01*
X121750000Y-56650000D01*
X121102155Y-56650000D01*
X121042627Y-56656401D01*
X121042620Y-56656403D01*
X120907913Y-56706645D01*
X120907906Y-56706649D01*
X120792812Y-56792809D01*
X120792809Y-56792812D01*
X120706649Y-56907906D01*
X120706645Y-56907913D01*
X120656403Y-57042620D01*
X120656401Y-57042627D01*
X120650000Y-57102155D01*
X120650000Y-57750000D01*
X121566988Y-57750000D01*
X121534075Y-57807007D01*
X121500000Y-57934174D01*
X121500000Y-58065826D01*
X121534075Y-58192993D01*
X121566988Y-58250000D01*
X120650000Y-58250000D01*
X120650000Y-58897844D01*
X120656401Y-58957372D01*
X120656403Y-58957379D01*
X120706645Y-59092086D01*
X120706649Y-59092093D01*
X120792809Y-59207187D01*
X120792812Y-59207190D01*
X120907906Y-59293350D01*
X120907913Y-59293354D01*
X121039470Y-59342421D01*
X121095403Y-59384292D01*
X121119821Y-59449756D01*
X121104970Y-59518029D01*
X121083819Y-59546284D01*
X120961503Y-59668600D01*
X120825965Y-59862169D01*
X120825964Y-59862171D01*
X120726098Y-60076335D01*
X120726094Y-60076344D01*
X120664938Y-60304586D01*
X120664936Y-60304596D01*
X120644341Y-60539999D01*
X120644341Y-60540000D01*
X120664936Y-60775403D01*
X120664939Y-60775416D01*
X120684384Y-60847989D01*
X120682721Y-60917839D01*
X120652290Y-60967762D01*
X120460465Y-61159588D01*
X120399142Y-61193073D01*
X120329451Y-61188089D01*
X120306812Y-61176901D01*
X120299031Y-61172012D01*
X120216639Y-61120241D01*
X120159903Y-61084591D01*
X119989634Y-61025011D01*
X119989629Y-61025010D01*
X119810384Y-61004815D01*
X119810376Y-61004815D01*
X119631130Y-61025010D01*
X119631125Y-61025011D01*
X119460856Y-61084591D01*
X119308117Y-61180564D01*
X119175640Y-61313042D01*
X119173415Y-61310817D01*
X119127529Y-61342980D01*
X119087848Y-61349500D01*
X117813768Y-61349500D01*
X117746729Y-61329815D01*
X117700974Y-61277011D01*
X117691030Y-61207853D01*
X117697583Y-61182177D01*
X117744091Y-61057483D01*
X117750500Y-60997873D01*
X117750499Y-60002128D01*
X117744091Y-59942517D01*
X117693796Y-59807669D01*
X117693794Y-59807666D01*
X117690696Y-59799360D01*
X117692426Y-59798714D01*
X117679902Y-59741163D01*
X117691691Y-59701011D01*
X117690696Y-59700640D01*
X117693794Y-59692333D01*
X117693796Y-59692331D01*
X117744091Y-59557483D01*
X117750500Y-59497873D01*
X117750499Y-58502128D01*
X117744091Y-58442517D01*
X117693796Y-58307669D01*
X117693794Y-58307666D01*
X117690696Y-58299360D01*
X117692426Y-58298714D01*
X117679902Y-58241163D01*
X117691691Y-58201011D01*
X117690696Y-58200640D01*
X117693794Y-58192333D01*
X117693796Y-58192331D01*
X117744091Y-58057483D01*
X117750500Y-57997873D01*
X117750499Y-57002128D01*
X117744091Y-56942517D01*
X117693796Y-56807669D01*
X117690697Y-56799359D01*
X117692266Y-56798773D01*
X117679616Y-56740630D01*
X117691314Y-56700793D01*
X117690253Y-56700398D01*
X117743597Y-56557376D01*
X117743598Y-56557372D01*
X117749999Y-56497844D01*
X117750000Y-56497827D01*
X117750000Y-56250000D01*
X115250000Y-56250000D01*
X115250000Y-56497844D01*
X115256401Y-56557372D01*
X115256403Y-56557379D01*
X115309746Y-56700399D01*
X115307930Y-56701076D01*
X115320383Y-56758316D01*
X115308428Y-56799033D01*
X115309303Y-56799359D01*
X115255908Y-56942517D01*
X115249501Y-57002116D01*
X115249501Y-57002123D01*
X115249500Y-57002135D01*
X115249500Y-57225500D01*
X115229815Y-57292539D01*
X115177011Y-57338294D01*
X115125500Y-57349500D01*
X114505068Y-57349500D01*
X114439096Y-57330494D01*
X114349522Y-57274210D01*
X114349518Y-57274209D01*
X114179262Y-57214633D01*
X114179249Y-57214630D01*
X114000004Y-57194435D01*
X113999996Y-57194435D01*
X113820750Y-57214630D01*
X113820745Y-57214631D01*
X113650476Y-57274211D01*
X113497737Y-57370184D01*
X113370184Y-57497737D01*
X113274211Y-57650476D01*
X113214631Y-57820745D01*
X113214630Y-57820750D01*
X113194435Y-57999996D01*
X113194435Y-58000003D01*
X113214630Y-58179249D01*
X113214631Y-58179254D01*
X113274211Y-58349523D01*
X113332644Y-58442518D01*
X113370184Y-58502262D01*
X113497738Y-58629816D01*
X113560904Y-58669506D01*
X113646021Y-58722989D01*
X113650478Y-58725789D01*
X113789686Y-58774500D01*
X113820745Y-58785368D01*
X113820750Y-58785369D01*
X113999996Y-58805565D01*
X114000000Y-58805565D01*
X114000004Y-58805565D01*
X114179249Y-58785369D01*
X114179251Y-58785368D01*
X114179255Y-58785368D01*
X114179258Y-58785366D01*
X114179262Y-58785366D01*
X114269377Y-58753832D01*
X114349522Y-58725789D01*
X114439096Y-58669505D01*
X114505068Y-58650500D01*
X115125500Y-58650500D01*
X115192539Y-58670185D01*
X115238294Y-58722989D01*
X115249500Y-58774500D01*
X115249500Y-59083790D01*
X115229815Y-59150829D01*
X115177011Y-59196584D01*
X115111617Y-59207010D01*
X115000004Y-59194435D01*
X114999996Y-59194435D01*
X114820750Y-59214630D01*
X114820745Y-59214631D01*
X114650476Y-59274211D01*
X114497737Y-59370184D01*
X114370184Y-59497737D01*
X114274210Y-59650478D01*
X114214632Y-59820744D01*
X114214630Y-59820752D01*
X114213815Y-59827988D01*
X114186743Y-59892400D01*
X114178277Y-59901775D01*
X113766873Y-60313181D01*
X113705550Y-60346666D01*
X113679192Y-60349500D01*
X111505068Y-60349500D01*
X111439096Y-60330494D01*
X111349522Y-60274210D01*
X111349518Y-60274209D01*
X111179262Y-60214633D01*
X111179249Y-60214630D01*
X111000004Y-60194435D01*
X110999996Y-60194435D01*
X110820750Y-60214630D01*
X110820745Y-60214631D01*
X110650476Y-60274211D01*
X110497737Y-60370184D01*
X110370184Y-60497737D01*
X110274211Y-60650476D01*
X110214631Y-60820745D01*
X110214630Y-60820750D01*
X110194435Y-60999996D01*
X110194435Y-61000003D01*
X110214630Y-61179249D01*
X110214631Y-61179254D01*
X110274211Y-61349523D01*
X110332644Y-61442518D01*
X110370184Y-61502262D01*
X110497738Y-61629816D01*
X110588080Y-61686582D01*
X110631771Y-61714035D01*
X110650478Y-61725789D01*
X110820739Y-61785366D01*
X110820745Y-61785368D01*
X110820750Y-61785369D01*
X110999996Y-61805565D01*
X111000000Y-61805565D01*
X111000004Y-61805565D01*
X111179249Y-61785369D01*
X111179251Y-61785368D01*
X111179255Y-61785368D01*
X111179258Y-61785366D01*
X111179262Y-61785366D01*
X111318214Y-61736744D01*
X111349522Y-61725789D01*
X111439096Y-61669505D01*
X111505068Y-61650500D01*
X114064071Y-61650500D01*
X114148615Y-61633682D01*
X114189744Y-61625501D01*
X114308127Y-61576465D01*
X114308131Y-61576461D01*
X114313502Y-61573592D01*
X114314526Y-61575508D01*
X114371842Y-61557546D01*
X114439226Y-61576014D01*
X114461767Y-61593845D01*
X114497738Y-61629816D01*
X114588080Y-61686582D01*
X114631771Y-61714035D01*
X114650478Y-61725789D01*
X114820739Y-61785366D01*
X114820745Y-61785368D01*
X114820750Y-61785369D01*
X114999996Y-61805565D01*
X115000000Y-61805565D01*
X115000003Y-61805565D01*
X115111616Y-61792989D01*
X115180438Y-61805043D01*
X115231818Y-61852392D01*
X115249500Y-61916209D01*
X115249500Y-62497870D01*
X115249501Y-62497876D01*
X115255908Y-62557483D01*
X115309303Y-62700641D01*
X115307575Y-62701285D01*
X115320095Y-62758853D01*
X115308310Y-62798988D01*
X115309303Y-62799359D01*
X115255908Y-62942517D01*
X115249501Y-63002116D01*
X115249501Y-63002123D01*
X115249500Y-63002135D01*
X115249500Y-63997870D01*
X115249501Y-63997876D01*
X115255908Y-64057483D01*
X115309303Y-64200641D01*
X115307575Y-64201285D01*
X115320095Y-64258853D01*
X115308310Y-64298988D01*
X115309303Y-64299359D01*
X115255908Y-64442517D01*
X115249972Y-64497737D01*
X115249501Y-64502123D01*
X115249500Y-64502135D01*
X115249500Y-65497870D01*
X115249501Y-65497876D01*
X115255908Y-65557483D01*
X115309303Y-65700641D01*
X115307575Y-65701285D01*
X115320095Y-65758853D01*
X115308310Y-65798988D01*
X115309303Y-65799359D01*
X115255908Y-65942517D01*
X115249728Y-66000003D01*
X115249501Y-66002123D01*
X115249500Y-66002135D01*
X115249500Y-66997870D01*
X115249501Y-66997876D01*
X115256738Y-67065196D01*
X115255155Y-67065366D01*
X115251899Y-67126109D01*
X115211032Y-67182781D01*
X115146014Y-67208362D01*
X115121079Y-67208076D01*
X115000004Y-67194435D01*
X114999996Y-67194435D01*
X114820750Y-67214630D01*
X114820745Y-67214631D01*
X114740983Y-67242542D01*
X114700028Y-67249500D01*
X113362229Y-67249500D01*
X113295190Y-67229815D01*
X113274548Y-67213181D01*
X112543538Y-66482171D01*
X111753305Y-65691937D01*
X111730656Y-65655864D01*
X111728812Y-65656753D01*
X111725792Y-65650483D01*
X111706638Y-65619999D01*
X111629816Y-65497738D01*
X111502262Y-65370184D01*
X111469183Y-65349399D01*
X111349523Y-65274211D01*
X111179254Y-65214631D01*
X111179249Y-65214630D01*
X111000004Y-65194435D01*
X110999996Y-65194435D01*
X110820750Y-65214630D01*
X110820745Y-65214631D01*
X110650476Y-65274211D01*
X110497737Y-65370184D01*
X110370184Y-65497737D01*
X110274211Y-65650476D01*
X110214631Y-65820745D01*
X110214630Y-65820750D01*
X110194435Y-65999996D01*
X110194435Y-66000003D01*
X110214630Y-66179249D01*
X110214631Y-66179254D01*
X110274211Y-66349523D01*
X110341861Y-66457187D01*
X110370184Y-66502262D01*
X110497738Y-66629816D01*
X110650478Y-66725789D01*
X110650483Y-66725792D01*
X110656753Y-66728812D01*
X110655864Y-66730656D01*
X110691937Y-66753305D01*
X111562288Y-67623655D01*
X112076452Y-68137819D01*
X112109937Y-68199142D01*
X112104953Y-68268834D01*
X112063081Y-68324767D01*
X111997617Y-68349184D01*
X111988771Y-68349500D01*
X100374500Y-68349500D01*
X100307461Y-68329815D01*
X100261706Y-68277011D01*
X100250500Y-68225500D01*
X100250499Y-67502129D01*
X100250498Y-67502123D01*
X100248353Y-67482171D01*
X100244091Y-67442517D01*
X100193796Y-67307669D01*
X100193794Y-67307666D01*
X100190696Y-67299360D01*
X100192426Y-67298714D01*
X100179902Y-67241163D01*
X100191691Y-67201011D01*
X100190696Y-67200640D01*
X100193794Y-67192333D01*
X100193796Y-67192331D01*
X100244091Y-67057483D01*
X100250500Y-66997873D01*
X100250499Y-66002128D01*
X100244091Y-65942517D01*
X100193796Y-65807669D01*
X100193794Y-65807666D01*
X100190935Y-65800000D01*
X104010000Y-65800000D01*
X104010000Y-66147844D01*
X104016401Y-66207372D01*
X104016403Y-66207379D01*
X104066645Y-66342086D01*
X104066649Y-66342093D01*
X104152809Y-66457187D01*
X104152812Y-66457190D01*
X104267906Y-66543350D01*
X104267913Y-66543354D01*
X104402620Y-66593596D01*
X104402627Y-66593598D01*
X104462155Y-66599999D01*
X104462172Y-66600000D01*
X104810000Y-66600000D01*
X104810000Y-65800000D01*
X105310000Y-65800000D01*
X105310000Y-66600000D01*
X105657828Y-66600000D01*
X105657844Y-66599999D01*
X105717377Y-66593597D01*
X105717378Y-66593597D01*
X105766665Y-66575214D01*
X105836356Y-66570228D01*
X105853335Y-66575214D01*
X105902621Y-66593597D01*
X105962155Y-66599999D01*
X105962172Y-66600000D01*
X106310000Y-66600000D01*
X106310000Y-65800000D01*
X106810000Y-65800000D01*
X106810000Y-66600000D01*
X107157828Y-66600000D01*
X107157844Y-66599999D01*
X107217377Y-66593597D01*
X107217378Y-66593597D01*
X107266665Y-66575214D01*
X107336356Y-66570228D01*
X107353335Y-66575214D01*
X107402621Y-66593597D01*
X107462155Y-66599999D01*
X107462172Y-66600000D01*
X107810000Y-66600000D01*
X107810000Y-65800000D01*
X108310000Y-65800000D01*
X108310000Y-66600000D01*
X108657828Y-66600000D01*
X108657844Y-66599999D01*
X108717372Y-66593598D01*
X108717379Y-66593596D01*
X108852086Y-66543354D01*
X108852093Y-66543350D01*
X108967187Y-66457190D01*
X108967190Y-66457187D01*
X109053350Y-66342093D01*
X109053354Y-66342086D01*
X109103596Y-66207379D01*
X109103598Y-66207372D01*
X109109999Y-66147844D01*
X109110000Y-66147827D01*
X109110000Y-65800000D01*
X108310000Y-65800000D01*
X107810000Y-65800000D01*
X106810000Y-65800000D01*
X106310000Y-65800000D01*
X105310000Y-65800000D01*
X104810000Y-65800000D01*
X104010000Y-65800000D01*
X100190935Y-65800000D01*
X100190696Y-65799360D01*
X100192426Y-65798714D01*
X100179902Y-65741163D01*
X100191691Y-65701011D01*
X100190696Y-65700640D01*
X100193794Y-65692333D01*
X100193796Y-65692331D01*
X100244091Y-65557483D01*
X100250500Y-65497873D01*
X100250499Y-64502128D01*
X100244091Y-64442517D01*
X100193796Y-64307669D01*
X100193794Y-64307666D01*
X100190935Y-64300000D01*
X104010000Y-64300000D01*
X104010000Y-64647844D01*
X104016401Y-64707372D01*
X104016403Y-64707380D01*
X104034786Y-64756667D01*
X104039770Y-64826359D01*
X104034786Y-64843333D01*
X104016403Y-64892619D01*
X104016401Y-64892627D01*
X104010000Y-64952155D01*
X104010000Y-65300000D01*
X104810000Y-65300000D01*
X104810000Y-64300000D01*
X105310000Y-64300000D01*
X105310000Y-65300000D01*
X106310000Y-65300000D01*
X106310000Y-64300000D01*
X106810000Y-64300000D01*
X106810000Y-65300000D01*
X107810000Y-65300000D01*
X107810000Y-64300000D01*
X108310000Y-64300000D01*
X108310000Y-65300000D01*
X109110000Y-65300000D01*
X109110000Y-64952172D01*
X109109999Y-64952155D01*
X109103597Y-64892622D01*
X109103597Y-64892621D01*
X109085214Y-64843335D01*
X109080228Y-64773644D01*
X109085214Y-64756665D01*
X109103597Y-64707378D01*
X109103597Y-64707377D01*
X109109999Y-64647844D01*
X109110000Y-64647827D01*
X109110000Y-64300000D01*
X108310000Y-64300000D01*
X107810000Y-64300000D01*
X106810000Y-64300000D01*
X106310000Y-64300000D01*
X105310000Y-64300000D01*
X104810000Y-64300000D01*
X104010000Y-64300000D01*
X100190935Y-64300000D01*
X100190696Y-64299360D01*
X100192426Y-64298714D01*
X100179902Y-64241163D01*
X100191691Y-64201011D01*
X100190696Y-64200640D01*
X100193794Y-64192333D01*
X100193796Y-64192331D01*
X100244091Y-64057483D01*
X100250500Y-63997873D01*
X100250499Y-63002128D01*
X100244091Y-62942517D01*
X100193796Y-62807669D01*
X100193794Y-62807666D01*
X100190935Y-62800000D01*
X104010000Y-62800000D01*
X104010000Y-63147844D01*
X104016401Y-63207372D01*
X104016403Y-63207380D01*
X104034786Y-63256667D01*
X104039770Y-63326359D01*
X104034786Y-63343333D01*
X104016403Y-63392619D01*
X104016401Y-63392627D01*
X104010000Y-63452155D01*
X104010000Y-63800000D01*
X104810000Y-63800000D01*
X104810000Y-62800000D01*
X105310000Y-62800000D01*
X105310000Y-63800000D01*
X106310000Y-63800000D01*
X106310000Y-62800000D01*
X106810000Y-62800000D01*
X106810000Y-63800000D01*
X107810000Y-63800000D01*
X107810000Y-62800000D01*
X108310000Y-62800000D01*
X108310000Y-63800000D01*
X109110000Y-63800000D01*
X109110000Y-63452172D01*
X109109999Y-63452155D01*
X109103597Y-63392622D01*
X109103597Y-63392621D01*
X109085214Y-63343335D01*
X109080228Y-63273644D01*
X109085214Y-63256665D01*
X109103597Y-63207378D01*
X109103597Y-63207377D01*
X109109999Y-63147844D01*
X109110000Y-63147827D01*
X109110000Y-62800000D01*
X108310000Y-62800000D01*
X107810000Y-62800000D01*
X106810000Y-62800000D01*
X106310000Y-62800000D01*
X105310000Y-62800000D01*
X104810000Y-62800000D01*
X104010000Y-62800000D01*
X100190935Y-62800000D01*
X100190696Y-62799360D01*
X100192426Y-62798714D01*
X100179902Y-62741163D01*
X100191691Y-62701011D01*
X100190696Y-62700640D01*
X100193794Y-62692333D01*
X100193796Y-62692331D01*
X100244091Y-62557483D01*
X100250500Y-62497873D01*
X100250500Y-62300000D01*
X104010000Y-62300000D01*
X104810000Y-62300000D01*
X104810000Y-61500000D01*
X104462155Y-61500000D01*
X104402627Y-61506401D01*
X104402620Y-61506403D01*
X104267913Y-61556645D01*
X104267906Y-61556649D01*
X104152812Y-61642809D01*
X104152809Y-61642812D01*
X104066649Y-61757906D01*
X104066645Y-61757913D01*
X104016403Y-61892620D01*
X104016401Y-61892627D01*
X104010000Y-61952155D01*
X104010000Y-62300000D01*
X100250500Y-62300000D01*
X100250499Y-61502128D01*
X100244091Y-61442517D01*
X100193796Y-61307669D01*
X100193794Y-61307666D01*
X100190696Y-61299360D01*
X100192426Y-61298714D01*
X100179902Y-61241163D01*
X100191691Y-61201011D01*
X100190696Y-61200640D01*
X100193794Y-61192333D01*
X100193796Y-61192331D01*
X100244091Y-61057483D01*
X100250500Y-60997873D01*
X100250499Y-60002128D01*
X100244091Y-59942517D01*
X100197585Y-59817829D01*
X100192602Y-59748142D01*
X100226086Y-59686819D01*
X100287410Y-59653334D01*
X100313768Y-59650500D01*
X104679192Y-59650500D01*
X104746231Y-59670185D01*
X104766873Y-59686819D01*
X106178277Y-61098223D01*
X106211762Y-61159546D01*
X106213815Y-61172012D01*
X106214630Y-61179246D01*
X106214632Y-61179255D01*
X106269145Y-61335046D01*
X106272706Y-61404825D01*
X106237977Y-61465452D01*
X106175983Y-61497679D01*
X106152103Y-61500000D01*
X105962155Y-61500000D01*
X105902627Y-61506401D01*
X105902619Y-61506403D01*
X105853333Y-61524786D01*
X105783641Y-61529770D01*
X105766667Y-61524786D01*
X105717380Y-61506403D01*
X105717372Y-61506401D01*
X105657844Y-61500000D01*
X105310000Y-61500000D01*
X105310000Y-62300000D01*
X107810000Y-62300000D01*
X107810000Y-61500000D01*
X108310000Y-61500000D01*
X108310000Y-62300000D01*
X109110000Y-62300000D01*
X109110000Y-61952172D01*
X109109999Y-61952155D01*
X109103598Y-61892627D01*
X109103596Y-61892620D01*
X109053354Y-61757913D01*
X109053350Y-61757906D01*
X108967190Y-61642812D01*
X108967187Y-61642809D01*
X108852093Y-61556649D01*
X108852086Y-61556645D01*
X108717379Y-61506403D01*
X108717372Y-61506401D01*
X108657844Y-61500000D01*
X108310000Y-61500000D01*
X107810000Y-61500000D01*
X107794246Y-61484246D01*
X107780858Y-61480315D01*
X107735103Y-61427511D01*
X107725159Y-61358353D01*
X107730855Y-61335046D01*
X107777885Y-61200640D01*
X107785368Y-61179255D01*
X107785369Y-61179246D01*
X107805565Y-61000003D01*
X107805565Y-60999996D01*
X107785369Y-60820750D01*
X107785368Y-60820745D01*
X107765163Y-60763002D01*
X107725789Y-60650478D01*
X107629816Y-60497738D01*
X107502262Y-60370184D01*
X107469344Y-60349500D01*
X107349521Y-60274210D01*
X107179255Y-60214632D01*
X107179246Y-60214630D01*
X107172012Y-60213815D01*
X107107600Y-60186744D01*
X107098223Y-60178277D01*
X105414674Y-58494727D01*
X105414673Y-58494726D01*
X105414669Y-58494723D01*
X105308127Y-58423535D01*
X105189744Y-58374499D01*
X105189738Y-58374497D01*
X105064071Y-58349500D01*
X105064069Y-58349500D01*
X102900559Y-58349500D01*
X102833520Y-58329815D01*
X102787765Y-58277011D01*
X102777821Y-58207853D01*
X102783517Y-58184546D01*
X102785367Y-58179257D01*
X102785368Y-58179255D01*
X102785369Y-58179249D01*
X102805565Y-58000003D01*
X102805565Y-57999996D01*
X102785369Y-57820750D01*
X102785368Y-57820745D01*
X102760613Y-57750000D01*
X102725789Y-57650478D01*
X102629816Y-57497738D01*
X102502262Y-57370184D01*
X102469344Y-57349500D01*
X102349523Y-57274211D01*
X102179254Y-57214631D01*
X102179249Y-57214630D01*
X102000004Y-57194435D01*
X101999996Y-57194435D01*
X101820750Y-57214630D01*
X101820745Y-57214631D01*
X101740983Y-57242542D01*
X101700028Y-57249500D01*
X100374499Y-57249500D01*
X100307460Y-57229815D01*
X100261705Y-57177011D01*
X100250499Y-57125500D01*
X100250499Y-57002129D01*
X100250498Y-57002123D01*
X100250497Y-57002116D01*
X100244091Y-56942517D01*
X100193796Y-56807669D01*
X100190697Y-56799359D01*
X100192266Y-56798773D01*
X100179616Y-56740630D01*
X100191314Y-56700793D01*
X100190253Y-56700398D01*
X100243597Y-56557376D01*
X100243598Y-56557372D01*
X100249999Y-56497844D01*
X100250000Y-56497827D01*
X100250000Y-56250000D01*
X98085086Y-56250000D01*
X98074908Y-56249500D01*
X98073918Y-56249500D01*
X95474499Y-56249500D01*
X95407460Y-56229815D01*
X95361705Y-56177011D01*
X95350499Y-56125500D01*
X95350499Y-56102129D01*
X95350498Y-56102123D01*
X95350497Y-56102116D01*
X95344091Y-56042517D01*
X95293796Y-55907669D01*
X95293795Y-55907668D01*
X95293793Y-55907664D01*
X95207547Y-55792455D01*
X95207544Y-55792452D01*
X95150836Y-55750000D01*
X97750000Y-55750000D01*
X98750000Y-55750000D01*
X98750000Y-55050000D01*
X99250000Y-55050000D01*
X99250000Y-55750000D01*
X100250000Y-55750000D01*
X115250000Y-55750000D01*
X116250000Y-55750000D01*
X116250000Y-55050000D01*
X116750000Y-55050000D01*
X116750000Y-55750000D01*
X117750000Y-55750000D01*
X117750000Y-55502172D01*
X117749999Y-55502155D01*
X117743598Y-55442627D01*
X117743596Y-55442620D01*
X117693354Y-55307913D01*
X117693350Y-55307906D01*
X117607190Y-55192812D01*
X117607187Y-55192809D01*
X117492093Y-55106649D01*
X117492086Y-55106645D01*
X117357379Y-55056403D01*
X117357372Y-55056401D01*
X117297844Y-55050000D01*
X116750000Y-55050000D01*
X116250000Y-55050000D01*
X115702155Y-55050000D01*
X115642627Y-55056401D01*
X115642620Y-55056403D01*
X115507913Y-55106645D01*
X115507906Y-55106649D01*
X115392812Y-55192809D01*
X115392809Y-55192812D01*
X115306649Y-55307906D01*
X115306645Y-55307913D01*
X115256403Y-55442620D01*
X115256401Y-55442627D01*
X115250000Y-55502155D01*
X115250000Y-55750000D01*
X100250000Y-55750000D01*
X100250000Y-55502172D01*
X100249999Y-55502155D01*
X100243598Y-55442627D01*
X100243596Y-55442620D01*
X100193354Y-55307913D01*
X100193350Y-55307906D01*
X100107190Y-55192812D01*
X100107187Y-55192809D01*
X99992093Y-55106649D01*
X99992086Y-55106645D01*
X99857379Y-55056403D01*
X99857372Y-55056401D01*
X99797844Y-55050000D01*
X99250000Y-55050000D01*
X98750000Y-55050000D01*
X98202155Y-55050000D01*
X98142627Y-55056401D01*
X98142620Y-55056403D01*
X98007913Y-55106645D01*
X98007906Y-55106649D01*
X97892812Y-55192809D01*
X97892809Y-55192812D01*
X97806649Y-55307906D01*
X97806645Y-55307913D01*
X97756403Y-55442620D01*
X97756401Y-55442627D01*
X97750000Y-55502155D01*
X97750000Y-55750000D01*
X95150836Y-55750000D01*
X95092335Y-55706206D01*
X95092328Y-55706202D01*
X94957482Y-55655908D01*
X94957483Y-55655908D01*
X94897883Y-55649501D01*
X94897881Y-55649500D01*
X94897873Y-55649500D01*
X94897864Y-55649500D01*
X93102129Y-55649500D01*
X93102123Y-55649501D01*
X93042516Y-55655908D01*
X92907671Y-55706202D01*
X92907664Y-55706206D01*
X92792455Y-55792452D01*
X92792452Y-55792455D01*
X92706206Y-55907664D01*
X92706202Y-55907671D01*
X92655908Y-56042517D01*
X92649501Y-56102116D01*
X92649501Y-56102123D01*
X92649500Y-56102135D01*
X92649500Y-57237769D01*
X92629815Y-57304808D01*
X92613181Y-57325450D01*
X91417045Y-58521586D01*
X91380381Y-58576462D01*
X91380379Y-58576465D01*
X91334919Y-58644499D01*
X91334912Y-58644511D01*
X91278343Y-58781082D01*
X91278340Y-58781092D01*
X91249500Y-58926079D01*
X91249500Y-58926082D01*
X91249500Y-81134579D01*
X91249500Y-81134581D01*
X91249499Y-81134581D01*
X91278340Y-81279568D01*
X91278343Y-81279578D01*
X91334913Y-81416151D01*
X91334914Y-81416153D01*
X91364212Y-81460000D01*
X91364213Y-81460002D01*
X91417043Y-81539071D01*
X91417047Y-81539076D01*
X92213181Y-82335209D01*
X92246666Y-82396532D01*
X92249500Y-82422890D01*
X92249500Y-82542273D01*
X92229815Y-82609312D01*
X92177011Y-82655067D01*
X92172953Y-82656834D01*
X92132635Y-82673533D01*
X92026087Y-82744726D01*
X92026086Y-82744727D01*
X91212181Y-83558633D01*
X91150858Y-83592118D01*
X91081166Y-83587134D01*
X91025233Y-83545262D01*
X91000816Y-83479798D01*
X91000500Y-83470952D01*
X91000500Y-51805418D01*
X91020185Y-51738379D01*
X91072989Y-51692624D01*
X91142147Y-51682680D01*
X91205703Y-51711705D01*
X91240680Y-51762082D01*
X91253866Y-51797433D01*
X91253868Y-51797438D01*
X91385122Y-52037811D01*
X91385127Y-52037819D01*
X91549252Y-52257066D01*
X91549268Y-52257084D01*
X91742915Y-52450731D01*
X91742933Y-52450747D01*
X91962180Y-52614872D01*
X91962188Y-52614877D01*
X92202561Y-52746131D01*
X92202560Y-52746131D01*
X92202564Y-52746132D01*
X92202567Y-52746134D01*
X92459185Y-52841848D01*
X92726812Y-52900066D01*
X92980460Y-52918207D01*
X92999999Y-52919605D01*
X93000000Y-52919605D01*
X93000001Y-52919605D01*
X93018235Y-52918300D01*
X93273188Y-52900066D01*
X93540815Y-52841848D01*
X93797433Y-52746134D01*
X94037817Y-52614874D01*
X94257074Y-52450741D01*
X94450741Y-52257074D01*
X94614874Y-52037817D01*
X94746134Y-51797433D01*
X94841848Y-51540815D01*
X94900066Y-51273188D01*
X94919605Y-51000000D01*
X94900066Y-50726812D01*
X94841848Y-50459185D01*
X94746134Y-50202567D01*
X94741773Y-50194581D01*
X94614877Y-49962188D01*
X94614872Y-49962180D01*
X94450747Y-49742933D01*
X94450731Y-49742915D01*
X94257084Y-49549268D01*
X94257066Y-49549252D01*
X94037819Y-49385127D01*
X94037811Y-49385122D01*
X93797438Y-49253868D01*
X93797439Y-49253868D01*
X93747468Y-49235230D01*
X93540815Y-49158152D01*
X93540808Y-49158150D01*
X93540807Y-49158150D01*
X93273195Y-49099935D01*
X93273188Y-49099934D01*
X93000001Y-49080395D01*
X92999999Y-49080395D01*
X92726811Y-49099934D01*
X92726804Y-49099935D01*
X92459192Y-49158150D01*
X92459188Y-49158151D01*
X92459185Y-49158152D01*
X92274489Y-49227040D01*
X92202561Y-49253868D01*
X91962188Y-49385122D01*
X91962180Y-49385127D01*
X91742933Y-49549252D01*
X91742915Y-49549268D01*
X91549268Y-49742915D01*
X91549252Y-49742933D01*
X91385127Y-49962180D01*
X91385122Y-49962188D01*
X91253868Y-50202561D01*
X91253865Y-50202568D01*
X91240681Y-50237916D01*
X91198810Y-50293849D01*
X91133345Y-50318265D01*
X91065072Y-50303413D01*
X91015667Y-50254007D01*
X91000500Y-50194581D01*
X91000500Y-48624500D01*
X91020185Y-48557461D01*
X91072989Y-48511706D01*
X91124500Y-48500500D01*
X98626000Y-48500500D01*
X98693039Y-48520185D01*
G37*
%TD.AperFunction*%
%TA.AperFunction,Conductor*%
G36*
X117893833Y-101330708D02*
G01*
X117949767Y-101372580D01*
X117974184Y-101438044D01*
X117974500Y-101446890D01*
X117974500Y-102700001D01*
X117974501Y-102700018D01*
X117985000Y-102802796D01*
X117985001Y-102802799D01*
X118022590Y-102916233D01*
X118040186Y-102969334D01*
X118132096Y-103118345D01*
X118132289Y-103118657D01*
X118188451Y-103174819D01*
X118221936Y-103236142D01*
X118216952Y-103305834D01*
X118188451Y-103350181D01*
X117950450Y-103588181D01*
X117889127Y-103621666D01*
X117862769Y-103624500D01*
X117174998Y-103624500D01*
X117174980Y-103624501D01*
X117072203Y-103635000D01*
X117072200Y-103635001D01*
X116905668Y-103690185D01*
X116905663Y-103690187D01*
X116756342Y-103782289D01*
X116632289Y-103906342D01*
X116540187Y-104055663D01*
X116540186Y-104055666D01*
X116485001Y-104222203D01*
X116485001Y-104222204D01*
X116485000Y-104222204D01*
X116474500Y-104324983D01*
X116474500Y-105675001D01*
X116474501Y-105675018D01*
X116485000Y-105777796D01*
X116485001Y-105777799D01*
X116540185Y-105944331D01*
X116540187Y-105944336D01*
X116632289Y-106093657D01*
X116756345Y-106217713D01*
X116790594Y-106238837D01*
X116837320Y-106290784D01*
X116849500Y-106344377D01*
X116849500Y-106655621D01*
X116829815Y-106722660D01*
X116790599Y-106761158D01*
X116756346Y-106782285D01*
X116632289Y-106906342D01*
X116540187Y-107055663D01*
X116540185Y-107055668D01*
X116513592Y-107135920D01*
X116485001Y-107222203D01*
X116485001Y-107222204D01*
X116485000Y-107222204D01*
X116474500Y-107324983D01*
X116474500Y-108675001D01*
X116474501Y-108675018D01*
X116485000Y-108777796D01*
X116485001Y-108777799D01*
X116534446Y-108927011D01*
X116540186Y-108944334D01*
X116632288Y-109093656D01*
X116756344Y-109217712D01*
X116905666Y-109309814D01*
X117072203Y-109364999D01*
X117174991Y-109375500D01*
X117933480Y-109375499D01*
X118000519Y-109395183D01*
X118021161Y-109411818D01*
X118088181Y-109478838D01*
X118121666Y-109540161D01*
X118124500Y-109566519D01*
X118124500Y-110859480D01*
X118104815Y-110926519D01*
X118052011Y-110972274D01*
X117982853Y-110982218D01*
X117919297Y-110953193D01*
X117912819Y-110947161D01*
X115421545Y-108455887D01*
X115306807Y-108379222D01*
X115179332Y-108326421D01*
X115179322Y-108326418D01*
X115043996Y-108299500D01*
X115043994Y-108299500D01*
X115043993Y-108299500D01*
X114520103Y-108299500D01*
X114453064Y-108279815D01*
X114451211Y-108278601D01*
X114402871Y-108246300D01*
X114402856Y-108246292D01*
X114248083Y-108182184D01*
X114248074Y-108182181D01*
X114083771Y-108149500D01*
X114083767Y-108149500D01*
X113916234Y-108149500D01*
X113916229Y-108149500D01*
X113751926Y-108182181D01*
X113751917Y-108182184D01*
X113597139Y-108246294D01*
X113597136Y-108246296D01*
X113457842Y-108339369D01*
X113453128Y-108343238D01*
X113452308Y-108342239D01*
X113396842Y-108372518D01*
X113327151Y-108367524D01*
X113271223Y-108325646D01*
X113246814Y-108260178D01*
X113246499Y-108251372D01*
X113246499Y-106651979D01*
X113266184Y-106584941D01*
X113318988Y-106539186D01*
X113355706Y-106528866D01*
X113387652Y-106525030D01*
X113526384Y-106470321D01*
X113645212Y-106380212D01*
X113735321Y-106261384D01*
X113790030Y-106122652D01*
X113800500Y-106035468D01*
X113800500Y-105364551D01*
X113809939Y-105317098D01*
X113817816Y-105298082D01*
X113850500Y-105133767D01*
X113850500Y-102916233D01*
X113817816Y-102751918D01*
X113784692Y-102671952D01*
X113777224Y-102602484D01*
X113808499Y-102540004D01*
X113868588Y-102504352D01*
X113899254Y-102500500D01*
X116384581Y-102500500D01*
X116482123Y-102481096D01*
X116529574Y-102471658D01*
X116666156Y-102415084D01*
X116751077Y-102358342D01*
X116789077Y-102332952D01*
X117762819Y-101359208D01*
X117824142Y-101325724D01*
X117893833Y-101330708D01*
G37*
%TD.AperFunction*%
%TA.AperFunction,Conductor*%
G36*
X96534075Y-105427007D02*
G01*
X96500000Y-105554174D01*
X96500000Y-105685826D01*
X96534075Y-105812993D01*
X96566988Y-105870000D01*
X94893012Y-105870000D01*
X94925925Y-105812993D01*
X94960000Y-105685826D01*
X94960000Y-105554174D01*
X94925925Y-105427007D01*
X94893012Y-105370000D01*
X96566988Y-105370000D01*
X96534075Y-105427007D01*
G37*
%TD.AperFunction*%
%TA.AperFunction,Conductor*%
G36*
X103534075Y-105427007D02*
G01*
X103500000Y-105554174D01*
X103500000Y-105685826D01*
X103534075Y-105812993D01*
X103566988Y-105870000D01*
X101893012Y-105870000D01*
X101925925Y-105812993D01*
X101960000Y-105685826D01*
X101960000Y-105554174D01*
X101925925Y-105427007D01*
X101893012Y-105370000D01*
X103566988Y-105370000D01*
X103534075Y-105427007D01*
G37*
%TD.AperFunction*%
%TA.AperFunction,Conductor*%
G36*
X107109987Y-101615917D02*
G01*
X107235605Y-101665456D01*
X107319246Y-101675500D01*
X107657770Y-101675500D01*
X107724809Y-101695185D01*
X107745451Y-101711819D01*
X108366586Y-102332954D01*
X108391917Y-102349878D01*
X108404584Y-102358342D01*
X108489505Y-102415084D01*
X108626087Y-102471658D01*
X108626091Y-102471658D01*
X108626092Y-102471659D01*
X108771079Y-102500500D01*
X108771082Y-102500500D01*
X108771083Y-102500500D01*
X108918918Y-102500500D01*
X110151928Y-102500500D01*
X110218967Y-102520185D01*
X110264722Y-102572989D01*
X110274666Y-102642147D01*
X110268970Y-102665454D01*
X110214632Y-102820742D01*
X110214630Y-102820750D01*
X110194435Y-102999996D01*
X110194435Y-103000003D01*
X110214630Y-103179249D01*
X110214631Y-103179254D01*
X110274211Y-103349523D01*
X110289923Y-103374528D01*
X110308923Y-103441765D01*
X110288555Y-103508600D01*
X110235287Y-103553814D01*
X110184929Y-103564500D01*
X110159531Y-103564500D01*
X110072350Y-103574969D01*
X110072342Y-103574971D01*
X109933619Y-103629677D01*
X109933614Y-103629680D01*
X109899923Y-103655228D01*
X109834611Y-103680050D01*
X109766248Y-103665621D01*
X109750077Y-103655228D01*
X109716385Y-103629680D01*
X109716386Y-103629680D01*
X109716384Y-103629679D01*
X109716382Y-103629678D01*
X109716380Y-103629677D01*
X109577657Y-103574971D01*
X109577649Y-103574969D01*
X109490469Y-103564500D01*
X109490468Y-103564500D01*
X108889532Y-103564500D01*
X108840237Y-103570419D01*
X108771331Y-103558868D01*
X108737774Y-103534985D01*
X107542165Y-102339375D01*
X107542161Y-102339372D01*
X107402866Y-102246297D01*
X107402863Y-102246296D01*
X107248082Y-102182184D01*
X107248073Y-102182181D01*
X107083771Y-102149500D01*
X107083767Y-102149500D01*
X107064500Y-102149500D01*
X106997461Y-102129815D01*
X106951706Y-102077011D01*
X106940500Y-102025500D01*
X106940500Y-101731273D01*
X106960185Y-101664234D01*
X107012989Y-101618479D01*
X107082147Y-101608535D01*
X107109987Y-101615917D01*
G37*
%TD.AperFunction*%
%TA.AperFunction,Conductor*%
G36*
X112856334Y-91382546D02*
G01*
X112912267Y-91424418D01*
X112936684Y-91489882D01*
X112937000Y-91498728D01*
X112937000Y-92675001D01*
X112937001Y-92675018D01*
X112947500Y-92777796D01*
X112947501Y-92777799D01*
X113002685Y-92944331D01*
X113002687Y-92944336D01*
X113037569Y-93000888D01*
X113094788Y-93093656D01*
X113218844Y-93217712D01*
X113368166Y-93309814D01*
X113534703Y-93364999D01*
X113613103Y-93373008D01*
X113677794Y-93399404D01*
X113717945Y-93456584D01*
X113724500Y-93496366D01*
X113724500Y-93663132D01*
X113704815Y-93730171D01*
X113685616Y-93751346D01*
X113686451Y-93752181D01*
X113557289Y-93881342D01*
X113465187Y-94030663D01*
X113465186Y-94030666D01*
X113410001Y-94197203D01*
X113410001Y-94197204D01*
X113410000Y-94197204D01*
X113399500Y-94299983D01*
X113399500Y-95700001D01*
X113399501Y-95700018D01*
X113410000Y-95802796D01*
X113410001Y-95802799D01*
X113465185Y-95969331D01*
X113465187Y-95969336D01*
X113484098Y-95999996D01*
X113557288Y-96118656D01*
X113681344Y-96242712D01*
X113734913Y-96275754D01*
X113781637Y-96327701D01*
X113784377Y-96333839D01*
X113809915Y-96395493D01*
X113835997Y-96434529D01*
X113892049Y-96518418D01*
X113892052Y-96518421D01*
X115906584Y-98532952D01*
X115906586Y-98532954D01*
X115932056Y-98549971D01*
X115970265Y-98575501D01*
X116029505Y-98615084D01*
X116029507Y-98615085D01*
X116029511Y-98615087D01*
X116166082Y-98671656D01*
X116166087Y-98671658D01*
X116166091Y-98671658D01*
X116166092Y-98671659D01*
X116311079Y-98700500D01*
X116311082Y-98700500D01*
X116311083Y-98700500D01*
X116458917Y-98700500D01*
X116651677Y-98700500D01*
X116695010Y-98708318D01*
X116777517Y-98739091D01*
X116777516Y-98739091D01*
X116784444Y-98739835D01*
X116837127Y-98745500D01*
X118142872Y-98745499D01*
X118202483Y-98739091D01*
X118337331Y-98688796D01*
X118345615Y-98682594D01*
X118356118Y-98674733D01*
X118421582Y-98650316D01*
X118430428Y-98650000D01*
X118595000Y-98650000D01*
X118595000Y-98557172D01*
X118594999Y-98557155D01*
X118588597Y-98497622D01*
X118588597Y-98497620D01*
X118577940Y-98469048D01*
X118572954Y-98399356D01*
X118577936Y-98382389D01*
X118589091Y-98352483D01*
X118595500Y-98292873D01*
X118595499Y-97607128D01*
X118589091Y-97547517D01*
X118578205Y-97518333D01*
X118573220Y-97448644D01*
X118578201Y-97431678D01*
X118589091Y-97402483D01*
X118595500Y-97342873D01*
X118595499Y-96956227D01*
X118615183Y-96889190D01*
X118667987Y-96843435D01*
X118737146Y-96833491D01*
X118800701Y-96862516D01*
X118807180Y-96868548D01*
X118858181Y-96919549D01*
X118891666Y-96980872D01*
X118894500Y-97007230D01*
X118894500Y-97342869D01*
X118894501Y-97342876D01*
X118900908Y-97402482D01*
X118911794Y-97431669D01*
X118916777Y-97501361D01*
X118911794Y-97518331D01*
X118900910Y-97547513D01*
X118900909Y-97547517D01*
X118894500Y-97607127D01*
X118894500Y-97607134D01*
X118894500Y-97607135D01*
X118894500Y-98292870D01*
X118894501Y-98292876D01*
X118900908Y-98352482D01*
X118911794Y-98381669D01*
X118916777Y-98451361D01*
X118911794Y-98468331D01*
X118900910Y-98497513D01*
X118900909Y-98497517D01*
X118894500Y-98557127D01*
X118894500Y-98897876D01*
X118894501Y-99125500D01*
X118874817Y-99192539D01*
X118822013Y-99238294D01*
X118770501Y-99249500D01*
X118719000Y-99249500D01*
X118651961Y-99229815D01*
X118606206Y-99177011D01*
X118601811Y-99156811D01*
X118595000Y-99150000D01*
X116385000Y-99150000D01*
X116385000Y-99242844D01*
X116391401Y-99302372D01*
X116391403Y-99302379D01*
X116441645Y-99437086D01*
X116441649Y-99437093D01*
X116527809Y-99552187D01*
X116527812Y-99552190D01*
X116642906Y-99638350D01*
X116642913Y-99638354D01*
X116777620Y-99688596D01*
X116777627Y-99688598D01*
X116837155Y-99694999D01*
X116837172Y-99695000D01*
X117004931Y-99695000D01*
X117071970Y-99714685D01*
X117117725Y-99767489D01*
X117127669Y-99836647D01*
X117098644Y-99900203D01*
X117092618Y-99906674D01*
X116978687Y-100020605D01*
X116650084Y-100349207D01*
X116588761Y-100382692D01*
X116519069Y-100377708D01*
X116496431Y-100366520D01*
X116349523Y-100274211D01*
X116179254Y-100214631D01*
X116179249Y-100214630D01*
X116000004Y-100194435D01*
X115999996Y-100194435D01*
X115820750Y-100214630D01*
X115820745Y-100214631D01*
X115740983Y-100242542D01*
X115700028Y-100249500D01*
X115284000Y-100249500D01*
X115216961Y-100229815D01*
X115171206Y-100177011D01*
X115160000Y-100125500D01*
X115160000Y-100104288D01*
X115149251Y-100014786D01*
X115149251Y-99985214D01*
X115160000Y-99895711D01*
X115160000Y-99875000D01*
X114986627Y-99875000D01*
X114919588Y-99855315D01*
X114873833Y-99802511D01*
X114863889Y-99733353D01*
X114892914Y-99669797D01*
X114911702Y-99652196D01*
X114929373Y-99638796D01*
X115011510Y-99576510D01*
X115034136Y-99546673D01*
X115051273Y-99524075D01*
X115107465Y-99482552D01*
X115150077Y-99475000D01*
X115160000Y-99475000D01*
X115160000Y-99454287D01*
X115149503Y-99366881D01*
X115151658Y-99337549D01*
X115149508Y-99337291D01*
X115154731Y-99293793D01*
X115160500Y-99245754D01*
X115160500Y-98804246D01*
X115150456Y-98720605D01*
X115122613Y-98650000D01*
X115097966Y-98587501D01*
X115097965Y-98587499D01*
X115088864Y-98575498D01*
X115011510Y-98473490D01*
X114897501Y-98387035D01*
X114897500Y-98387034D01*
X114897498Y-98387033D01*
X114764396Y-98334544D01*
X114750454Y-98332870D01*
X114680754Y-98324500D01*
X113079246Y-98324500D01*
X113019502Y-98331674D01*
X112995603Y-98334544D01*
X112862501Y-98387033D01*
X112862499Y-98387034D01*
X112748490Y-98473490D01*
X112662034Y-98587499D01*
X112662033Y-98587501D01*
X112609544Y-98720603D01*
X112609544Y-98720605D01*
X112599500Y-98804246D01*
X112599500Y-99245754D01*
X112609544Y-99329395D01*
X112610492Y-99337289D01*
X112608652Y-99337509D01*
X112610497Y-99366875D01*
X112600000Y-99454293D01*
X112600000Y-99475000D01*
X112609923Y-99475000D01*
X112676962Y-99494685D01*
X112708727Y-99524075D01*
X112730318Y-99552547D01*
X112748490Y-99576510D01*
X112830624Y-99638794D01*
X112848298Y-99652196D01*
X112889821Y-99708388D01*
X112894373Y-99778109D01*
X112860508Y-99839224D01*
X112798979Y-99872327D01*
X112773373Y-99875000D01*
X112600000Y-99875000D01*
X112600000Y-99895706D01*
X112610748Y-99985217D01*
X112610748Y-100014783D01*
X112600000Y-100104293D01*
X112600000Y-100125000D01*
X112773373Y-100125000D01*
X112840412Y-100144685D01*
X112886167Y-100197489D01*
X112896111Y-100266647D01*
X112867086Y-100330203D01*
X112848298Y-100347804D01*
X112748490Y-100423489D01*
X112748486Y-100423494D01*
X112708727Y-100475925D01*
X112652535Y-100517448D01*
X112609923Y-100525000D01*
X112600000Y-100525000D01*
X112600000Y-100545705D01*
X112610497Y-100633123D01*
X112608816Y-100662509D01*
X112610492Y-100662711D01*
X112609544Y-100670604D01*
X112609544Y-100670605D01*
X112599500Y-100754246D01*
X112599500Y-100754251D01*
X112599500Y-100875500D01*
X112579815Y-100942539D01*
X112527011Y-100988294D01*
X112475500Y-100999500D01*
X109524500Y-100999500D01*
X109457461Y-100979815D01*
X109411706Y-100927011D01*
X109400500Y-100875500D01*
X109400500Y-100754251D01*
X109400500Y-100754246D01*
X109390456Y-100670605D01*
X109389757Y-100664783D01*
X109389757Y-100635217D01*
X109396033Y-100582951D01*
X109400500Y-100545754D01*
X109400500Y-100104246D01*
X109390456Y-100020605D01*
X109389757Y-100014783D01*
X109389757Y-99985217D01*
X109391429Y-99971291D01*
X109400500Y-99895754D01*
X109400500Y-99454246D01*
X109391702Y-99380989D01*
X109389757Y-99364783D01*
X109389757Y-99335217D01*
X109394731Y-99293793D01*
X109400500Y-99245754D01*
X109400500Y-98804246D01*
X109390456Y-98720605D01*
X109362613Y-98650000D01*
X109337966Y-98587501D01*
X109337965Y-98587499D01*
X109328864Y-98575498D01*
X109251510Y-98473490D01*
X109137501Y-98387035D01*
X109137500Y-98387034D01*
X109137498Y-98387033D01*
X109004396Y-98334544D01*
X108990454Y-98332870D01*
X108920754Y-98324500D01*
X108920749Y-98324500D01*
X107764500Y-98324500D01*
X107697461Y-98304815D01*
X107651706Y-98252011D01*
X107640500Y-98200500D01*
X107640500Y-96474499D01*
X107660185Y-96407460D01*
X107712989Y-96361705D01*
X107764500Y-96350499D01*
X108897871Y-96350499D01*
X108897872Y-96350499D01*
X108957483Y-96344091D01*
X109092331Y-96293796D01*
X109207546Y-96207546D01*
X109293796Y-96092331D01*
X109344091Y-95957483D01*
X109350500Y-95897873D01*
X109350500Y-95874500D01*
X109370185Y-95807461D01*
X109422989Y-95761706D01*
X109474500Y-95750500D01*
X110353130Y-95750500D01*
X110420169Y-95770185D01*
X110465924Y-95822989D01*
X110470836Y-95835495D01*
X110507086Y-95944891D01*
X110515186Y-95969333D01*
X110515187Y-95969336D01*
X110534098Y-95999996D01*
X110607288Y-96118656D01*
X110731344Y-96242712D01*
X110880666Y-96334814D01*
X111047203Y-96389999D01*
X111149991Y-96400500D01*
X111900008Y-96400499D01*
X111900016Y-96400498D01*
X111900019Y-96400498D01*
X111956302Y-96394748D01*
X112002797Y-96389999D01*
X112169334Y-96334814D01*
X112318656Y-96242712D01*
X112442712Y-96118656D01*
X112534814Y-95969334D01*
X112589999Y-95802797D01*
X112600500Y-95700009D01*
X112600499Y-94299992D01*
X112589999Y-94197203D01*
X112534814Y-94030666D01*
X112442712Y-93881344D01*
X112318656Y-93757288D01*
X112169334Y-93665186D01*
X112002797Y-93610001D01*
X112002795Y-93610000D01*
X111900016Y-93599500D01*
X111601043Y-93599500D01*
X111534004Y-93579815D01*
X111488249Y-93527011D01*
X111478305Y-93457853D01*
X111507330Y-93394297D01*
X111562037Y-93357794D01*
X111706834Y-93309814D01*
X111856156Y-93217712D01*
X111980212Y-93093656D01*
X112072314Y-92944334D01*
X112127499Y-92777797D01*
X112138000Y-92675009D01*
X112137999Y-92049728D01*
X112157683Y-91982690D01*
X112174313Y-91962053D01*
X112725321Y-91411045D01*
X112786642Y-91377562D01*
X112856334Y-91382546D01*
G37*
%TD.AperFunction*%
%TA.AperFunction,Conductor*%
G36*
X114023039Y-99745185D02*
G01*
X114068794Y-99797989D01*
X114080000Y-99849500D01*
X114080000Y-100100500D01*
X114060315Y-100167539D01*
X114007511Y-100213294D01*
X113956000Y-100224500D01*
X113804000Y-100224500D01*
X113736961Y-100204815D01*
X113691206Y-100152011D01*
X113680000Y-100100500D01*
X113680000Y-99849500D01*
X113699685Y-99782461D01*
X113752489Y-99736706D01*
X113804000Y-99725500D01*
X113956000Y-99725500D01*
X114023039Y-99745185D01*
G37*
%TD.AperFunction*%
%TA.AperFunction,Conductor*%
G36*
X104731850Y-87095184D02*
G01*
X104777605Y-87147988D01*
X104787549Y-87217146D01*
X104758524Y-87280702D01*
X104752492Y-87287180D01*
X104744727Y-87294944D01*
X104744721Y-87294951D01*
X104704268Y-87355494D01*
X104704269Y-87355495D01*
X104673534Y-87401493D01*
X104624499Y-87519874D01*
X104624497Y-87519880D01*
X104599500Y-87645547D01*
X104599500Y-87751000D01*
X104579815Y-87818039D01*
X104527011Y-87863794D01*
X104475500Y-87875000D01*
X104250000Y-87875000D01*
X104250000Y-90024999D01*
X104475500Y-90024999D01*
X104542539Y-90044684D01*
X104588294Y-90097488D01*
X104599500Y-90148999D01*
X104599500Y-93390341D01*
X104579815Y-93457380D01*
X104527011Y-93503135D01*
X104457853Y-93513079D01*
X104394297Y-93484054D01*
X104357569Y-93428659D01*
X104346549Y-93394744D01*
X104314274Y-93331401D01*
X104242717Y-93190962D01*
X104108286Y-93005934D01*
X103946566Y-92844214D01*
X103761538Y-92709783D01*
X103693288Y-92675008D01*
X103557755Y-92605950D01*
X103340248Y-92535278D01*
X103154812Y-92505908D01*
X103114354Y-92499500D01*
X102885646Y-92499500D01*
X102845188Y-92505908D01*
X102659753Y-92535278D01*
X102659750Y-92535278D01*
X102442244Y-92605950D01*
X102238461Y-92709783D01*
X102172550Y-92757671D01*
X102053434Y-92844214D01*
X102053432Y-92844216D01*
X102053431Y-92844216D01*
X101891715Y-93005932D01*
X101830318Y-93090438D01*
X101774987Y-93133103D01*
X101705374Y-93139082D01*
X101643579Y-93106476D01*
X101629682Y-93090438D01*
X101578352Y-93019789D01*
X101568286Y-93005934D01*
X101406566Y-92844214D01*
X101221538Y-92709783D01*
X101153288Y-92675008D01*
X101017755Y-92605950D01*
X100800247Y-92535278D01*
X100598123Y-92503264D01*
X100534988Y-92473335D01*
X100529840Y-92468472D01*
X99636819Y-91575451D01*
X99603334Y-91514128D01*
X99600500Y-91487770D01*
X99600500Y-89573999D01*
X99620185Y-89506960D01*
X99672989Y-89461205D01*
X99693188Y-89456810D01*
X99700000Y-89449999D01*
X99700000Y-88750000D01*
X100200000Y-88750000D01*
X100200000Y-89449999D01*
X100423308Y-89449999D01*
X100423322Y-89449998D01*
X100522607Y-89439855D01*
X100683481Y-89386547D01*
X100683492Y-89386542D01*
X100827728Y-89297575D01*
X100827732Y-89297572D01*
X100925304Y-89200000D01*
X102600001Y-89200000D01*
X102600001Y-89324986D01*
X102610494Y-89427697D01*
X102665641Y-89594119D01*
X102665643Y-89594124D01*
X102757684Y-89743345D01*
X102881654Y-89867315D01*
X103030875Y-89959356D01*
X103030880Y-89959358D01*
X103197302Y-90014505D01*
X103197309Y-90014506D01*
X103300019Y-90024999D01*
X103749999Y-90024999D01*
X103750000Y-90024998D01*
X103750000Y-89200000D01*
X102600001Y-89200000D01*
X100925304Y-89200000D01*
X100947572Y-89177732D01*
X100947575Y-89177728D01*
X101036542Y-89033492D01*
X101036547Y-89033481D01*
X101089855Y-88872606D01*
X101099999Y-88773322D01*
X101100000Y-88773309D01*
X101100000Y-88750000D01*
X100200000Y-88750000D01*
X99700000Y-88750000D01*
X99700000Y-88374000D01*
X99719685Y-88306961D01*
X99772489Y-88261206D01*
X99824000Y-88250000D01*
X101099999Y-88250000D01*
X101099999Y-88226692D01*
X101099998Y-88226677D01*
X101089855Y-88127392D01*
X101036547Y-87966518D01*
X101036544Y-87966512D01*
X101019943Y-87939598D01*
X101001502Y-87872206D01*
X101022423Y-87805542D01*
X101076065Y-87760772D01*
X101125481Y-87750500D01*
X102901909Y-87750500D01*
X102968948Y-87770185D01*
X103014703Y-87822989D01*
X103024647Y-87892147D01*
X102995622Y-87955703D01*
X102967006Y-87980039D01*
X102881654Y-88032684D01*
X102757684Y-88156654D01*
X102665643Y-88305875D01*
X102665641Y-88305880D01*
X102610494Y-88472302D01*
X102610493Y-88472309D01*
X102600000Y-88575013D01*
X102600000Y-88700000D01*
X103750000Y-88700000D01*
X103750000Y-87875000D01*
X103450106Y-87875000D01*
X103383067Y-87855315D01*
X103337312Y-87802511D01*
X103327368Y-87733353D01*
X103356393Y-87669797D01*
X103381212Y-87647900D01*
X103414735Y-87625501D01*
X103478416Y-87582952D01*
X103949549Y-87111817D01*
X104010872Y-87078333D01*
X104037230Y-87075499D01*
X104664811Y-87075499D01*
X104731850Y-87095184D01*
G37*
%TD.AperFunction*%
%TA.AperFunction,Conductor*%
G36*
X107193039Y-88719685D02*
G01*
X107238794Y-88772489D01*
X107250000Y-88824000D01*
X107250000Y-90024999D01*
X107518635Y-90024999D01*
X107585674Y-90044684D01*
X107631429Y-90097488D01*
X107641373Y-90166646D01*
X107612348Y-90230202D01*
X107606316Y-90236680D01*
X106112181Y-91730815D01*
X106050858Y-91764300D01*
X105981166Y-91759316D01*
X105925233Y-91717444D01*
X105900816Y-91651980D01*
X105900500Y-91643134D01*
X105900500Y-90087874D01*
X105920185Y-90020835D01*
X105972989Y-89975080D01*
X106042147Y-89965136D01*
X106063504Y-89970168D01*
X106197302Y-90014505D01*
X106197309Y-90014506D01*
X106300019Y-90024999D01*
X106749999Y-90024999D01*
X106750000Y-90024998D01*
X106750000Y-88824000D01*
X106769685Y-88756961D01*
X106822489Y-88711206D01*
X106874000Y-88700000D01*
X107126000Y-88700000D01*
X107193039Y-88719685D01*
G37*
%TD.AperFunction*%
%TA.AperFunction,Conductor*%
G36*
X95209320Y-85033948D02*
G01*
X95249397Y-85060765D01*
X95725218Y-85536587D01*
X95758703Y-85597910D01*
X95753719Y-85667602D01*
X95711847Y-85723535D01*
X95704579Y-85728582D01*
X95668969Y-85751467D01*
X95668965Y-85751471D01*
X95574750Y-85860200D01*
X95574744Y-85860210D01*
X95538213Y-85940201D01*
X95492458Y-85993005D01*
X95425418Y-86012689D01*
X95358379Y-85993004D01*
X95337738Y-85976370D01*
X95136818Y-85775450D01*
X95103333Y-85714127D01*
X95100499Y-85687769D01*
X95100499Y-85426662D01*
X95100498Y-85426644D01*
X95090349Y-85327292D01*
X95090348Y-85327289D01*
X95079102Y-85293350D01*
X95044009Y-85187448D01*
X95041608Y-85117622D01*
X95077340Y-85057580D01*
X95139860Y-85026387D01*
X95209320Y-85033948D01*
G37*
%TD.AperFunction*%
%TA.AperFunction,Conductor*%
G36*
X95492810Y-79422400D02*
G01*
X95526310Y-79446256D01*
X97163181Y-81083127D01*
X97196666Y-81144450D01*
X97199500Y-81170808D01*
X97199500Y-82621176D01*
X97203150Y-82639523D01*
X97218602Y-82717204D01*
X97221924Y-82733903D01*
X97224499Y-82746850D01*
X97244469Y-82795063D01*
X97273535Y-82865233D01*
X97344723Y-82971775D01*
X97344726Y-82971779D01*
X98028219Y-83655272D01*
X98028226Y-83655278D01*
X98133648Y-83725718D01*
X98133649Y-83725718D01*
X98133652Y-83725720D01*
X98134767Y-83726465D01*
X98253150Y-83775501D01*
X98253154Y-83775501D01*
X98253155Y-83775502D01*
X98378822Y-83800500D01*
X98378825Y-83800500D01*
X102671177Y-83800500D01*
X102755721Y-83783682D01*
X102796850Y-83775501D01*
X102915233Y-83726465D01*
X102916348Y-83725720D01*
X103021775Y-83655277D01*
X104086790Y-82590261D01*
X104148111Y-82556778D01*
X104217802Y-82561762D01*
X104273736Y-82603633D01*
X104298153Y-82669098D01*
X104289031Y-82725395D01*
X104264281Y-82785148D01*
X104264279Y-82785154D01*
X104235439Y-82930141D01*
X104235439Y-84100500D01*
X104215754Y-84167539D01*
X104162950Y-84213294D01*
X104111439Y-84224500D01*
X102979202Y-84224500D01*
X102834214Y-84253340D01*
X102834204Y-84253343D01*
X102697633Y-84309912D01*
X102697620Y-84309919D01*
X102574706Y-84392048D01*
X102574702Y-84392051D01*
X102528575Y-84438180D01*
X102467252Y-84471666D01*
X102440893Y-84474500D01*
X100151076Y-84474500D01*
X100122242Y-84480234D01*
X100122243Y-84480235D01*
X100006093Y-84503339D01*
X100006089Y-84503340D01*
X99928100Y-84535645D01*
X99928097Y-84535646D01*
X99917435Y-84540062D01*
X99869985Y-84549500D01*
X99476662Y-84549500D01*
X99476644Y-84549501D01*
X99377292Y-84559650D01*
X99377289Y-84559651D01*
X99216305Y-84612996D01*
X99216294Y-84613001D01*
X99071959Y-84702029D01*
X99071955Y-84702032D01*
X99060807Y-84713181D01*
X98999484Y-84746666D01*
X98973126Y-84749500D01*
X98862230Y-84749500D01*
X98795191Y-84729815D01*
X98774549Y-84713181D01*
X98753307Y-84691939D01*
X98730653Y-84655869D01*
X98728813Y-84656756D01*
X98725792Y-84650484D01*
X98725789Y-84650480D01*
X98725789Y-84650478D01*
X98629816Y-84497738D01*
X98502262Y-84370184D01*
X98349523Y-84274211D01*
X98179254Y-84214631D01*
X98179249Y-84214630D01*
X98000004Y-84194435D01*
X97999996Y-84194435D01*
X97820750Y-84214630D01*
X97820745Y-84214631D01*
X97740983Y-84242542D01*
X97700028Y-84249500D01*
X96612230Y-84249500D01*
X96545191Y-84229815D01*
X96524549Y-84213181D01*
X94978421Y-82667052D01*
X94978414Y-82667046D01*
X94897170Y-82612761D01*
X94897071Y-82612696D01*
X94855495Y-82584916D01*
X94855494Y-82584915D01*
X94855492Y-82584914D01*
X94718917Y-82528343D01*
X94718907Y-82528340D01*
X94573920Y-82499500D01*
X94573918Y-82499500D01*
X93874500Y-82499500D01*
X93807461Y-82479815D01*
X93761706Y-82427011D01*
X93750500Y-82375500D01*
X93750500Y-81926079D01*
X93721659Y-81781092D01*
X93721658Y-81781091D01*
X93721658Y-81781087D01*
X93686167Y-81695403D01*
X93665087Y-81644511D01*
X93665080Y-81644498D01*
X93582952Y-81521585D01*
X93553629Y-81492262D01*
X93478416Y-81417049D01*
X93393495Y-81332128D01*
X93360012Y-81270805D01*
X93364996Y-81201114D01*
X93406868Y-81145180D01*
X93472333Y-81120764D01*
X93531397Y-81131663D01*
X93531428Y-81131581D01*
X93531920Y-81131760D01*
X93533588Y-81132068D01*
X93536512Y-81133432D01*
X93536516Y-81133433D01*
X93750000Y-81190634D01*
X93750000Y-80293012D01*
X93807007Y-80325925D01*
X93934174Y-80360000D01*
X94065826Y-80360000D01*
X94192993Y-80325925D01*
X94250000Y-80293012D01*
X94250000Y-81190633D01*
X94463483Y-81133433D01*
X94463492Y-81133429D01*
X94677578Y-81033600D01*
X94871082Y-80898105D01*
X95038105Y-80731082D01*
X95173600Y-80537578D01*
X95273429Y-80323492D01*
X95273432Y-80323486D01*
X95330636Y-80110000D01*
X94433012Y-80110000D01*
X94465925Y-80052993D01*
X94500000Y-79925826D01*
X94500000Y-79794174D01*
X94465925Y-79667007D01*
X94433012Y-79610000D01*
X95330636Y-79610000D01*
X95330635Y-79609999D01*
X95318854Y-79566031D01*
X95320517Y-79496181D01*
X95359679Y-79438319D01*
X95423907Y-79410814D01*
X95492810Y-79422400D01*
G37*
%TD.AperFunction*%
%TA.AperFunction,Conductor*%
G36*
X100013180Y-79463384D02*
G01*
X100046666Y-79524706D01*
X100049500Y-79551066D01*
X100049500Y-80047870D01*
X100049501Y-80047876D01*
X100055908Y-80107483D01*
X100106202Y-80242328D01*
X100106206Y-80242335D01*
X100192452Y-80357544D01*
X100192455Y-80357547D01*
X100307664Y-80443793D01*
X100307671Y-80443797D01*
X100326914Y-80450974D01*
X100442517Y-80494091D01*
X100502127Y-80500500D01*
X100979190Y-80500499D01*
X101046229Y-80520183D01*
X101066871Y-80536818D01*
X101385325Y-80855272D01*
X101385332Y-80855278D01*
X101473320Y-80914069D01*
X101473321Y-80914069D01*
X101491873Y-80926465D01*
X101610256Y-80975501D01*
X101610260Y-80975501D01*
X101610261Y-80975502D01*
X101735928Y-81000500D01*
X101735931Y-81000500D01*
X102029192Y-81000500D01*
X102096231Y-81020185D01*
X102116873Y-81036819D01*
X102178277Y-81098223D01*
X102211762Y-81159546D01*
X102213815Y-81172012D01*
X102214630Y-81179246D01*
X102214632Y-81179255D01*
X102274210Y-81349521D01*
X102370184Y-81502262D01*
X102411306Y-81543384D01*
X102444791Y-81604707D01*
X102439807Y-81674399D01*
X102411306Y-81718746D01*
X102166871Y-81963182D01*
X102105551Y-81996666D01*
X102079192Y-81999500D01*
X99916322Y-81999500D01*
X99849283Y-81979815D01*
X99803528Y-81927011D01*
X99793102Y-81889383D01*
X99785369Y-81820750D01*
X99785368Y-81820748D01*
X99785368Y-81820745D01*
X99725789Y-81650478D01*
X99722032Y-81644498D01*
X99669506Y-81560903D01*
X99650500Y-81494931D01*
X99650500Y-79574499D01*
X99670185Y-79507460D01*
X99722989Y-79461705D01*
X99774500Y-79450499D01*
X99797871Y-79450499D01*
X99797872Y-79450499D01*
X99857483Y-79444091D01*
X99882165Y-79434884D01*
X99951856Y-79429899D01*
X100013180Y-79463384D01*
G37*
%TD.AperFunction*%
%TA.AperFunction,Conductor*%
G36*
X101746231Y-74670185D02*
G01*
X101766873Y-74686819D01*
X103178277Y-76098223D01*
X103211762Y-76159546D01*
X103213815Y-76172012D01*
X103214630Y-76179246D01*
X103214632Y-76179255D01*
X103274210Y-76349521D01*
X103327638Y-76434551D01*
X103370184Y-76502262D01*
X103497738Y-76629816D01*
X103650478Y-76725789D01*
X103782827Y-76772100D01*
X103820745Y-76785368D01*
X103820750Y-76785369D01*
X103999996Y-76805565D01*
X104000000Y-76805565D01*
X104000004Y-76805565D01*
X104179249Y-76785369D01*
X104179252Y-76785368D01*
X104179255Y-76785368D01*
X104349522Y-76725789D01*
X104502262Y-76629816D01*
X104582677Y-76549400D01*
X104643996Y-76515918D01*
X104713688Y-76520902D01*
X104758036Y-76549403D01*
X105996452Y-77787819D01*
X106029937Y-77849142D01*
X106024953Y-77918834D01*
X105983081Y-77974767D01*
X105917617Y-77999184D01*
X105908771Y-77999500D01*
X105002129Y-77999500D01*
X105002123Y-77999501D01*
X104942516Y-78005908D01*
X104799359Y-78059303D01*
X104798714Y-78057575D01*
X104741147Y-78070095D01*
X104701011Y-78058310D01*
X104700641Y-78059303D01*
X104557482Y-78005908D01*
X104557483Y-78005908D01*
X104497883Y-77999501D01*
X104497881Y-77999500D01*
X104497873Y-77999500D01*
X104497864Y-77999500D01*
X103502129Y-77999500D01*
X103502123Y-77999501D01*
X103442516Y-78005908D01*
X103299359Y-78059303D01*
X103298714Y-78057575D01*
X103241147Y-78070095D01*
X103201011Y-78058310D01*
X103200641Y-78059303D01*
X103057482Y-78005908D01*
X103057483Y-78005908D01*
X102997883Y-77999501D01*
X102997881Y-77999500D01*
X102997873Y-77999500D01*
X102997864Y-77999500D01*
X102002129Y-77999500D01*
X102002123Y-77999501D01*
X101942516Y-78005908D01*
X101799359Y-78059303D01*
X101798714Y-78057575D01*
X101741147Y-78070095D01*
X101701011Y-78058310D01*
X101700641Y-78059303D01*
X101557482Y-78005908D01*
X101557483Y-78005908D01*
X101497883Y-77999501D01*
X101497881Y-77999500D01*
X101497873Y-77999500D01*
X101497864Y-77999500D01*
X100502129Y-77999500D01*
X100502123Y-77999501D01*
X100442515Y-78005909D01*
X100405260Y-78019804D01*
X100335568Y-78024788D01*
X100274246Y-77991302D01*
X100245746Y-77946955D01*
X100238494Y-77927511D01*
X100193796Y-77807669D01*
X100193794Y-77807667D01*
X100190696Y-77799359D01*
X100192425Y-77798713D01*
X100179902Y-77741163D01*
X100191691Y-77701011D01*
X100190696Y-77700640D01*
X100193794Y-77692333D01*
X100193796Y-77692331D01*
X100244091Y-77557483D01*
X100250500Y-77497873D01*
X100250499Y-76502128D01*
X100244091Y-76442517D01*
X100193796Y-76307669D01*
X100193794Y-76307666D01*
X100190696Y-76299360D01*
X100192426Y-76298714D01*
X100179902Y-76241163D01*
X100191691Y-76201011D01*
X100190696Y-76200640D01*
X100193794Y-76192333D01*
X100193796Y-76192331D01*
X100244091Y-76057483D01*
X100250500Y-75997873D01*
X100250499Y-75002128D01*
X100244091Y-74942517D01*
X100197585Y-74817829D01*
X100192602Y-74748142D01*
X100226086Y-74686819D01*
X100287410Y-74653334D01*
X100313768Y-74650500D01*
X101679192Y-74650500D01*
X101746231Y-74670185D01*
G37*
%TD.AperFunction*%
%TA.AperFunction,Conductor*%
G36*
X106246231Y-73170185D02*
G01*
X106266873Y-73186819D01*
X106585325Y-73505272D01*
X106585332Y-73505278D01*
X106675417Y-73565470D01*
X106686412Y-73572816D01*
X106691873Y-73576465D01*
X106810256Y-73625501D01*
X106810260Y-73625501D01*
X106810261Y-73625502D01*
X106935928Y-73650500D01*
X106935931Y-73650500D01*
X107064069Y-73650500D01*
X111099441Y-73650500D01*
X111166480Y-73670185D01*
X111212235Y-73722989D01*
X111222179Y-73792147D01*
X111216483Y-73815454D01*
X111214632Y-73820742D01*
X111214630Y-73820750D01*
X111194435Y-73999996D01*
X111194435Y-74000003D01*
X111214630Y-74179249D01*
X111214631Y-74179254D01*
X111274211Y-74349523D01*
X111367421Y-74497864D01*
X111370184Y-74502262D01*
X111497738Y-74629816D01*
X111535167Y-74653334D01*
X111646021Y-74722989D01*
X111650478Y-74725789D01*
X111805401Y-74779999D01*
X111820745Y-74785368D01*
X111820750Y-74785369D01*
X111999996Y-74805565D01*
X112000000Y-74805565D01*
X112000004Y-74805565D01*
X112179249Y-74785369D01*
X112179251Y-74785368D01*
X112179255Y-74785368D01*
X112179258Y-74785366D01*
X112179262Y-74785366D01*
X112285641Y-74748142D01*
X112349522Y-74725789D01*
X112439096Y-74669505D01*
X112505068Y-74650500D01*
X112830192Y-74650500D01*
X112897231Y-74670185D01*
X112942986Y-74722989D01*
X112952930Y-74792147D01*
X112923905Y-74855703D01*
X112917873Y-74862181D01*
X112494727Y-75285325D01*
X112494721Y-75285332D01*
X112438026Y-75370184D01*
X112438026Y-75370185D01*
X112423538Y-75391867D01*
X112423533Y-75391875D01*
X112395837Y-75458737D01*
X112373804Y-75491720D01*
X112374525Y-75492295D01*
X112370183Y-75497738D01*
X112274211Y-75650476D01*
X112214631Y-75820745D01*
X112214630Y-75820750D01*
X112194435Y-75999996D01*
X112194435Y-76000003D01*
X112214630Y-76179249D01*
X112214631Y-76179254D01*
X112274211Y-76349523D01*
X112370184Y-76502262D01*
X112386306Y-76518384D01*
X112419791Y-76579707D01*
X112414807Y-76649399D01*
X112386306Y-76693746D01*
X111901775Y-77178277D01*
X111840452Y-77211762D01*
X111827988Y-77213815D01*
X111820752Y-77214630D01*
X111820745Y-77214632D01*
X111650476Y-77274211D01*
X111565971Y-77327309D01*
X111498734Y-77346309D01*
X111434029Y-77327309D01*
X111349520Y-77274209D01*
X111179262Y-77214633D01*
X111179249Y-77214630D01*
X111000004Y-77194435D01*
X110999996Y-77194435D01*
X110820750Y-77214630D01*
X110820745Y-77214631D01*
X110650476Y-77274211D01*
X110497737Y-77370184D01*
X110370184Y-77497737D01*
X110274210Y-77650478D01*
X110214630Y-77820750D01*
X110206897Y-77889384D01*
X110179830Y-77953798D01*
X110122235Y-77993353D01*
X110083677Y-77999500D01*
X109502129Y-77999500D01*
X109502123Y-77999501D01*
X109442516Y-78005908D01*
X109299359Y-78059303D01*
X109298714Y-78057575D01*
X109241147Y-78070095D01*
X109201011Y-78058310D01*
X109200641Y-78059303D01*
X109057482Y-78005908D01*
X109057483Y-78005908D01*
X108997883Y-77999501D01*
X108997881Y-77999500D01*
X108997873Y-77999500D01*
X108997864Y-77999500D01*
X108002129Y-77999500D01*
X108002123Y-77999501D01*
X107942511Y-78005909D01*
X107941341Y-78006186D01*
X107940405Y-78006135D01*
X107934804Y-78006738D01*
X107934706Y-78005830D01*
X107871571Y-78002444D01*
X107814901Y-77961576D01*
X107789321Y-77896557D01*
X107789608Y-77871625D01*
X107805565Y-77730002D01*
X107805565Y-77729996D01*
X107785369Y-77550750D01*
X107785368Y-77550745D01*
X107739093Y-77418498D01*
X107725789Y-77380478D01*
X107722153Y-77374692D01*
X107653171Y-77264908D01*
X107629816Y-77227738D01*
X107502262Y-77100184D01*
X107349522Y-77004211D01*
X107349518Y-77004209D01*
X107343244Y-77001188D01*
X107344125Y-76999358D01*
X107308059Y-76976692D01*
X104306819Y-73975451D01*
X104273334Y-73914128D01*
X104270500Y-73887770D01*
X104270500Y-73819972D01*
X104277458Y-73779017D01*
X104305368Y-73699254D01*
X104305369Y-73699249D01*
X104325565Y-73520003D01*
X104325565Y-73519996D01*
X104305369Y-73340750D01*
X104305366Y-73340739D01*
X104296519Y-73315453D01*
X104292958Y-73245675D01*
X104327687Y-73185048D01*
X104389681Y-73152821D01*
X104413561Y-73150500D01*
X106179192Y-73150500D01*
X106246231Y-73170185D01*
G37*
%TD.AperFunction*%
%TA.AperFunction,Conductor*%
G36*
X97668834Y-69593624D02*
G01*
X97724767Y-69635496D01*
X97749184Y-69700960D01*
X97749500Y-69709806D01*
X97749500Y-69997869D01*
X97749501Y-69997876D01*
X97755908Y-70057483D01*
X97809303Y-70200641D01*
X97807575Y-70201285D01*
X97820095Y-70258853D01*
X97808310Y-70298988D01*
X97809303Y-70299359D01*
X97755908Y-70442517D01*
X97749501Y-70502116D01*
X97749501Y-70502123D01*
X97749500Y-70502135D01*
X97749500Y-71497870D01*
X97749501Y-71497876D01*
X97755908Y-71557483D01*
X97809303Y-71700641D01*
X97807575Y-71701285D01*
X97820095Y-71758853D01*
X97808310Y-71798988D01*
X97809303Y-71799359D01*
X97755908Y-71942517D01*
X97749501Y-72002116D01*
X97749501Y-72002123D01*
X97749500Y-72002135D01*
X97749500Y-72997870D01*
X97749501Y-72997876D01*
X97755908Y-73057483D01*
X97809303Y-73200641D01*
X97807575Y-73201285D01*
X97820095Y-73258853D01*
X97808310Y-73298988D01*
X97809303Y-73299359D01*
X97755908Y-73442517D01*
X97749501Y-73502116D01*
X97749501Y-73502123D01*
X97749500Y-73502135D01*
X97749500Y-74497870D01*
X97749501Y-74497876D01*
X97755908Y-74557483D01*
X97809303Y-74700641D01*
X97807575Y-74701285D01*
X97820095Y-74758853D01*
X97808310Y-74798988D01*
X97809303Y-74799359D01*
X97755908Y-74942517D01*
X97749501Y-75002116D01*
X97749501Y-75002123D01*
X97749500Y-75002135D01*
X97749500Y-75151579D01*
X97729815Y-75218618D01*
X97677011Y-75264373D01*
X97666464Y-75268616D01*
X97658388Y-75271442D01*
X97650474Y-75274212D01*
X97497737Y-75370184D01*
X97370184Y-75497737D01*
X97274211Y-75650476D01*
X97214631Y-75820745D01*
X97214630Y-75820750D01*
X97194435Y-75999996D01*
X97194435Y-76000003D01*
X97214630Y-76179249D01*
X97214631Y-76179254D01*
X97274211Y-76349523D01*
X97332644Y-76442518D01*
X97370184Y-76502262D01*
X97497738Y-76629816D01*
X97650478Y-76725789D01*
X97666454Y-76731379D01*
X97723230Y-76772100D01*
X97748978Y-76837053D01*
X97749500Y-76848421D01*
X97749500Y-76879191D01*
X97729815Y-76946230D01*
X97713181Y-76966872D01*
X97425472Y-77254581D01*
X97364149Y-77288066D01*
X97294457Y-77283082D01*
X97238524Y-77241210D01*
X97216174Y-77191092D01*
X97213651Y-77178410D01*
X97213650Y-77178409D01*
X97213650Y-77178405D01*
X97164614Y-77060022D01*
X97132442Y-77011873D01*
X97132442Y-77011872D01*
X97093426Y-76953480D01*
X97093420Y-76953473D01*
X95347709Y-75207763D01*
X95314224Y-75146440D01*
X95315615Y-75087989D01*
X95327150Y-75044938D01*
X95335063Y-75015408D01*
X95355659Y-74780000D01*
X95335063Y-74544592D01*
X95273903Y-74316337D01*
X95174035Y-74102171D01*
X95102497Y-74000003D01*
X95038494Y-73908597D01*
X94871402Y-73741506D01*
X94871396Y-73741501D01*
X94685842Y-73611575D01*
X94642217Y-73556998D01*
X94635023Y-73487500D01*
X94666546Y-73425145D01*
X94685842Y-73408425D01*
X94734293Y-73374499D01*
X94871401Y-73278495D01*
X95038495Y-73111401D01*
X95174035Y-72917830D01*
X95273903Y-72703663D01*
X95335063Y-72475408D01*
X95355659Y-72240000D01*
X95335063Y-72004592D01*
X95315614Y-71932007D01*
X95317277Y-71862162D01*
X95347706Y-71812238D01*
X97537821Y-69622123D01*
X97599142Y-69588640D01*
X97668834Y-69593624D01*
G37*
%TD.AperFunction*%
%TA.AperFunction,Conductor*%
G36*
X123310355Y-71430098D02*
G01*
X123345769Y-71490327D01*
X123349500Y-71520517D01*
X123349500Y-75559482D01*
X123329815Y-75626521D01*
X123277011Y-75672276D01*
X123207853Y-75682220D01*
X123144297Y-75653195D01*
X123123925Y-75630606D01*
X123105163Y-75603811D01*
X123038495Y-75508599D01*
X123038493Y-75508597D01*
X123038491Y-75508594D01*
X122871402Y-75341506D01*
X122871395Y-75341501D01*
X122677834Y-75205967D01*
X122677830Y-75205965D01*
X122677828Y-75205964D01*
X122463663Y-75106097D01*
X122463659Y-75106096D01*
X122463655Y-75106094D01*
X122235413Y-75044938D01*
X122235403Y-75044936D01*
X122000001Y-75024341D01*
X121999999Y-75024341D01*
X121764596Y-75044936D01*
X121764586Y-75044938D01*
X121536344Y-75106094D01*
X121536335Y-75106098D01*
X121322171Y-75205964D01*
X121322169Y-75205965D01*
X121128597Y-75341505D01*
X120962181Y-75507922D01*
X120900858Y-75541407D01*
X120831166Y-75536423D01*
X120775233Y-75494551D01*
X120750816Y-75429087D01*
X120750500Y-75420241D01*
X120750500Y-73362229D01*
X120770185Y-73295190D01*
X120786819Y-73274548D01*
X121143537Y-72917830D01*
X121582952Y-72478415D01*
X121610205Y-72437627D01*
X121665084Y-72355495D01*
X121698753Y-72274211D01*
X121721659Y-72218912D01*
X121736651Y-72143539D01*
X121769035Y-72081631D01*
X121829750Y-72047056D01*
X121869073Y-72044204D01*
X121975153Y-72053485D01*
X121999999Y-72055659D01*
X122000000Y-72055659D01*
X122000001Y-72055659D01*
X122039234Y-72052226D01*
X122235408Y-72035063D01*
X122463663Y-71973903D01*
X122677830Y-71874035D01*
X122871401Y-71738495D01*
X123038495Y-71571401D01*
X123123925Y-71449393D01*
X123178502Y-71405769D01*
X123248000Y-71398575D01*
X123310355Y-71430098D01*
G37*
%TD.AperFunction*%
%TA.AperFunction,Conductor*%
G36*
X114397230Y-71670185D02*
G01*
X114442985Y-71722989D01*
X114452929Y-71792147D01*
X114423904Y-71855703D01*
X114417872Y-71862181D01*
X113793746Y-72486306D01*
X113732423Y-72519791D01*
X113662731Y-72514807D01*
X113618384Y-72486306D01*
X113502262Y-72370184D01*
X113349523Y-72274211D01*
X113179254Y-72214631D01*
X113179249Y-72214630D01*
X113000004Y-72194435D01*
X112999996Y-72194435D01*
X112820750Y-72214630D01*
X112820737Y-72214633D01*
X112650481Y-72274209D01*
X112650477Y-72274210D01*
X112560904Y-72330494D01*
X112494932Y-72349500D01*
X107320808Y-72349500D01*
X107253769Y-72329815D01*
X107233127Y-72313181D01*
X106914674Y-71994727D01*
X106914673Y-71994726D01*
X106883506Y-71973901D01*
X106808127Y-71923535D01*
X106724900Y-71889061D01*
X106670497Y-71845220D01*
X106648432Y-71778926D01*
X106665711Y-71711226D01*
X106716849Y-71663616D01*
X106772353Y-71650500D01*
X114330191Y-71650500D01*
X114397230Y-71670185D01*
G37*
%TD.AperFunction*%
%TA.AperFunction,Conductor*%
G36*
X113746231Y-69670185D02*
G01*
X113766873Y-69686819D01*
X114178277Y-70098223D01*
X114211762Y-70159546D01*
X114213815Y-70172012D01*
X114214630Y-70179246D01*
X114214631Y-70179253D01*
X114214632Y-70179255D01*
X114216484Y-70184548D01*
X114220045Y-70254325D01*
X114185316Y-70314952D01*
X114123323Y-70347179D01*
X114099442Y-70349500D01*
X100313768Y-70349500D01*
X100246729Y-70329815D01*
X100200974Y-70277011D01*
X100191030Y-70207853D01*
X100197583Y-70182177D01*
X100244091Y-70057483D01*
X100250500Y-69997873D01*
X100250500Y-69774500D01*
X100270185Y-69707461D01*
X100322989Y-69661706D01*
X100374500Y-69650500D01*
X113679192Y-69650500D01*
X113746231Y-69670185D01*
G37*
%TD.AperFunction*%
%TA.AperFunction,Conductor*%
G36*
X118769925Y-63170185D02*
G01*
X118815680Y-63222989D01*
X118825624Y-63292147D01*
X118796599Y-63355703D01*
X118743840Y-63391542D01*
X118650478Y-63424210D01*
X118497737Y-63520184D01*
X118370184Y-63647737D01*
X118274211Y-63800476D01*
X118214631Y-63970745D01*
X118214630Y-63970750D01*
X118194435Y-64149996D01*
X118194435Y-64150003D01*
X118214630Y-64329249D01*
X118214631Y-64329254D01*
X118274211Y-64499524D01*
X118330493Y-64589094D01*
X118349500Y-64655067D01*
X118349500Y-65224069D01*
X118349500Y-65224071D01*
X118349499Y-65224071D01*
X118374430Y-65349399D01*
X118374499Y-65349744D01*
X118388933Y-65384592D01*
X118423535Y-65468127D01*
X118453330Y-65512719D01*
X118494726Y-65574673D01*
X118494727Y-65574674D01*
X120652290Y-67732236D01*
X120685775Y-67793559D01*
X120684384Y-67852008D01*
X120664937Y-67924589D01*
X120664937Y-67924590D01*
X120644341Y-68159999D01*
X120644341Y-68160000D01*
X120664936Y-68395403D01*
X120664938Y-68395413D01*
X120726094Y-68623655D01*
X120726096Y-68623659D01*
X120726097Y-68623663D01*
X120810920Y-68805565D01*
X120825965Y-68837830D01*
X120825967Y-68837834D01*
X120961501Y-69031395D01*
X120961506Y-69031402D01*
X121128597Y-69198493D01*
X121128603Y-69198498D01*
X121314158Y-69328425D01*
X121357783Y-69383002D01*
X121364977Y-69452500D01*
X121333454Y-69514855D01*
X121314158Y-69531575D01*
X121128597Y-69661505D01*
X121013416Y-69776687D01*
X120952093Y-69810172D01*
X120882401Y-69805188D01*
X120838054Y-69776687D01*
X119846735Y-68785368D01*
X118753305Y-67691937D01*
X118730656Y-67655864D01*
X118728812Y-67656753D01*
X118725792Y-67650483D01*
X118725789Y-67650478D01*
X118629816Y-67497738D01*
X118502262Y-67370184D01*
X118349523Y-67274211D01*
X118179254Y-67214631D01*
X118179249Y-67214630D01*
X118000004Y-67194435D01*
X117999996Y-67194435D01*
X117878920Y-67208076D01*
X117810098Y-67196021D01*
X117758719Y-67148672D01*
X117741095Y-67081061D01*
X117743572Y-67062303D01*
X117744089Y-67057485D01*
X117744091Y-67057483D01*
X117750500Y-66997873D01*
X117750499Y-66002128D01*
X117744091Y-65942517D01*
X117693796Y-65807669D01*
X117693794Y-65807666D01*
X117690696Y-65799360D01*
X117692426Y-65798714D01*
X117679902Y-65741163D01*
X117691691Y-65701011D01*
X117690696Y-65700640D01*
X117693794Y-65692333D01*
X117693796Y-65692331D01*
X117744091Y-65557483D01*
X117750500Y-65497873D01*
X117750499Y-64502128D01*
X117744091Y-64442517D01*
X117693796Y-64307669D01*
X117693794Y-64307666D01*
X117690696Y-64299360D01*
X117692426Y-64298714D01*
X117679902Y-64241163D01*
X117691691Y-64201011D01*
X117690696Y-64200640D01*
X117693794Y-64192333D01*
X117693796Y-64192331D01*
X117744091Y-64057483D01*
X117750500Y-63997873D01*
X117750499Y-63620806D01*
X117770183Y-63553768D01*
X117786813Y-63533131D01*
X118133127Y-63186819D01*
X118194450Y-63153334D01*
X118220808Y-63150500D01*
X118702886Y-63150500D01*
X118769925Y-63170185D01*
G37*
%TD.AperFunction*%
%TA.AperFunction,Conductor*%
G36*
X97753270Y-65670185D02*
G01*
X97799025Y-65722989D01*
X97808969Y-65792147D01*
X97802413Y-65817833D01*
X97755908Y-65942517D01*
X97749728Y-66000003D01*
X97749501Y-66002123D01*
X97749500Y-66002135D01*
X97749500Y-66279191D01*
X97729815Y-66346230D01*
X97713181Y-66366872D01*
X95230693Y-68849359D01*
X95169370Y-68882844D01*
X95099678Y-68877860D01*
X95043745Y-68835988D01*
X95041455Y-68832827D01*
X95038495Y-68828599D01*
X95038493Y-68828597D01*
X95038491Y-68828594D01*
X94871402Y-68661506D01*
X94871396Y-68661501D01*
X94685842Y-68531575D01*
X94642217Y-68476998D01*
X94635023Y-68407500D01*
X94666546Y-68345145D01*
X94685842Y-68328425D01*
X94708026Y-68312891D01*
X94871401Y-68198495D01*
X95038495Y-68031401D01*
X95174035Y-67837830D01*
X95273903Y-67623663D01*
X95335063Y-67395408D01*
X95355659Y-67160000D01*
X95335063Y-66924592D01*
X95315614Y-66852007D01*
X95317277Y-66782162D01*
X95347706Y-66732238D01*
X96393127Y-65686819D01*
X96454450Y-65653334D01*
X96480808Y-65650500D01*
X97686231Y-65650500D01*
X97753270Y-65670185D01*
G37*
%TD.AperFunction*%
%TA.AperFunction,Conductor*%
G36*
X120104295Y-63150500D02*
G01*
X120110161Y-63150500D01*
X120110161Y-63151612D01*
X120172862Y-63163502D01*
X120223574Y-63211566D01*
X120233415Y-63232934D01*
X120274210Y-63349521D01*
X120321141Y-63424211D01*
X120370184Y-63502262D01*
X120497738Y-63629816D01*
X120650478Y-63725789D01*
X120815490Y-63783529D01*
X120872266Y-63824251D01*
X120876110Y-63829447D01*
X120955042Y-63942171D01*
X120961505Y-63951401D01*
X120961506Y-63951402D01*
X120961508Y-63951404D01*
X121128597Y-64118493D01*
X121128603Y-64118498D01*
X121314158Y-64248425D01*
X121357783Y-64303002D01*
X121364977Y-64372500D01*
X121333454Y-64434855D01*
X121314158Y-64451575D01*
X121128597Y-64581505D01*
X120961495Y-64748608D01*
X120959436Y-64751062D01*
X120958259Y-64751844D01*
X120957677Y-64752427D01*
X120957559Y-64752309D01*
X120901258Y-64789754D01*
X120831397Y-64790851D01*
X120772034Y-64754003D01*
X120747419Y-64712294D01*
X120745698Y-64707377D01*
X120725789Y-64650478D01*
X120629816Y-64497738D01*
X120502262Y-64370184D01*
X120349523Y-64274211D01*
X120179254Y-64214631D01*
X120179249Y-64214630D01*
X120000004Y-64194435D01*
X119999994Y-64194435D01*
X119936165Y-64201626D01*
X119867343Y-64189571D01*
X119815964Y-64142221D01*
X119799063Y-64092289D01*
X119785369Y-63970750D01*
X119785368Y-63970745D01*
X119778596Y-63951393D01*
X119725789Y-63800478D01*
X119698991Y-63757830D01*
X119629815Y-63647737D01*
X119502262Y-63520184D01*
X119349521Y-63424210D01*
X119256160Y-63391542D01*
X119199383Y-63350820D01*
X119173636Y-63285867D01*
X119187092Y-63217306D01*
X119235479Y-63166903D01*
X119297114Y-63150500D01*
X120104064Y-63150500D01*
X120104069Y-63150500D01*
X120104073Y-63150499D01*
X120104216Y-63150485D01*
X120104295Y-63150500D01*
G37*
%TD.AperFunction*%
%TA.AperFunction,Conductor*%
G36*
X97346231Y-61670185D02*
G01*
X97366873Y-61686819D01*
X97713181Y-62033127D01*
X97746666Y-62094450D01*
X97749500Y-62120808D01*
X97749500Y-62497869D01*
X97749501Y-62497876D01*
X97755908Y-62557483D01*
X97809303Y-62700641D01*
X97807575Y-62701285D01*
X97820095Y-62758853D01*
X97808310Y-62798988D01*
X97809303Y-62799359D01*
X97755908Y-62942517D01*
X97749501Y-63002116D01*
X97749501Y-63002123D01*
X97749500Y-63002135D01*
X97749500Y-63225500D01*
X97729815Y-63292539D01*
X97677011Y-63338294D01*
X97625500Y-63349500D01*
X94934770Y-63349500D01*
X94867731Y-63329815D01*
X94821976Y-63277011D01*
X94812032Y-63207853D01*
X94841057Y-63144297D01*
X94863646Y-63123926D01*
X94871393Y-63118501D01*
X94871395Y-63118499D01*
X94871401Y-63118495D01*
X95038495Y-62951401D01*
X95174035Y-62757830D01*
X95273903Y-62543663D01*
X95335063Y-62315408D01*
X95355659Y-62080000D01*
X95335063Y-61844592D01*
X95324881Y-61806592D01*
X95326544Y-61736744D01*
X95365706Y-61678881D01*
X95429935Y-61651377D01*
X95444656Y-61650500D01*
X97279192Y-61650500D01*
X97346231Y-61670185D01*
G37*
%TD.AperFunction*%
%TA.AperFunction,Conductor*%
G36*
X97692539Y-57770185D02*
G01*
X97738294Y-57822989D01*
X97749500Y-57874499D01*
X97749500Y-57997869D01*
X97749501Y-57997876D01*
X97755908Y-58057483D01*
X97809303Y-58200641D01*
X97807575Y-58201285D01*
X97820095Y-58258853D01*
X97808310Y-58298988D01*
X97809303Y-58299359D01*
X97755908Y-58442517D01*
X97749567Y-58501505D01*
X97749501Y-58502123D01*
X97749500Y-58502135D01*
X97749500Y-59497870D01*
X97749501Y-59497876D01*
X97755908Y-59557483D01*
X97802413Y-59682167D01*
X97807397Y-59751859D01*
X97773912Y-59813182D01*
X97712589Y-59846666D01*
X97686231Y-59849500D01*
X95463903Y-59849500D01*
X95396864Y-59829815D01*
X95351109Y-59777011D01*
X95340375Y-59714692D01*
X95341605Y-59700640D01*
X95355659Y-59540000D01*
X95351972Y-59497864D01*
X95342036Y-59384292D01*
X95335063Y-59304592D01*
X95273903Y-59076337D01*
X95174035Y-58862171D01*
X95134399Y-58805565D01*
X95038496Y-58668600D01*
X94999711Y-58629815D01*
X94916567Y-58546671D01*
X94883084Y-58485351D01*
X94888068Y-58415659D01*
X94929939Y-58359725D01*
X94960915Y-58342810D01*
X95092331Y-58293796D01*
X95207546Y-58207546D01*
X95293796Y-58092331D01*
X95344091Y-57957483D01*
X95350500Y-57897873D01*
X95350500Y-57874499D01*
X95370185Y-57807461D01*
X95422989Y-57761706D01*
X95474500Y-57750500D01*
X97625500Y-57750500D01*
X97692539Y-57770185D01*
G37*
%TD.AperFunction*%
%TD*%
D43*
X108000000Y-114000000D03*
X110460000Y-110000000D03*
X107000000Y-111000000D03*
X118000000Y-89000000D03*
X119000000Y-86000000D03*
X111000000Y-72000000D03*
X110000000Y-103000000D03*
X107000000Y-90000000D03*
X95000000Y-85000000D03*
X102000000Y-82000000D03*
X115000000Y-108000000D03*
X106000000Y-75000000D03*
X120000000Y-64000000D03*
X114000000Y-72000000D03*
X107000000Y-70000000D03*
X116000000Y-99000000D03*
X104000000Y-90500000D03*
X97000000Y-62000000D03*
X97000000Y-59000000D03*
X100000000Y-112000000D03*
X106000000Y-61000000D03*
X97000000Y-89000000D03*
X113000000Y-88000000D03*
X96000000Y-67000000D03*
X96000000Y-73000000D03*
X112000000Y-111000000D03*
X104000000Y-87075000D03*
X97000000Y-83000000D03*
X92000000Y-54500000D03*
X103000000Y-84000000D03*
X112000000Y-112000000D03*
X106000000Y-88000000D03*
X116000000Y-112000000D03*
X111000000Y-90000000D03*
X93349239Y-81288578D03*
X105000000Y-77000000D03*
X102000000Y-63000000D03*
X92000000Y-82500000D03*
X115000000Y-103000000D03*
X119000000Y-67000000D03*
X109000000Y-68000000D03*
X107000000Y-106000000D03*
X122000000Y-73000000D03*
X102000000Y-108000000D03*
X107000000Y-80990000D03*
X115000000Y-68000000D03*
X103520000Y-73520000D03*
X98000000Y-85000000D03*
X118000000Y-68000000D03*
X111000000Y-66000000D03*
X102000000Y-58000000D03*
X107000000Y-77730000D03*
X114000000Y-109000000D03*
X107000000Y-103000000D03*
X113000000Y-103000000D03*
X114000000Y-58000000D03*
X119000000Y-64150000D03*
X120000000Y-65000000D03*
X115000000Y-60000000D03*
X107000000Y-61000000D03*
X111000000Y-61000000D03*
X120000000Y-104000000D03*
X120000000Y-109000000D03*
X115000000Y-61000000D03*
X113000000Y-76000000D03*
X118054620Y-80054620D03*
X113000000Y-73000000D03*
X104000000Y-76000000D03*
X113000000Y-78000000D03*
X118000000Y-77000000D03*
X111000000Y-78000000D03*
X112000000Y-74000000D03*
X112000000Y-78000000D03*
X121000000Y-111000000D03*
X110000000Y-82290000D03*
X120000000Y-111000000D03*
X109000000Y-82290000D03*
X98000000Y-76000000D03*
X97676298Y-78800000D03*
X94000000Y-84000000D03*
X92610000Y-84000000D03*
X115000000Y-70000000D03*
X115000000Y-71000000D03*
X119810380Y-61810380D03*
X121000000Y-63000000D03*
X119000000Y-96000000D03*
X116000000Y-101000000D03*
X112000000Y-103000000D03*
X111000000Y-103000000D03*
X106025331Y-83025331D03*
X99000000Y-82000000D03*
X103000000Y-81000000D03*
X107000000Y-82290000D03*
D44*
X111000000Y-114000000D03*
X113540000Y-114000000D03*
D45*
X116550000Y-116000000D03*
X123700000Y-116000000D03*
D44*
X97920000Y-94000000D03*
X100460000Y-94000000D03*
X103000000Y-94000000D03*
X108000000Y-95000000D03*
X108000000Y-92460000D03*
X94000000Y-57000000D03*
X94000000Y-59540000D03*
X94000000Y-62080000D03*
X94000000Y-64620000D03*
X94000000Y-67160000D03*
X94000000Y-69700000D03*
X94000000Y-72240000D03*
X94000000Y-74780000D03*
X94000000Y-77320000D03*
X94000000Y-79860000D03*
X101460000Y-98000000D03*
X104000000Y-98000000D03*
X101460000Y-100540000D03*
X104000000Y-100540000D03*
X101460000Y-103080000D03*
X104000000Y-103080000D03*
X101460000Y-105620000D03*
X104000000Y-105620000D03*
X122000000Y-58000000D03*
X122000000Y-60540000D03*
X122000000Y-63080000D03*
X122000000Y-65620000D03*
X122000000Y-68160000D03*
X122000000Y-70700000D03*
X94460000Y-98000000D03*
X97000000Y-98000000D03*
X94460000Y-100540000D03*
X97000000Y-100540000D03*
X94460000Y-103080000D03*
X97000000Y-103080000D03*
X94460000Y-105620000D03*
X97000000Y-105620000D03*
X122000000Y-84000000D03*
X122000000Y-81460000D03*
X122000000Y-78920000D03*
X122000000Y-76380000D03*
M02*
