%TF.GenerationSoftware,KiCad,Pcbnew,8.0.1*%
%TF.CreationDate,2024-03-25T00:20:22-03:00*%
%TF.ProjectId,estacao_metereologica_lora,65737461-6361-46f5-9f6d-65746572656f,rev?*%
%TF.SameCoordinates,Original*%
%TF.FileFunction,Legend,Top*%
%TF.FilePolarity,Positive*%
%FSLAX46Y46*%
G04 Gerber Fmt 4.6, Leading zero omitted, Abs format (unit mm)*
G04 Created by KiCad (PCBNEW 8.0.1) date 2024-03-25 00:20:22*
%MOMM*%
%LPD*%
G01*
G04 APERTURE LIST*
%ADD10C,0.150000*%
%ADD11C,0.120000*%
%ADD12C,0.200000*%
%ADD13C,0.127000*%
%ADD14C,0.350000*%
%ADD15O,0.450000X1.250000*%
G04 APERTURE END LIST*
D10*
X116359580Y-85166666D02*
X116407200Y-85214285D01*
X116407200Y-85214285D02*
X116454819Y-85357142D01*
X116454819Y-85357142D02*
X116454819Y-85452380D01*
X116454819Y-85452380D02*
X116407200Y-85595237D01*
X116407200Y-85595237D02*
X116311961Y-85690475D01*
X116311961Y-85690475D02*
X116216723Y-85738094D01*
X116216723Y-85738094D02*
X116026247Y-85785713D01*
X116026247Y-85785713D02*
X115883390Y-85785713D01*
X115883390Y-85785713D02*
X115692914Y-85738094D01*
X115692914Y-85738094D02*
X115597676Y-85690475D01*
X115597676Y-85690475D02*
X115502438Y-85595237D01*
X115502438Y-85595237D02*
X115454819Y-85452380D01*
X115454819Y-85452380D02*
X115454819Y-85357142D01*
X115454819Y-85357142D02*
X115502438Y-85214285D01*
X115502438Y-85214285D02*
X115550057Y-85166666D01*
X115454819Y-84261904D02*
X115454819Y-84738094D01*
X115454819Y-84738094D02*
X115931009Y-84785713D01*
X115931009Y-84785713D02*
X115883390Y-84738094D01*
X115883390Y-84738094D02*
X115835771Y-84642856D01*
X115835771Y-84642856D02*
X115835771Y-84404761D01*
X115835771Y-84404761D02*
X115883390Y-84309523D01*
X115883390Y-84309523D02*
X115931009Y-84261904D01*
X115931009Y-84261904D02*
X116026247Y-84214285D01*
X116026247Y-84214285D02*
X116264342Y-84214285D01*
X116264342Y-84214285D02*
X116359580Y-84261904D01*
X116359580Y-84261904D02*
X116407200Y-84309523D01*
X116407200Y-84309523D02*
X116454819Y-84404761D01*
X116454819Y-84404761D02*
X116454819Y-84642856D01*
X116454819Y-84642856D02*
X116407200Y-84738094D01*
X116407200Y-84738094D02*
X116359580Y-84785713D01*
X110454819Y-84166666D02*
X109978628Y-84499999D01*
X110454819Y-84738094D02*
X109454819Y-84738094D01*
X109454819Y-84738094D02*
X109454819Y-84357142D01*
X109454819Y-84357142D02*
X109502438Y-84261904D01*
X109502438Y-84261904D02*
X109550057Y-84214285D01*
X109550057Y-84214285D02*
X109645295Y-84166666D01*
X109645295Y-84166666D02*
X109788152Y-84166666D01*
X109788152Y-84166666D02*
X109883390Y-84214285D01*
X109883390Y-84214285D02*
X109931009Y-84261904D01*
X109931009Y-84261904D02*
X109978628Y-84357142D01*
X109978628Y-84357142D02*
X109978628Y-84738094D01*
X109454819Y-83261904D02*
X109454819Y-83738094D01*
X109454819Y-83738094D02*
X109931009Y-83785713D01*
X109931009Y-83785713D02*
X109883390Y-83738094D01*
X109883390Y-83738094D02*
X109835771Y-83642856D01*
X109835771Y-83642856D02*
X109835771Y-83404761D01*
X109835771Y-83404761D02*
X109883390Y-83309523D01*
X109883390Y-83309523D02*
X109931009Y-83261904D01*
X109931009Y-83261904D02*
X110026247Y-83214285D01*
X110026247Y-83214285D02*
X110264342Y-83214285D01*
X110264342Y-83214285D02*
X110359580Y-83261904D01*
X110359580Y-83261904D02*
X110407200Y-83309523D01*
X110407200Y-83309523D02*
X110454819Y-83404761D01*
X110454819Y-83404761D02*
X110454819Y-83642856D01*
X110454819Y-83642856D02*
X110407200Y-83738094D01*
X110407200Y-83738094D02*
X110359580Y-83785713D01*
X94454819Y-84738094D02*
X93454819Y-84738094D01*
X93454819Y-84738094D02*
X93454819Y-84499999D01*
X93454819Y-84499999D02*
X93502438Y-84357142D01*
X93502438Y-84357142D02*
X93597676Y-84261904D01*
X93597676Y-84261904D02*
X93692914Y-84214285D01*
X93692914Y-84214285D02*
X93883390Y-84166666D01*
X93883390Y-84166666D02*
X94026247Y-84166666D01*
X94026247Y-84166666D02*
X94216723Y-84214285D01*
X94216723Y-84214285D02*
X94311961Y-84261904D01*
X94311961Y-84261904D02*
X94407200Y-84357142D01*
X94407200Y-84357142D02*
X94454819Y-84499999D01*
X94454819Y-84499999D02*
X94454819Y-84738094D01*
X93454819Y-83833332D02*
X93454819Y-83214285D01*
X93454819Y-83214285D02*
X93835771Y-83547618D01*
X93835771Y-83547618D02*
X93835771Y-83404761D01*
X93835771Y-83404761D02*
X93883390Y-83309523D01*
X93883390Y-83309523D02*
X93931009Y-83261904D01*
X93931009Y-83261904D02*
X94026247Y-83214285D01*
X94026247Y-83214285D02*
X94264342Y-83214285D01*
X94264342Y-83214285D02*
X94359580Y-83261904D01*
X94359580Y-83261904D02*
X94407200Y-83309523D01*
X94407200Y-83309523D02*
X94454819Y-83404761D01*
X94454819Y-83404761D02*
X94454819Y-83690475D01*
X94454819Y-83690475D02*
X94407200Y-83785713D01*
X94407200Y-83785713D02*
X94359580Y-83833332D01*
X121861905Y-108454819D02*
X121861905Y-107454819D01*
X121861905Y-107454819D02*
X122100000Y-107454819D01*
X122100000Y-107454819D02*
X122242857Y-107502438D01*
X122242857Y-107502438D02*
X122338095Y-107597676D01*
X122338095Y-107597676D02*
X122385714Y-107692914D01*
X122385714Y-107692914D02*
X122433333Y-107883390D01*
X122433333Y-107883390D02*
X122433333Y-108026247D01*
X122433333Y-108026247D02*
X122385714Y-108216723D01*
X122385714Y-108216723D02*
X122338095Y-108311961D01*
X122338095Y-108311961D02*
X122242857Y-108407200D01*
X122242857Y-108407200D02*
X122100000Y-108454819D01*
X122100000Y-108454819D02*
X121861905Y-108454819D01*
X122814286Y-107550057D02*
X122861905Y-107502438D01*
X122861905Y-107502438D02*
X122957143Y-107454819D01*
X122957143Y-107454819D02*
X123195238Y-107454819D01*
X123195238Y-107454819D02*
X123290476Y-107502438D01*
X123290476Y-107502438D02*
X123338095Y-107550057D01*
X123338095Y-107550057D02*
X123385714Y-107645295D01*
X123385714Y-107645295D02*
X123385714Y-107740533D01*
X123385714Y-107740533D02*
X123338095Y-107883390D01*
X123338095Y-107883390D02*
X122766667Y-108454819D01*
X122766667Y-108454819D02*
X123385714Y-108454819D01*
X102333333Y-114454819D02*
X102000000Y-113978628D01*
X101761905Y-114454819D02*
X101761905Y-113454819D01*
X101761905Y-113454819D02*
X102142857Y-113454819D01*
X102142857Y-113454819D02*
X102238095Y-113502438D01*
X102238095Y-113502438D02*
X102285714Y-113550057D01*
X102285714Y-113550057D02*
X102333333Y-113645295D01*
X102333333Y-113645295D02*
X102333333Y-113788152D01*
X102333333Y-113788152D02*
X102285714Y-113883390D01*
X102285714Y-113883390D02*
X102238095Y-113931009D01*
X102238095Y-113931009D02*
X102142857Y-113978628D01*
X102142857Y-113978628D02*
X101761905Y-113978628D01*
X103285714Y-114454819D02*
X102714286Y-114454819D01*
X103000000Y-114454819D02*
X103000000Y-113454819D01*
X103000000Y-113454819D02*
X102904762Y-113597676D01*
X102904762Y-113597676D02*
X102809524Y-113692914D01*
X102809524Y-113692914D02*
X102714286Y-113740533D01*
X111666666Y-115954819D02*
X111666666Y-116669104D01*
X111666666Y-116669104D02*
X111619047Y-116811961D01*
X111619047Y-116811961D02*
X111523809Y-116907200D01*
X111523809Y-116907200D02*
X111380952Y-116954819D01*
X111380952Y-116954819D02*
X111285714Y-116954819D01*
X112666666Y-116954819D02*
X112095238Y-116954819D01*
X112380952Y-116954819D02*
X112380952Y-115954819D01*
X112380952Y-115954819D02*
X112285714Y-116097676D01*
X112285714Y-116097676D02*
X112190476Y-116192914D01*
X112190476Y-116192914D02*
X112095238Y-116240533D01*
X97238095Y-83454819D02*
X97238095Y-84264342D01*
X97238095Y-84264342D02*
X97285714Y-84359580D01*
X97285714Y-84359580D02*
X97333333Y-84407200D01*
X97333333Y-84407200D02*
X97428571Y-84454819D01*
X97428571Y-84454819D02*
X97619047Y-84454819D01*
X97619047Y-84454819D02*
X97714285Y-84407200D01*
X97714285Y-84407200D02*
X97761904Y-84359580D01*
X97761904Y-84359580D02*
X97809523Y-84264342D01*
X97809523Y-84264342D02*
X97809523Y-83454819D01*
X98714285Y-83788152D02*
X98714285Y-84454819D01*
X98476190Y-83407200D02*
X98238095Y-84121485D01*
X98238095Y-84121485D02*
X98857142Y-84121485D01*
X119791666Y-110954819D02*
X119791666Y-111669104D01*
X119791666Y-111669104D02*
X119744047Y-111811961D01*
X119744047Y-111811961D02*
X119648809Y-111907200D01*
X119648809Y-111907200D02*
X119505952Y-111954819D01*
X119505952Y-111954819D02*
X119410714Y-111954819D01*
X120220238Y-111050057D02*
X120267857Y-111002438D01*
X120267857Y-111002438D02*
X120363095Y-110954819D01*
X120363095Y-110954819D02*
X120601190Y-110954819D01*
X120601190Y-110954819D02*
X120696428Y-111002438D01*
X120696428Y-111002438D02*
X120744047Y-111050057D01*
X120744047Y-111050057D02*
X120791666Y-111145295D01*
X120791666Y-111145295D02*
X120791666Y-111240533D01*
X120791666Y-111240533D02*
X120744047Y-111383390D01*
X120744047Y-111383390D02*
X120172619Y-111954819D01*
X120172619Y-111954819D02*
X120791666Y-111954819D01*
X104359580Y-84116666D02*
X104407200Y-84164285D01*
X104407200Y-84164285D02*
X104454819Y-84307142D01*
X104454819Y-84307142D02*
X104454819Y-84402380D01*
X104454819Y-84402380D02*
X104407200Y-84545237D01*
X104407200Y-84545237D02*
X104311961Y-84640475D01*
X104311961Y-84640475D02*
X104216723Y-84688094D01*
X104216723Y-84688094D02*
X104026247Y-84735713D01*
X104026247Y-84735713D02*
X103883390Y-84735713D01*
X103883390Y-84735713D02*
X103692914Y-84688094D01*
X103692914Y-84688094D02*
X103597676Y-84640475D01*
X103597676Y-84640475D02*
X103502438Y-84545237D01*
X103502438Y-84545237D02*
X103454819Y-84402380D01*
X103454819Y-84402380D02*
X103454819Y-84307142D01*
X103454819Y-84307142D02*
X103502438Y-84164285D01*
X103502438Y-84164285D02*
X103550057Y-84116666D01*
X103454819Y-83259523D02*
X103454819Y-83449999D01*
X103454819Y-83449999D02*
X103502438Y-83545237D01*
X103502438Y-83545237D02*
X103550057Y-83592856D01*
X103550057Y-83592856D02*
X103692914Y-83688094D01*
X103692914Y-83688094D02*
X103883390Y-83735713D01*
X103883390Y-83735713D02*
X104264342Y-83735713D01*
X104264342Y-83735713D02*
X104359580Y-83688094D01*
X104359580Y-83688094D02*
X104407200Y-83640475D01*
X104407200Y-83640475D02*
X104454819Y-83545237D01*
X104454819Y-83545237D02*
X104454819Y-83354761D01*
X104454819Y-83354761D02*
X104407200Y-83259523D01*
X104407200Y-83259523D02*
X104359580Y-83211904D01*
X104359580Y-83211904D02*
X104264342Y-83164285D01*
X104264342Y-83164285D02*
X104026247Y-83164285D01*
X104026247Y-83164285D02*
X103931009Y-83211904D01*
X103931009Y-83211904D02*
X103883390Y-83259523D01*
X103883390Y-83259523D02*
X103835771Y-83354761D01*
X103835771Y-83354761D02*
X103835771Y-83545237D01*
X103835771Y-83545237D02*
X103883390Y-83640475D01*
X103883390Y-83640475D02*
X103931009Y-83688094D01*
X103931009Y-83688094D02*
X104026247Y-83735713D01*
X117358333Y-102359580D02*
X117310714Y-102407200D01*
X117310714Y-102407200D02*
X117167857Y-102454819D01*
X117167857Y-102454819D02*
X117072619Y-102454819D01*
X117072619Y-102454819D02*
X116929762Y-102407200D01*
X116929762Y-102407200D02*
X116834524Y-102311961D01*
X116834524Y-102311961D02*
X116786905Y-102216723D01*
X116786905Y-102216723D02*
X116739286Y-102026247D01*
X116739286Y-102026247D02*
X116739286Y-101883390D01*
X116739286Y-101883390D02*
X116786905Y-101692914D01*
X116786905Y-101692914D02*
X116834524Y-101597676D01*
X116834524Y-101597676D02*
X116929762Y-101502438D01*
X116929762Y-101502438D02*
X117072619Y-101454819D01*
X117072619Y-101454819D02*
X117167857Y-101454819D01*
X117167857Y-101454819D02*
X117310714Y-101502438D01*
X117310714Y-101502438D02*
X117358333Y-101550057D01*
X117739286Y-101550057D02*
X117786905Y-101502438D01*
X117786905Y-101502438D02*
X117882143Y-101454819D01*
X117882143Y-101454819D02*
X118120238Y-101454819D01*
X118120238Y-101454819D02*
X118215476Y-101502438D01*
X118215476Y-101502438D02*
X118263095Y-101550057D01*
X118263095Y-101550057D02*
X118310714Y-101645295D01*
X118310714Y-101645295D02*
X118310714Y-101740533D01*
X118310714Y-101740533D02*
X118263095Y-101883390D01*
X118263095Y-101883390D02*
X117691667Y-102454819D01*
X117691667Y-102454819D02*
X118310714Y-102454819D01*
X95404761Y-90550057D02*
X95309523Y-90502438D01*
X95309523Y-90502438D02*
X95214285Y-90407200D01*
X95214285Y-90407200D02*
X95071428Y-90264342D01*
X95071428Y-90264342D02*
X94976190Y-90216723D01*
X94976190Y-90216723D02*
X94880952Y-90216723D01*
X94928571Y-90454819D02*
X94833333Y-90407200D01*
X94833333Y-90407200D02*
X94738095Y-90311961D01*
X94738095Y-90311961D02*
X94690476Y-90121485D01*
X94690476Y-90121485D02*
X94690476Y-89788152D01*
X94690476Y-89788152D02*
X94738095Y-89597676D01*
X94738095Y-89597676D02*
X94833333Y-89502438D01*
X94833333Y-89502438D02*
X94928571Y-89454819D01*
X94928571Y-89454819D02*
X95119047Y-89454819D01*
X95119047Y-89454819D02*
X95214285Y-89502438D01*
X95214285Y-89502438D02*
X95309523Y-89597676D01*
X95309523Y-89597676D02*
X95357142Y-89788152D01*
X95357142Y-89788152D02*
X95357142Y-90121485D01*
X95357142Y-90121485D02*
X95309523Y-90311961D01*
X95309523Y-90311961D02*
X95214285Y-90407200D01*
X95214285Y-90407200D02*
X95119047Y-90454819D01*
X95119047Y-90454819D02*
X94928571Y-90454819D01*
X95738095Y-89550057D02*
X95785714Y-89502438D01*
X95785714Y-89502438D02*
X95880952Y-89454819D01*
X95880952Y-89454819D02*
X96119047Y-89454819D01*
X96119047Y-89454819D02*
X96214285Y-89502438D01*
X96214285Y-89502438D02*
X96261904Y-89550057D01*
X96261904Y-89550057D02*
X96309523Y-89645295D01*
X96309523Y-89645295D02*
X96309523Y-89740533D01*
X96309523Y-89740533D02*
X96261904Y-89883390D01*
X96261904Y-89883390D02*
X95690476Y-90454819D01*
X95690476Y-90454819D02*
X96309523Y-90454819D01*
X107666666Y-96784819D02*
X107666666Y-97499104D01*
X107666666Y-97499104D02*
X107619047Y-97641961D01*
X107619047Y-97641961D02*
X107523809Y-97737200D01*
X107523809Y-97737200D02*
X107380952Y-97784819D01*
X107380952Y-97784819D02*
X107285714Y-97784819D01*
X108047619Y-96784819D02*
X108666666Y-96784819D01*
X108666666Y-96784819D02*
X108333333Y-97165771D01*
X108333333Y-97165771D02*
X108476190Y-97165771D01*
X108476190Y-97165771D02*
X108571428Y-97213390D01*
X108571428Y-97213390D02*
X108619047Y-97261009D01*
X108619047Y-97261009D02*
X108666666Y-97356247D01*
X108666666Y-97356247D02*
X108666666Y-97594342D01*
X108666666Y-97594342D02*
X108619047Y-97689580D01*
X108619047Y-97689580D02*
X108571428Y-97737200D01*
X108571428Y-97737200D02*
X108476190Y-97784819D01*
X108476190Y-97784819D02*
X108190476Y-97784819D01*
X108190476Y-97784819D02*
X108095238Y-97737200D01*
X108095238Y-97737200D02*
X108047619Y-97689580D01*
X94666667Y-110407200D02*
X94809524Y-110454819D01*
X94809524Y-110454819D02*
X95047619Y-110454819D01*
X95047619Y-110454819D02*
X95142857Y-110407200D01*
X95142857Y-110407200D02*
X95190476Y-110359580D01*
X95190476Y-110359580D02*
X95238095Y-110264342D01*
X95238095Y-110264342D02*
X95238095Y-110169104D01*
X95238095Y-110169104D02*
X95190476Y-110073866D01*
X95190476Y-110073866D02*
X95142857Y-110026247D01*
X95142857Y-110026247D02*
X95047619Y-109978628D01*
X95047619Y-109978628D02*
X94857143Y-109931009D01*
X94857143Y-109931009D02*
X94761905Y-109883390D01*
X94761905Y-109883390D02*
X94714286Y-109835771D01*
X94714286Y-109835771D02*
X94666667Y-109740533D01*
X94666667Y-109740533D02*
X94666667Y-109645295D01*
X94666667Y-109645295D02*
X94714286Y-109550057D01*
X94714286Y-109550057D02*
X94761905Y-109502438D01*
X94761905Y-109502438D02*
X94857143Y-109454819D01*
X94857143Y-109454819D02*
X95095238Y-109454819D01*
X95095238Y-109454819D02*
X95238095Y-109502438D01*
X95571429Y-109454819D02*
X95809524Y-110454819D01*
X95809524Y-110454819D02*
X96000000Y-109740533D01*
X96000000Y-109740533D02*
X96190476Y-110454819D01*
X96190476Y-110454819D02*
X96428572Y-109454819D01*
X97333333Y-110454819D02*
X96761905Y-110454819D01*
X97047619Y-110454819D02*
X97047619Y-109454819D01*
X97047619Y-109454819D02*
X96952381Y-109597676D01*
X96952381Y-109597676D02*
X96857143Y-109692914D01*
X96857143Y-109692914D02*
X96761905Y-109740533D01*
X118238095Y-95454819D02*
X118238095Y-96264342D01*
X118238095Y-96264342D02*
X118285714Y-96359580D01*
X118285714Y-96359580D02*
X118333333Y-96407200D01*
X118333333Y-96407200D02*
X118428571Y-96454819D01*
X118428571Y-96454819D02*
X118619047Y-96454819D01*
X118619047Y-96454819D02*
X118714285Y-96407200D01*
X118714285Y-96407200D02*
X118761904Y-96359580D01*
X118761904Y-96359580D02*
X118809523Y-96264342D01*
X118809523Y-96264342D02*
X118809523Y-95454819D01*
X119190476Y-95454819D02*
X119809523Y-95454819D01*
X119809523Y-95454819D02*
X119476190Y-95835771D01*
X119476190Y-95835771D02*
X119619047Y-95835771D01*
X119619047Y-95835771D02*
X119714285Y-95883390D01*
X119714285Y-95883390D02*
X119761904Y-95931009D01*
X119761904Y-95931009D02*
X119809523Y-96026247D01*
X119809523Y-96026247D02*
X119809523Y-96264342D01*
X119809523Y-96264342D02*
X119761904Y-96359580D01*
X119761904Y-96359580D02*
X119714285Y-96407200D01*
X119714285Y-96407200D02*
X119619047Y-96454819D01*
X119619047Y-96454819D02*
X119333333Y-96454819D01*
X119333333Y-96454819D02*
X119238095Y-96407200D01*
X119238095Y-96407200D02*
X119190476Y-96359580D01*
X107359580Y-83641666D02*
X107407200Y-83689285D01*
X107407200Y-83689285D02*
X107454819Y-83832142D01*
X107454819Y-83832142D02*
X107454819Y-83927380D01*
X107454819Y-83927380D02*
X107407200Y-84070237D01*
X107407200Y-84070237D02*
X107311961Y-84165475D01*
X107311961Y-84165475D02*
X107216723Y-84213094D01*
X107216723Y-84213094D02*
X107026247Y-84260713D01*
X107026247Y-84260713D02*
X106883390Y-84260713D01*
X106883390Y-84260713D02*
X106692914Y-84213094D01*
X106692914Y-84213094D02*
X106597676Y-84165475D01*
X106597676Y-84165475D02*
X106502438Y-84070237D01*
X106502438Y-84070237D02*
X106454819Y-83927380D01*
X106454819Y-83927380D02*
X106454819Y-83832142D01*
X106454819Y-83832142D02*
X106502438Y-83689285D01*
X106502438Y-83689285D02*
X106550057Y-83641666D01*
X106883390Y-83070237D02*
X106835771Y-83165475D01*
X106835771Y-83165475D02*
X106788152Y-83213094D01*
X106788152Y-83213094D02*
X106692914Y-83260713D01*
X106692914Y-83260713D02*
X106645295Y-83260713D01*
X106645295Y-83260713D02*
X106550057Y-83213094D01*
X106550057Y-83213094D02*
X106502438Y-83165475D01*
X106502438Y-83165475D02*
X106454819Y-83070237D01*
X106454819Y-83070237D02*
X106454819Y-82879761D01*
X106454819Y-82879761D02*
X106502438Y-82784523D01*
X106502438Y-82784523D02*
X106550057Y-82736904D01*
X106550057Y-82736904D02*
X106645295Y-82689285D01*
X106645295Y-82689285D02*
X106692914Y-82689285D01*
X106692914Y-82689285D02*
X106788152Y-82736904D01*
X106788152Y-82736904D02*
X106835771Y-82784523D01*
X106835771Y-82784523D02*
X106883390Y-82879761D01*
X106883390Y-82879761D02*
X106883390Y-83070237D01*
X106883390Y-83070237D02*
X106931009Y-83165475D01*
X106931009Y-83165475D02*
X106978628Y-83213094D01*
X106978628Y-83213094D02*
X107073866Y-83260713D01*
X107073866Y-83260713D02*
X107264342Y-83260713D01*
X107264342Y-83260713D02*
X107359580Y-83213094D01*
X107359580Y-83213094D02*
X107407200Y-83165475D01*
X107407200Y-83165475D02*
X107454819Y-83070237D01*
X107454819Y-83070237D02*
X107454819Y-82879761D01*
X107454819Y-82879761D02*
X107407200Y-82784523D01*
X107407200Y-82784523D02*
X107359580Y-82736904D01*
X107359580Y-82736904D02*
X107264342Y-82689285D01*
X107264342Y-82689285D02*
X107073866Y-82689285D01*
X107073866Y-82689285D02*
X106978628Y-82736904D01*
X106978628Y-82736904D02*
X106931009Y-82784523D01*
X106931009Y-82784523D02*
X106883390Y-82879761D01*
X93454819Y-54563333D02*
X94169104Y-54563333D01*
X94169104Y-54563333D02*
X94311961Y-54610952D01*
X94311961Y-54610952D02*
X94407200Y-54706190D01*
X94407200Y-54706190D02*
X94454819Y-54849047D01*
X94454819Y-54849047D02*
X94454819Y-54944285D01*
X93454819Y-53610952D02*
X93454819Y-54087142D01*
X93454819Y-54087142D02*
X93931009Y-54134761D01*
X93931009Y-54134761D02*
X93883390Y-54087142D01*
X93883390Y-54087142D02*
X93835771Y-53991904D01*
X93835771Y-53991904D02*
X93835771Y-53753809D01*
X93835771Y-53753809D02*
X93883390Y-53658571D01*
X93883390Y-53658571D02*
X93931009Y-53610952D01*
X93931009Y-53610952D02*
X94026247Y-53563333D01*
X94026247Y-53563333D02*
X94264342Y-53563333D01*
X94264342Y-53563333D02*
X94359580Y-53610952D01*
X94359580Y-53610952D02*
X94407200Y-53658571D01*
X94407200Y-53658571D02*
X94454819Y-53753809D01*
X94454819Y-53753809D02*
X94454819Y-53991904D01*
X94454819Y-53991904D02*
X94407200Y-54087142D01*
X94407200Y-54087142D02*
X94359580Y-54134761D01*
X115261905Y-105854819D02*
X115261905Y-104854819D01*
X115261905Y-104854819D02*
X115500000Y-104854819D01*
X115500000Y-104854819D02*
X115642857Y-104902438D01*
X115642857Y-104902438D02*
X115738095Y-104997676D01*
X115738095Y-104997676D02*
X115785714Y-105092914D01*
X115785714Y-105092914D02*
X115833333Y-105283390D01*
X115833333Y-105283390D02*
X115833333Y-105426247D01*
X115833333Y-105426247D02*
X115785714Y-105616723D01*
X115785714Y-105616723D02*
X115738095Y-105711961D01*
X115738095Y-105711961D02*
X115642857Y-105807200D01*
X115642857Y-105807200D02*
X115500000Y-105854819D01*
X115500000Y-105854819D02*
X115261905Y-105854819D01*
X116785714Y-105854819D02*
X116214286Y-105854819D01*
X116500000Y-105854819D02*
X116500000Y-104854819D01*
X116500000Y-104854819D02*
X116404762Y-104997676D01*
X116404762Y-104997676D02*
X116309524Y-105092914D01*
X116309524Y-105092914D02*
X116214286Y-105140533D01*
X116358333Y-95359580D02*
X116310714Y-95407200D01*
X116310714Y-95407200D02*
X116167857Y-95454819D01*
X116167857Y-95454819D02*
X116072619Y-95454819D01*
X116072619Y-95454819D02*
X115929762Y-95407200D01*
X115929762Y-95407200D02*
X115834524Y-95311961D01*
X115834524Y-95311961D02*
X115786905Y-95216723D01*
X115786905Y-95216723D02*
X115739286Y-95026247D01*
X115739286Y-95026247D02*
X115739286Y-94883390D01*
X115739286Y-94883390D02*
X115786905Y-94692914D01*
X115786905Y-94692914D02*
X115834524Y-94597676D01*
X115834524Y-94597676D02*
X115929762Y-94502438D01*
X115929762Y-94502438D02*
X116072619Y-94454819D01*
X116072619Y-94454819D02*
X116167857Y-94454819D01*
X116167857Y-94454819D02*
X116310714Y-94502438D01*
X116310714Y-94502438D02*
X116358333Y-94550057D01*
X117215476Y-94788152D02*
X117215476Y-95454819D01*
X116977381Y-94407200D02*
X116739286Y-95121485D01*
X116739286Y-95121485D02*
X117358333Y-95121485D01*
X107187819Y-109081904D02*
X107997342Y-109081904D01*
X107997342Y-109081904D02*
X108092580Y-109034285D01*
X108092580Y-109034285D02*
X108140200Y-108986666D01*
X108140200Y-108986666D02*
X108187819Y-108891428D01*
X108187819Y-108891428D02*
X108187819Y-108700952D01*
X108187819Y-108700952D02*
X108140200Y-108605714D01*
X108140200Y-108605714D02*
X108092580Y-108558095D01*
X108092580Y-108558095D02*
X107997342Y-108510476D01*
X107997342Y-108510476D02*
X107187819Y-108510476D01*
X107283057Y-108081904D02*
X107235438Y-108034285D01*
X107235438Y-108034285D02*
X107187819Y-107939047D01*
X107187819Y-107939047D02*
X107187819Y-107700952D01*
X107187819Y-107700952D02*
X107235438Y-107605714D01*
X107235438Y-107605714D02*
X107283057Y-107558095D01*
X107283057Y-107558095D02*
X107378295Y-107510476D01*
X107378295Y-107510476D02*
X107473533Y-107510476D01*
X107473533Y-107510476D02*
X107616390Y-107558095D01*
X107616390Y-107558095D02*
X108187819Y-108129523D01*
X108187819Y-108129523D02*
X108187819Y-107510476D01*
X110904761Y-100550057D02*
X110809523Y-100502438D01*
X110809523Y-100502438D02*
X110714285Y-100407200D01*
X110714285Y-100407200D02*
X110571428Y-100264342D01*
X110571428Y-100264342D02*
X110476190Y-100216723D01*
X110476190Y-100216723D02*
X110380952Y-100216723D01*
X110428571Y-100454819D02*
X110333333Y-100407200D01*
X110333333Y-100407200D02*
X110238095Y-100311961D01*
X110238095Y-100311961D02*
X110190476Y-100121485D01*
X110190476Y-100121485D02*
X110190476Y-99788152D01*
X110190476Y-99788152D02*
X110238095Y-99597676D01*
X110238095Y-99597676D02*
X110333333Y-99502438D01*
X110333333Y-99502438D02*
X110428571Y-99454819D01*
X110428571Y-99454819D02*
X110619047Y-99454819D01*
X110619047Y-99454819D02*
X110714285Y-99502438D01*
X110714285Y-99502438D02*
X110809523Y-99597676D01*
X110809523Y-99597676D02*
X110857142Y-99788152D01*
X110857142Y-99788152D02*
X110857142Y-100121485D01*
X110857142Y-100121485D02*
X110809523Y-100311961D01*
X110809523Y-100311961D02*
X110714285Y-100407200D01*
X110714285Y-100407200D02*
X110619047Y-100454819D01*
X110619047Y-100454819D02*
X110428571Y-100454819D01*
X111809523Y-100454819D02*
X111238095Y-100454819D01*
X111523809Y-100454819D02*
X111523809Y-99454819D01*
X111523809Y-99454819D02*
X111428571Y-99597676D01*
X111428571Y-99597676D02*
X111333333Y-99692914D01*
X111333333Y-99692914D02*
X111238095Y-99740533D01*
X103666666Y-107454819D02*
X103666666Y-108169104D01*
X103666666Y-108169104D02*
X103619047Y-108311961D01*
X103619047Y-108311961D02*
X103523809Y-108407200D01*
X103523809Y-108407200D02*
X103380952Y-108454819D01*
X103380952Y-108454819D02*
X103285714Y-108454819D01*
X104571428Y-107454819D02*
X104380952Y-107454819D01*
X104380952Y-107454819D02*
X104285714Y-107502438D01*
X104285714Y-107502438D02*
X104238095Y-107550057D01*
X104238095Y-107550057D02*
X104142857Y-107692914D01*
X104142857Y-107692914D02*
X104095238Y-107883390D01*
X104095238Y-107883390D02*
X104095238Y-108264342D01*
X104095238Y-108264342D02*
X104142857Y-108359580D01*
X104142857Y-108359580D02*
X104190476Y-108407200D01*
X104190476Y-108407200D02*
X104285714Y-108454819D01*
X104285714Y-108454819D02*
X104476190Y-108454819D01*
X104476190Y-108454819D02*
X104571428Y-108407200D01*
X104571428Y-108407200D02*
X104619047Y-108359580D01*
X104619047Y-108359580D02*
X104666666Y-108264342D01*
X104666666Y-108264342D02*
X104666666Y-108026247D01*
X104666666Y-108026247D02*
X104619047Y-107931009D01*
X104619047Y-107931009D02*
X104571428Y-107883390D01*
X104571428Y-107883390D02*
X104476190Y-107835771D01*
X104476190Y-107835771D02*
X104285714Y-107835771D01*
X104285714Y-107835771D02*
X104190476Y-107883390D01*
X104190476Y-107883390D02*
X104142857Y-107931009D01*
X104142857Y-107931009D02*
X104095238Y-108026247D01*
X113454819Y-84166666D02*
X112978628Y-84499999D01*
X113454819Y-84738094D02*
X112454819Y-84738094D01*
X112454819Y-84738094D02*
X112454819Y-84357142D01*
X112454819Y-84357142D02*
X112502438Y-84261904D01*
X112502438Y-84261904D02*
X112550057Y-84214285D01*
X112550057Y-84214285D02*
X112645295Y-84166666D01*
X112645295Y-84166666D02*
X112788152Y-84166666D01*
X112788152Y-84166666D02*
X112883390Y-84214285D01*
X112883390Y-84214285D02*
X112931009Y-84261904D01*
X112931009Y-84261904D02*
X112978628Y-84357142D01*
X112978628Y-84357142D02*
X112978628Y-84738094D01*
X112454819Y-83309523D02*
X112454819Y-83499999D01*
X112454819Y-83499999D02*
X112502438Y-83595237D01*
X112502438Y-83595237D02*
X112550057Y-83642856D01*
X112550057Y-83642856D02*
X112692914Y-83738094D01*
X112692914Y-83738094D02*
X112883390Y-83785713D01*
X112883390Y-83785713D02*
X113264342Y-83785713D01*
X113264342Y-83785713D02*
X113359580Y-83738094D01*
X113359580Y-83738094D02*
X113407200Y-83690475D01*
X113407200Y-83690475D02*
X113454819Y-83595237D01*
X113454819Y-83595237D02*
X113454819Y-83404761D01*
X113454819Y-83404761D02*
X113407200Y-83309523D01*
X113407200Y-83309523D02*
X113359580Y-83261904D01*
X113359580Y-83261904D02*
X113264342Y-83214285D01*
X113264342Y-83214285D02*
X113026247Y-83214285D01*
X113026247Y-83214285D02*
X112931009Y-83261904D01*
X112931009Y-83261904D02*
X112883390Y-83309523D01*
X112883390Y-83309523D02*
X112835771Y-83404761D01*
X112835771Y-83404761D02*
X112835771Y-83595237D01*
X112835771Y-83595237D02*
X112883390Y-83690475D01*
X112883390Y-83690475D02*
X112931009Y-83738094D01*
X112931009Y-83738094D02*
X113026247Y-83785713D01*
X121454819Y-55809523D02*
X122169104Y-55809523D01*
X122169104Y-55809523D02*
X122311961Y-55857142D01*
X122311961Y-55857142D02*
X122407200Y-55952380D01*
X122407200Y-55952380D02*
X122454819Y-56095237D01*
X122454819Y-56095237D02*
X122454819Y-56190475D01*
X122454819Y-54809523D02*
X122454819Y-55380951D01*
X122454819Y-55095237D02*
X121454819Y-55095237D01*
X121454819Y-55095237D02*
X121597676Y-55190475D01*
X121597676Y-55190475D02*
X121692914Y-55285713D01*
X121692914Y-55285713D02*
X121740533Y-55380951D01*
X121454819Y-54190475D02*
X121454819Y-54095237D01*
X121454819Y-54095237D02*
X121502438Y-53999999D01*
X121502438Y-53999999D02*
X121550057Y-53952380D01*
X121550057Y-53952380D02*
X121645295Y-53904761D01*
X121645295Y-53904761D02*
X121835771Y-53857142D01*
X121835771Y-53857142D02*
X122073866Y-53857142D01*
X122073866Y-53857142D02*
X122264342Y-53904761D01*
X122264342Y-53904761D02*
X122359580Y-53952380D01*
X122359580Y-53952380D02*
X122407200Y-53999999D01*
X122407200Y-53999999D02*
X122454819Y-54095237D01*
X122454819Y-54095237D02*
X122454819Y-54190475D01*
X122454819Y-54190475D02*
X122407200Y-54285713D01*
X122407200Y-54285713D02*
X122359580Y-54333332D01*
X122359580Y-54333332D02*
X122264342Y-54380951D01*
X122264342Y-54380951D02*
X122073866Y-54428570D01*
X122073866Y-54428570D02*
X121835771Y-54428570D01*
X121835771Y-54428570D02*
X121645295Y-54380951D01*
X121645295Y-54380951D02*
X121550057Y-54333332D01*
X121550057Y-54333332D02*
X121502438Y-54285713D01*
X121502438Y-54285713D02*
X121454819Y-54190475D01*
X122907200Y-93333332D02*
X122954819Y-93190475D01*
X122954819Y-93190475D02*
X122954819Y-92952380D01*
X122954819Y-92952380D02*
X122907200Y-92857142D01*
X122907200Y-92857142D02*
X122859580Y-92809523D01*
X122859580Y-92809523D02*
X122764342Y-92761904D01*
X122764342Y-92761904D02*
X122669104Y-92761904D01*
X122669104Y-92761904D02*
X122573866Y-92809523D01*
X122573866Y-92809523D02*
X122526247Y-92857142D01*
X122526247Y-92857142D02*
X122478628Y-92952380D01*
X122478628Y-92952380D02*
X122431009Y-93142856D01*
X122431009Y-93142856D02*
X122383390Y-93238094D01*
X122383390Y-93238094D02*
X122335771Y-93285713D01*
X122335771Y-93285713D02*
X122240533Y-93333332D01*
X122240533Y-93333332D02*
X122145295Y-93333332D01*
X122145295Y-93333332D02*
X122050057Y-93285713D01*
X122050057Y-93285713D02*
X122002438Y-93238094D01*
X122002438Y-93238094D02*
X121954819Y-93142856D01*
X121954819Y-93142856D02*
X121954819Y-92904761D01*
X121954819Y-92904761D02*
X122002438Y-92761904D01*
X121954819Y-92428570D02*
X122954819Y-92190475D01*
X122954819Y-92190475D02*
X122240533Y-91999999D01*
X122240533Y-91999999D02*
X122954819Y-91809523D01*
X122954819Y-91809523D02*
X121954819Y-91571428D01*
X121954819Y-91285713D02*
X121954819Y-90666666D01*
X121954819Y-90666666D02*
X122335771Y-90999999D01*
X122335771Y-90999999D02*
X122335771Y-90857142D01*
X122335771Y-90857142D02*
X122383390Y-90761904D01*
X122383390Y-90761904D02*
X122431009Y-90714285D01*
X122431009Y-90714285D02*
X122526247Y-90666666D01*
X122526247Y-90666666D02*
X122764342Y-90666666D01*
X122764342Y-90666666D02*
X122859580Y-90714285D01*
X122859580Y-90714285D02*
X122907200Y-90761904D01*
X122907200Y-90761904D02*
X122954819Y-90857142D01*
X122954819Y-90857142D02*
X122954819Y-91142856D01*
X122954819Y-91142856D02*
X122907200Y-91238094D01*
X122907200Y-91238094D02*
X122859580Y-91285713D01*
X106988095Y-46604819D02*
X106988095Y-47414342D01*
X106988095Y-47414342D02*
X107035714Y-47509580D01*
X107035714Y-47509580D02*
X107083333Y-47557200D01*
X107083333Y-47557200D02*
X107178571Y-47604819D01*
X107178571Y-47604819D02*
X107369047Y-47604819D01*
X107369047Y-47604819D02*
X107464285Y-47557200D01*
X107464285Y-47557200D02*
X107511904Y-47509580D01*
X107511904Y-47509580D02*
X107559523Y-47414342D01*
X107559523Y-47414342D02*
X107559523Y-46604819D01*
X108559523Y-47604819D02*
X107988095Y-47604819D01*
X108273809Y-47604819D02*
X108273809Y-46604819D01*
X108273809Y-46604819D02*
X108178571Y-46747676D01*
X108178571Y-46747676D02*
X108083333Y-46842914D01*
X108083333Y-46842914D02*
X107988095Y-46890533D01*
X102988094Y-51669104D02*
X103464284Y-51669104D01*
X102892856Y-51954819D02*
X103226189Y-50954819D01*
X103226189Y-50954819D02*
X103559522Y-51954819D01*
X103892856Y-51288152D02*
X103892856Y-51954819D01*
X103892856Y-51383390D02*
X103940475Y-51335771D01*
X103940475Y-51335771D02*
X104035713Y-51288152D01*
X104035713Y-51288152D02*
X104178570Y-51288152D01*
X104178570Y-51288152D02*
X104273808Y-51335771D01*
X104273808Y-51335771D02*
X104321427Y-51431009D01*
X104321427Y-51431009D02*
X104321427Y-51954819D01*
X104654761Y-51288152D02*
X105035713Y-51288152D01*
X104797618Y-50954819D02*
X104797618Y-51811961D01*
X104797618Y-51811961D02*
X104845237Y-51907200D01*
X104845237Y-51907200D02*
X104940475Y-51954819D01*
X104940475Y-51954819D02*
X105035713Y-51954819D01*
X105749999Y-51907200D02*
X105654761Y-51954819D01*
X105654761Y-51954819D02*
X105464285Y-51954819D01*
X105464285Y-51954819D02*
X105369047Y-51907200D01*
X105369047Y-51907200D02*
X105321428Y-51811961D01*
X105321428Y-51811961D02*
X105321428Y-51431009D01*
X105321428Y-51431009D02*
X105369047Y-51335771D01*
X105369047Y-51335771D02*
X105464285Y-51288152D01*
X105464285Y-51288152D02*
X105654761Y-51288152D01*
X105654761Y-51288152D02*
X105749999Y-51335771D01*
X105749999Y-51335771D02*
X105797618Y-51431009D01*
X105797618Y-51431009D02*
X105797618Y-51526247D01*
X105797618Y-51526247D02*
X105321428Y-51621485D01*
X106226190Y-51288152D02*
X106226190Y-51954819D01*
X106226190Y-51383390D02*
X106273809Y-51335771D01*
X106273809Y-51335771D02*
X106369047Y-51288152D01*
X106369047Y-51288152D02*
X106511904Y-51288152D01*
X106511904Y-51288152D02*
X106607142Y-51335771D01*
X106607142Y-51335771D02*
X106654761Y-51431009D01*
X106654761Y-51431009D02*
X106654761Y-51954819D01*
X107130952Y-51288152D02*
X107130952Y-51954819D01*
X107130952Y-51383390D02*
X107178571Y-51335771D01*
X107178571Y-51335771D02*
X107273809Y-51288152D01*
X107273809Y-51288152D02*
X107416666Y-51288152D01*
X107416666Y-51288152D02*
X107511904Y-51335771D01*
X107511904Y-51335771D02*
X107559523Y-51431009D01*
X107559523Y-51431009D02*
X107559523Y-51954819D01*
X108464285Y-51954819D02*
X108464285Y-51431009D01*
X108464285Y-51431009D02*
X108416666Y-51335771D01*
X108416666Y-51335771D02*
X108321428Y-51288152D01*
X108321428Y-51288152D02*
X108130952Y-51288152D01*
X108130952Y-51288152D02*
X108035714Y-51335771D01*
X108464285Y-51907200D02*
X108369047Y-51954819D01*
X108369047Y-51954819D02*
X108130952Y-51954819D01*
X108130952Y-51954819D02*
X108035714Y-51907200D01*
X108035714Y-51907200D02*
X107988095Y-51811961D01*
X107988095Y-51811961D02*
X107988095Y-51716723D01*
X107988095Y-51716723D02*
X108035714Y-51621485D01*
X108035714Y-51621485D02*
X108130952Y-51573866D01*
X108130952Y-51573866D02*
X108369047Y-51573866D01*
X108369047Y-51573866D02*
X108464285Y-51526247D01*
X109654762Y-51669104D02*
X110130952Y-51669104D01*
X109559524Y-51954819D02*
X109892857Y-50954819D01*
X109892857Y-50954819D02*
X110226190Y-51954819D01*
X110559524Y-51954819D02*
X110559524Y-51288152D01*
X110559524Y-51478628D02*
X110607143Y-51383390D01*
X110607143Y-51383390D02*
X110654762Y-51335771D01*
X110654762Y-51335771D02*
X110750000Y-51288152D01*
X110750000Y-51288152D02*
X110845238Y-51288152D01*
X111559524Y-51907200D02*
X111464286Y-51954819D01*
X111464286Y-51954819D02*
X111273810Y-51954819D01*
X111273810Y-51954819D02*
X111178572Y-51907200D01*
X111178572Y-51907200D02*
X111130953Y-51811961D01*
X111130953Y-51811961D02*
X111130953Y-51431009D01*
X111130953Y-51431009D02*
X111178572Y-51335771D01*
X111178572Y-51335771D02*
X111273810Y-51288152D01*
X111273810Y-51288152D02*
X111464286Y-51288152D01*
X111464286Y-51288152D02*
X111559524Y-51335771D01*
X111559524Y-51335771D02*
X111607143Y-51431009D01*
X111607143Y-51431009D02*
X111607143Y-51526247D01*
X111607143Y-51526247D02*
X111130953Y-51621485D01*
X112464286Y-51954819D02*
X112464286Y-51431009D01*
X112464286Y-51431009D02*
X112416667Y-51335771D01*
X112416667Y-51335771D02*
X112321429Y-51288152D01*
X112321429Y-51288152D02*
X112130953Y-51288152D01*
X112130953Y-51288152D02*
X112035715Y-51335771D01*
X112464286Y-51907200D02*
X112369048Y-51954819D01*
X112369048Y-51954819D02*
X112130953Y-51954819D01*
X112130953Y-51954819D02*
X112035715Y-51907200D01*
X112035715Y-51907200D02*
X111988096Y-51811961D01*
X111988096Y-51811961D02*
X111988096Y-51716723D01*
X111988096Y-51716723D02*
X112035715Y-51621485D01*
X112035715Y-51621485D02*
X112130953Y-51573866D01*
X112130953Y-51573866D02*
X112369048Y-51573866D01*
X112369048Y-51573866D02*
X112464286Y-51526247D01*
X92549819Y-93166666D02*
X92073628Y-93499999D01*
X92549819Y-93738094D02*
X91549819Y-93738094D01*
X91549819Y-93738094D02*
X91549819Y-93357142D01*
X91549819Y-93357142D02*
X91597438Y-93261904D01*
X91597438Y-93261904D02*
X91645057Y-93214285D01*
X91645057Y-93214285D02*
X91740295Y-93166666D01*
X91740295Y-93166666D02*
X91883152Y-93166666D01*
X91883152Y-93166666D02*
X91978390Y-93214285D01*
X91978390Y-93214285D02*
X92026009Y-93261904D01*
X92026009Y-93261904D02*
X92073628Y-93357142D01*
X92073628Y-93357142D02*
X92073628Y-93738094D01*
X91978390Y-92595237D02*
X91930771Y-92690475D01*
X91930771Y-92690475D02*
X91883152Y-92738094D01*
X91883152Y-92738094D02*
X91787914Y-92785713D01*
X91787914Y-92785713D02*
X91740295Y-92785713D01*
X91740295Y-92785713D02*
X91645057Y-92738094D01*
X91645057Y-92738094D02*
X91597438Y-92690475D01*
X91597438Y-92690475D02*
X91549819Y-92595237D01*
X91549819Y-92595237D02*
X91549819Y-92404761D01*
X91549819Y-92404761D02*
X91597438Y-92309523D01*
X91597438Y-92309523D02*
X91645057Y-92261904D01*
X91645057Y-92261904D02*
X91740295Y-92214285D01*
X91740295Y-92214285D02*
X91787914Y-92214285D01*
X91787914Y-92214285D02*
X91883152Y-92261904D01*
X91883152Y-92261904D02*
X91930771Y-92309523D01*
X91930771Y-92309523D02*
X91978390Y-92404761D01*
X91978390Y-92404761D02*
X91978390Y-92595237D01*
X91978390Y-92595237D02*
X92026009Y-92690475D01*
X92026009Y-92690475D02*
X92073628Y-92738094D01*
X92073628Y-92738094D02*
X92168866Y-92785713D01*
X92168866Y-92785713D02*
X92359342Y-92785713D01*
X92359342Y-92785713D02*
X92454580Y-92738094D01*
X92454580Y-92738094D02*
X92502200Y-92690475D01*
X92502200Y-92690475D02*
X92549819Y-92595237D01*
X92549819Y-92595237D02*
X92549819Y-92404761D01*
X92549819Y-92404761D02*
X92502200Y-92309523D01*
X92502200Y-92309523D02*
X92454580Y-92261904D01*
X92454580Y-92261904D02*
X92359342Y-92214285D01*
X92359342Y-92214285D02*
X92168866Y-92214285D01*
X92168866Y-92214285D02*
X92073628Y-92261904D01*
X92073628Y-92261904D02*
X92026009Y-92309523D01*
X92026009Y-92309523D02*
X91978390Y-92404761D01*
X91666666Y-97454819D02*
X91666666Y-98169104D01*
X91666666Y-98169104D02*
X91619047Y-98311961D01*
X91619047Y-98311961D02*
X91523809Y-98407200D01*
X91523809Y-98407200D02*
X91380952Y-98454819D01*
X91380952Y-98454819D02*
X91285714Y-98454819D01*
X92571428Y-97788152D02*
X92571428Y-98454819D01*
X92333333Y-97407200D02*
X92095238Y-98121485D01*
X92095238Y-98121485D02*
X92714285Y-98121485D01*
X115833333Y-92454819D02*
X115500000Y-91978628D01*
X115261905Y-92454819D02*
X115261905Y-91454819D01*
X115261905Y-91454819D02*
X115642857Y-91454819D01*
X115642857Y-91454819D02*
X115738095Y-91502438D01*
X115738095Y-91502438D02*
X115785714Y-91550057D01*
X115785714Y-91550057D02*
X115833333Y-91645295D01*
X115833333Y-91645295D02*
X115833333Y-91788152D01*
X115833333Y-91788152D02*
X115785714Y-91883390D01*
X115785714Y-91883390D02*
X115738095Y-91931009D01*
X115738095Y-91931009D02*
X115642857Y-91978628D01*
X115642857Y-91978628D02*
X115261905Y-91978628D01*
X116166667Y-91454819D02*
X116833333Y-91454819D01*
X116833333Y-91454819D02*
X116404762Y-92454819D01*
X119454819Y-89166666D02*
X118978628Y-89499999D01*
X119454819Y-89738094D02*
X118454819Y-89738094D01*
X118454819Y-89738094D02*
X118454819Y-89357142D01*
X118454819Y-89357142D02*
X118502438Y-89261904D01*
X118502438Y-89261904D02*
X118550057Y-89214285D01*
X118550057Y-89214285D02*
X118645295Y-89166666D01*
X118645295Y-89166666D02*
X118788152Y-89166666D01*
X118788152Y-89166666D02*
X118883390Y-89214285D01*
X118883390Y-89214285D02*
X118931009Y-89261904D01*
X118931009Y-89261904D02*
X118978628Y-89357142D01*
X118978628Y-89357142D02*
X118978628Y-89738094D01*
X118788152Y-88309523D02*
X119454819Y-88309523D01*
X118407200Y-88547618D02*
X119121485Y-88785713D01*
X119121485Y-88785713D02*
X119121485Y-88166666D01*
X94666667Y-115407200D02*
X94809524Y-115454819D01*
X94809524Y-115454819D02*
X95047619Y-115454819D01*
X95047619Y-115454819D02*
X95142857Y-115407200D01*
X95142857Y-115407200D02*
X95190476Y-115359580D01*
X95190476Y-115359580D02*
X95238095Y-115264342D01*
X95238095Y-115264342D02*
X95238095Y-115169104D01*
X95238095Y-115169104D02*
X95190476Y-115073866D01*
X95190476Y-115073866D02*
X95142857Y-115026247D01*
X95142857Y-115026247D02*
X95047619Y-114978628D01*
X95047619Y-114978628D02*
X94857143Y-114931009D01*
X94857143Y-114931009D02*
X94761905Y-114883390D01*
X94761905Y-114883390D02*
X94714286Y-114835771D01*
X94714286Y-114835771D02*
X94666667Y-114740533D01*
X94666667Y-114740533D02*
X94666667Y-114645295D01*
X94666667Y-114645295D02*
X94714286Y-114550057D01*
X94714286Y-114550057D02*
X94761905Y-114502438D01*
X94761905Y-114502438D02*
X94857143Y-114454819D01*
X94857143Y-114454819D02*
X95095238Y-114454819D01*
X95095238Y-114454819D02*
X95238095Y-114502438D01*
X95571429Y-114454819D02*
X95809524Y-115454819D01*
X95809524Y-115454819D02*
X96000000Y-114740533D01*
X96000000Y-114740533D02*
X96190476Y-115454819D01*
X96190476Y-115454819D02*
X96428572Y-114454819D01*
X96761905Y-114550057D02*
X96809524Y-114502438D01*
X96809524Y-114502438D02*
X96904762Y-114454819D01*
X96904762Y-114454819D02*
X97142857Y-114454819D01*
X97142857Y-114454819D02*
X97238095Y-114502438D01*
X97238095Y-114502438D02*
X97285714Y-114550057D01*
X97285714Y-114550057D02*
X97333333Y-114645295D01*
X97333333Y-114645295D02*
X97333333Y-114740533D01*
X97333333Y-114740533D02*
X97285714Y-114883390D01*
X97285714Y-114883390D02*
X96714286Y-115454819D01*
X96714286Y-115454819D02*
X97333333Y-115454819D01*
X121666666Y-85784819D02*
X121666666Y-86499104D01*
X121666666Y-86499104D02*
X121619047Y-86641961D01*
X121619047Y-86641961D02*
X121523809Y-86737200D01*
X121523809Y-86737200D02*
X121380952Y-86784819D01*
X121380952Y-86784819D02*
X121285714Y-86784819D01*
X122190476Y-86784819D02*
X122380952Y-86784819D01*
X122380952Y-86784819D02*
X122476190Y-86737200D01*
X122476190Y-86737200D02*
X122523809Y-86689580D01*
X122523809Y-86689580D02*
X122619047Y-86546723D01*
X122619047Y-86546723D02*
X122666666Y-86356247D01*
X122666666Y-86356247D02*
X122666666Y-85975295D01*
X122666666Y-85975295D02*
X122619047Y-85880057D01*
X122619047Y-85880057D02*
X122571428Y-85832438D01*
X122571428Y-85832438D02*
X122476190Y-85784819D01*
X122476190Y-85784819D02*
X122285714Y-85784819D01*
X122285714Y-85784819D02*
X122190476Y-85832438D01*
X122190476Y-85832438D02*
X122142857Y-85880057D01*
X122142857Y-85880057D02*
X122095238Y-85975295D01*
X122095238Y-85975295D02*
X122095238Y-86213390D01*
X122095238Y-86213390D02*
X122142857Y-86308628D01*
X122142857Y-86308628D02*
X122190476Y-86356247D01*
X122190476Y-86356247D02*
X122285714Y-86403866D01*
X122285714Y-86403866D02*
X122476190Y-86403866D01*
X122476190Y-86403866D02*
X122571428Y-86356247D01*
X122571428Y-86356247D02*
X122619047Y-86308628D01*
X122619047Y-86308628D02*
X122666666Y-86213390D01*
D11*
%TO.C,C5*%
X115090000Y-89236252D02*
X115090000Y-87813748D01*
X116910000Y-89236252D02*
X116910000Y-87813748D01*
%TO.C,R5*%
X108800000Y-85162500D02*
X108800000Y-89762500D01*
X108800000Y-89762500D02*
X111200000Y-89762500D01*
X111200000Y-85162500D02*
X108800000Y-85162500D01*
X111200000Y-89762500D02*
X111200000Y-85162500D01*
%TO.C,D3*%
X93000000Y-84990000D02*
X93000000Y-89000000D01*
X95000000Y-84990000D02*
X93000000Y-84990000D01*
X95000000Y-84990000D02*
X95000000Y-89000000D01*
%TO.C,D2*%
X117400000Y-109135000D02*
X121285000Y-109135000D01*
X121285000Y-106865000D02*
X117400000Y-106865000D01*
X121285000Y-109135000D02*
X121285000Y-106865000D01*
%TO.C,R1*%
X108300000Y-115200000D02*
X108300000Y-112800000D01*
X108300000Y-112800000D02*
X103700000Y-112800000D01*
X103700000Y-115200000D02*
X108300000Y-115200000D01*
X103700000Y-112800000D02*
X103700000Y-115200000D01*
%TO.C,J1*%
X109670000Y-115330000D02*
X109670000Y-114000000D01*
X111000000Y-115330000D02*
X109670000Y-115330000D01*
X112270000Y-112670000D02*
X114870000Y-112670000D01*
X112270000Y-115330000D02*
X112270000Y-112670000D01*
X112270000Y-115330000D02*
X114870000Y-115330000D01*
X114870000Y-115330000D02*
X114870000Y-112670000D01*
%TO.C,U4*%
X96640000Y-84640000D02*
X99360000Y-84640000D01*
X96640000Y-85620000D02*
X96640000Y-84640000D01*
X96640000Y-88380000D02*
X96640000Y-89360000D01*
X99220000Y-89360000D02*
X96640000Y-89360000D01*
X100010000Y-89540000D02*
X99530000Y-89540000D01*
X99770000Y-89210000D01*
X100010000Y-89540000D01*
G36*
X100010000Y-89540000D02*
G01*
X99530000Y-89540000D01*
X99770000Y-89210000D01*
X100010000Y-89540000D01*
G37*
%TO.C,J2*%
X116315000Y-113090000D02*
X116975000Y-113090000D01*
X116315000Y-114820000D02*
X116315000Y-113090000D01*
X116315000Y-117390000D02*
X116315000Y-117180000D01*
X118365000Y-112390000D02*
X118365000Y-112780000D01*
X118365000Y-112390000D02*
X118815000Y-112390000D01*
X123935000Y-113090000D02*
X123285000Y-113090000D01*
X123935000Y-114820000D02*
X123935000Y-113090000D01*
X123935000Y-117390000D02*
X123935000Y-117180000D01*
%TO.C,C6*%
X103090000Y-86763748D02*
X103090000Y-88186252D01*
X104910000Y-86763748D02*
X104910000Y-88186252D01*
%TO.C,C2*%
X119813748Y-101090000D02*
X121236252Y-101090000D01*
X119813748Y-102910000D02*
X121236252Y-102910000D01*
%TO.C,Q2*%
X95340000Y-90730000D02*
X95340000Y-95371000D01*
X95340000Y-90730000D02*
X105580000Y-90730000D01*
X95340000Y-92240000D02*
X105580000Y-92240000D01*
X95340000Y-95371000D02*
X105580000Y-95371000D01*
X98610000Y-90730000D02*
X98610000Y-92240000D01*
X102311000Y-90730000D02*
X102311000Y-92240000D01*
X105580000Y-90730000D02*
X105580000Y-95371000D01*
%TO.C,J3*%
X106670000Y-93730000D02*
X106670000Y-91130000D01*
X109330000Y-91130000D02*
X106670000Y-91130000D01*
X109330000Y-93730000D02*
X106670000Y-93730000D01*
X109330000Y-93730000D02*
X109330000Y-91130000D01*
X109330000Y-95000000D02*
X109330000Y-96330000D01*
X109330000Y-96330000D02*
X108000000Y-96330000D01*
%TO.C,SW1*%
X92800000Y-108000000D02*
X92800000Y-109200000D01*
X92800000Y-110800000D02*
X92800000Y-112000000D01*
X92800000Y-112000000D02*
X99200000Y-112000000D01*
X99200000Y-108000000D02*
X92800000Y-108000000D01*
X99200000Y-109200000D02*
X99200000Y-108000000D01*
X99200000Y-112000000D02*
X99200000Y-110800000D01*
D12*
%TO.C,U3*%
X121400000Y-98900000D02*
G75*
G02*
X121200000Y-98900000I-100000J0D01*
G01*
X121200000Y-98900000D02*
G75*
G02*
X121400000Y-98900000I100000J0D01*
G01*
D11*
%TO.C,C8*%
X106090000Y-86763748D02*
X106090000Y-88186252D01*
X107910000Y-86763748D02*
X107910000Y-88186252D01*
%TO.C,J5*%
X92670000Y-58270000D02*
X92670000Y-81190000D01*
X92670000Y-58270000D02*
X95330000Y-58270000D01*
X92670000Y-81190000D02*
X95330000Y-81190000D01*
X94000000Y-55670000D02*
X95330000Y-55670000D01*
X95330000Y-55670000D02*
X95330000Y-57000000D01*
X95330000Y-58270000D02*
X95330000Y-81190000D01*
%TO.C,D1*%
X117400000Y-106135000D02*
X121285000Y-106135000D01*
X121285000Y-103865000D02*
X117400000Y-103865000D01*
X121285000Y-106135000D02*
X121285000Y-103865000D01*
%TO.C,C4*%
X113711252Y-94090000D02*
X112288748Y-94090000D01*
X113711252Y-95910000D02*
X112288748Y-95910000D01*
D13*
%TO.C,U2*%
X108545000Y-109525000D02*
X108545000Y-105525000D01*
X113645000Y-109525000D02*
X113645000Y-105525000D01*
D12*
X108690000Y-111970000D02*
G75*
G02*
X108490000Y-111970000I-100000J0D01*
G01*
X108490000Y-111970000D02*
G75*
G02*
X108690000Y-111970000I100000J0D01*
G01*
D13*
%TO.C,Q1*%
X108750000Y-98485000D02*
X113250000Y-98485000D01*
X108750000Y-101515000D02*
X113250000Y-101515000D01*
D12*
X106660000Y-98625000D02*
G75*
G02*
X106460000Y-98625000I-100000J0D01*
G01*
X106460000Y-98625000D02*
G75*
G02*
X106660000Y-98625000I100000J0D01*
G01*
D11*
%TO.C,J6*%
X100130000Y-96670000D02*
X101460000Y-96670000D01*
X100130000Y-98000000D02*
X100130000Y-96670000D01*
X100130000Y-99270000D02*
X100130000Y-106950000D01*
X100130000Y-99270000D02*
X102730000Y-99270000D01*
X100130000Y-106950000D02*
X105330000Y-106950000D01*
X102730000Y-96670000D02*
X105330000Y-96670000D01*
X102730000Y-99270000D02*
X102730000Y-96670000D01*
X105330000Y-96670000D02*
X105330000Y-106950000D01*
%TO.C,R6*%
X111800000Y-85162500D02*
X111800000Y-89762500D01*
X111800000Y-89762500D02*
X114200000Y-89762500D01*
X114200000Y-85162500D02*
X111800000Y-85162500D01*
X114200000Y-89762500D02*
X114200000Y-85162500D01*
%TO.C,J10*%
X120670000Y-56670000D02*
X122000000Y-56670000D01*
X120670000Y-58000000D02*
X120670000Y-56670000D01*
X120670000Y-59270000D02*
X120670000Y-72030000D01*
X120670000Y-59270000D02*
X123330000Y-59270000D01*
X120670000Y-72030000D02*
X123330000Y-72030000D01*
X123330000Y-59270000D02*
X123330000Y-72030000D01*
%TO.C,SW3*%
X120500000Y-88675000D02*
X120500000Y-95075000D01*
X120500000Y-95075000D02*
X121700000Y-95075000D01*
X121700000Y-88675000D02*
X120500000Y-88675000D01*
X123300000Y-95075000D02*
X124500000Y-95075000D01*
X124500000Y-88675000D02*
X123300000Y-88675000D01*
X124500000Y-95075000D02*
X124500000Y-88675000D01*
%TO.C,U1*%
X98750000Y-48500000D02*
X98750000Y-55250000D01*
X98750000Y-48500000D02*
X116750000Y-48500000D01*
X98750000Y-79250000D02*
X98750000Y-79500000D01*
X98750000Y-79500000D02*
X100250000Y-79500000D01*
X116750000Y-54800000D02*
X98750000Y-54800000D01*
X116750000Y-55250000D02*
X116750000Y-48500000D01*
X116750000Y-79250000D02*
X116750000Y-79500000D01*
X116750000Y-79500000D02*
X115250000Y-79500000D01*
%TO.C,R8*%
X92800000Y-90700000D02*
X92800000Y-95300000D01*
X92800000Y-95300000D02*
X95200000Y-95300000D01*
X95200000Y-90700000D02*
X92800000Y-90700000D01*
X95200000Y-95300000D02*
X95200000Y-90700000D01*
%TO.C,J4*%
X93130000Y-96670000D02*
X94460000Y-96670000D01*
X93130000Y-98000000D02*
X93130000Y-96670000D01*
X93130000Y-99270000D02*
X93130000Y-106950000D01*
X93130000Y-99270000D02*
X95730000Y-99270000D01*
X93130000Y-106950000D02*
X98330000Y-106950000D01*
X95730000Y-96670000D02*
X98330000Y-96670000D01*
X95730000Y-99270000D02*
X95730000Y-96670000D01*
X98330000Y-96670000D02*
X98330000Y-106950000D01*
%TO.C,R7*%
X110237500Y-90800000D02*
X110237500Y-93200000D01*
X110237500Y-93200000D02*
X114837500Y-93200000D01*
X114837500Y-90800000D02*
X110237500Y-90800000D01*
X114837500Y-93200000D02*
X114837500Y-90800000D01*
%TO.C,R4*%
X117800000Y-90162500D02*
X117800000Y-94762500D01*
X117800000Y-94762500D02*
X120200000Y-94762500D01*
X120200000Y-90162500D02*
X117800000Y-90162500D01*
X120200000Y-94762500D02*
X120200000Y-90162500D01*
%TO.C,SW2*%
X92800000Y-113000000D02*
X92800000Y-114200000D01*
X92800000Y-115800000D02*
X92800000Y-117000000D01*
X92800000Y-117000000D02*
X99200000Y-117000000D01*
X99200000Y-113000000D02*
X92800000Y-113000000D01*
X99200000Y-114200000D02*
X99200000Y-113000000D01*
X99200000Y-117000000D02*
X99200000Y-115800000D01*
%TO.C,J9*%
X120670000Y-82730000D02*
X120670000Y-75050000D01*
X123330000Y-75050000D02*
X120670000Y-75050000D01*
X123330000Y-82730000D02*
X120670000Y-82730000D01*
X123330000Y-82730000D02*
X123330000Y-75050000D01*
X123330000Y-84000000D02*
X123330000Y-85330000D01*
X123330000Y-85330000D02*
X122000000Y-85330000D01*
%TD*%
D14*
X111000000Y-114000000D03*
X113540000Y-114000000D03*
D15*
X116550000Y-116000000D03*
X123700000Y-116000000D03*
D14*
X97920000Y-94000000D03*
X100460000Y-94000000D03*
X103000000Y-94000000D03*
X108000000Y-95000000D03*
X108000000Y-92460000D03*
X94000000Y-57000000D03*
X94000000Y-59540000D03*
X94000000Y-62080000D03*
X94000000Y-64620000D03*
X94000000Y-67160000D03*
X94000000Y-69700000D03*
X94000000Y-72240000D03*
X94000000Y-74780000D03*
X94000000Y-77320000D03*
X94000000Y-79860000D03*
X101460000Y-98000000D03*
X104000000Y-98000000D03*
X101460000Y-100540000D03*
X104000000Y-100540000D03*
X101460000Y-103080000D03*
X104000000Y-103080000D03*
X101460000Y-105620000D03*
X104000000Y-105620000D03*
X122000000Y-58000000D03*
X122000000Y-60540000D03*
X122000000Y-63080000D03*
X122000000Y-65620000D03*
X122000000Y-68160000D03*
X122000000Y-70700000D03*
X94460000Y-98000000D03*
X97000000Y-98000000D03*
X94460000Y-100540000D03*
X97000000Y-100540000D03*
X94460000Y-103080000D03*
X97000000Y-103080000D03*
X94460000Y-105620000D03*
X97000000Y-105620000D03*
X122000000Y-84000000D03*
X122000000Y-81460000D03*
X122000000Y-78920000D03*
X122000000Y-76380000D03*
M02*
