%TF.GenerationSoftware,KiCad,Pcbnew,8.0.1*%
%TF.CreationDate,2024-03-25T00:20:22-03:00*%
%TF.ProjectId,estacao_metereologica_lora,65737461-6361-46f5-9f6d-65746572656f,rev?*%
%TF.SameCoordinates,Original*%
%TF.FileFunction,Soldermask,Bot*%
%TF.FilePolarity,Negative*%
%FSLAX46Y46*%
G04 Gerber Fmt 4.6, Leading zero omitted, Abs format (unit mm)*
G04 Created by KiCad (PCBNEW 8.0.1) date 2024-03-25 00:20:22*
%MOMM*%
%LPD*%
G01*
G04 APERTURE LIST*
G04 Aperture macros list*
%AMRoundRect*
0 Rectangle with rounded corners*
0 $1 Rounding radius*
0 $2 $3 $4 $5 $6 $7 $8 $9 X,Y pos of 4 corners*
0 Add a 4 corners polygon primitive as box body*
4,1,4,$2,$3,$4,$5,$6,$7,$8,$9,$2,$3,0*
0 Add four circle primitives for the rounded corners*
1,1,$1+$1,$2,$3*
1,1,$1+$1,$4,$5*
1,1,$1+$1,$6,$7*
1,1,$1+$1,$8,$9*
0 Add four rect primitives between the rounded corners*
20,1,$1+$1,$2,$3,$4,$5,0*
20,1,$1+$1,$4,$5,$6,$7,0*
20,1,$1+$1,$6,$7,$8,$9,0*
20,1,$1+$1,$8,$9,$2,$3,0*%
G04 Aperture macros list end*
%ADD10R,1.700000X1.700000*%
%ADD11O,1.700000X1.700000*%
%ADD12O,1.050000X1.900000*%
%ADD13R,1.905000X2.000000*%
%ADD14O,1.905000X2.000000*%
%ADD15RoundRect,0.250000X-0.650000X0.325000X-0.650000X-0.325000X0.650000X-0.325000X0.650000X0.325000X0*%
%ADD16RoundRect,0.102000X1.000000X0.400000X-1.000000X0.400000X-1.000000X-0.400000X1.000000X-0.400000X0*%
%ADD17RoundRect,0.250000X0.312500X0.625000X-0.312500X0.625000X-0.312500X-0.625000X0.312500X-0.625000X0*%
%ADD18RoundRect,0.250000X-0.312500X-0.625000X0.312500X-0.625000X0.312500X0.625000X-0.312500X0.625000X0*%
%ADD19RoundRect,0.250000X-0.325000X-0.650000X0.325000X-0.650000X0.325000X0.650000X-0.325000X0.650000X0*%
%ADD20RoundRect,0.250000X0.650000X-0.325000X0.650000X0.325000X-0.650000X0.325000X-0.650000X-0.325000X0*%
G04 APERTURE END LIST*
D10*
%TO.C,J1*%
X111000000Y-114000000D03*
D11*
X113540000Y-114000000D03*
%TD*%
D12*
%TO.C,J2*%
X116550000Y-116000000D03*
X123700000Y-116000000D03*
%TD*%
D13*
%TO.C,Q2*%
X97920000Y-94000000D03*
D14*
X100460000Y-94000000D03*
X103000000Y-94000000D03*
%TD*%
D10*
%TO.C,J3*%
X108000000Y-95000000D03*
D11*
X108000000Y-92460000D03*
%TD*%
D10*
%TO.C,J5*%
X94000000Y-57000000D03*
D11*
X94000000Y-59540000D03*
X94000000Y-62080000D03*
X94000000Y-64620000D03*
X94000000Y-67160000D03*
X94000000Y-69700000D03*
X94000000Y-72240000D03*
X94000000Y-74780000D03*
X94000000Y-77320000D03*
X94000000Y-79860000D03*
%TD*%
D10*
%TO.C,J6*%
X101460000Y-98000000D03*
D11*
X104000000Y-98000000D03*
X101460000Y-100540000D03*
X104000000Y-100540000D03*
X101460000Y-103080000D03*
X104000000Y-103080000D03*
X101460000Y-105620000D03*
X104000000Y-105620000D03*
%TD*%
D10*
%TO.C,J10*%
X122000000Y-58000000D03*
D11*
X122000000Y-60540000D03*
X122000000Y-63080000D03*
X122000000Y-65620000D03*
X122000000Y-68160000D03*
X122000000Y-70700000D03*
%TD*%
D10*
%TO.C,J4*%
X94460000Y-98000000D03*
D11*
X97000000Y-98000000D03*
X94460000Y-100540000D03*
X97000000Y-100540000D03*
X94460000Y-103080000D03*
X97000000Y-103080000D03*
X94460000Y-105620000D03*
X97000000Y-105620000D03*
%TD*%
D10*
%TO.C,J9*%
X122000000Y-84000000D03*
D11*
X122000000Y-81460000D03*
X122000000Y-78920000D03*
X122000000Y-76380000D03*
%TD*%
D15*
%TO.C,C1*%
X106000000Y-56525000D03*
X106000000Y-59475000D03*
%TD*%
D16*
%TO.C,IC1*%
X101000000Y-89000000D03*
X101000000Y-87730000D03*
X101000000Y-86460000D03*
X101000000Y-80890000D03*
X101000000Y-79620000D03*
X101000000Y-78350000D03*
X101000000Y-77080000D03*
X101000000Y-75810000D03*
X101000000Y-74540000D03*
X101000000Y-73270000D03*
X101000000Y-72000000D03*
X115000000Y-72000000D03*
X115000000Y-73270000D03*
X115000000Y-74540000D03*
X115000000Y-75810000D03*
X115000000Y-77080000D03*
X115000000Y-78350000D03*
X115000000Y-79620000D03*
X115000000Y-80890000D03*
X115000000Y-86460000D03*
X115000000Y-87730000D03*
X115000000Y-89000000D03*
%TD*%
D17*
%TO.C,R9*%
X113462500Y-64000000D03*
X110537500Y-64000000D03*
%TD*%
D18*
%TO.C,R3*%
X117000000Y-108000000D03*
X119925000Y-108000000D03*
%TD*%
D19*
%TO.C,C10*%
X102000000Y-68000000D03*
X104950000Y-68000000D03*
%TD*%
D18*
%TO.C,R2*%
X117000000Y-105000000D03*
X119925000Y-105000000D03*
%TD*%
D17*
%TO.C,R10*%
X107462500Y-65000000D03*
X104537500Y-65000000D03*
%TD*%
D20*
%TO.C,C9*%
X109000000Y-61000000D03*
X109000000Y-58050000D03*
%TD*%
D15*
%TO.C,C3*%
X103000000Y-56525000D03*
X103000000Y-59475000D03*
%TD*%
D20*
%TO.C,C7*%
X113000000Y-59475000D03*
X113000000Y-56525000D03*
%TD*%
M02*
