M48
METRIC,TZ
T1C0.300
T2C0.450
T3C1.000
T4C1.100
%
G90
G05
T1
X92000Y-54500
X92000Y-82500
X92610Y-84000
X93349Y-81289
X94000Y-84000
X95000Y-85000
X96000Y-67000
X96000Y-73000
X97000Y-59000
X97000Y-62000
X97000Y-83000
X97000Y-89000
X97676Y-78800
X98000Y-76000
X98000Y-85000
X99000Y-82000
X100000Y-112000
X102000Y-58000
X102000Y-63000
X102000Y-82000
X102000Y-108000
X103000Y-81000
X103000Y-84000
X103520Y-73520
X104000Y-76000
X104000Y-87075
X104000Y-90500
X105000Y-77000
X106000Y-61000
X106000Y-75000
X106000Y-88000
X106025Y-83025
X107000Y-61000
X107000Y-70000
X107000Y-77730
X107000Y-80990
X107000Y-82290
X107000Y-90000
X107000Y-103000
X107000Y-106000
X107000Y-111000
X108000Y-114000
X109000Y-68000
X109000Y-82290
X110000Y-82290
X110000Y-103000
X110460Y-110000
X111000Y-61000
X111000Y-66000
X111000Y-72000
X111000Y-78000
X111000Y-90000
X111000Y-103000
X112000Y-74000
X112000Y-78000
X112000Y-103000
X112000Y-111000
X112000Y-112000
X113000Y-73000
X113000Y-76000
X113000Y-78000
X113000Y-88000
X113000Y-103000
X114000Y-58000
X114000Y-72000
X114000Y-109000
X115000Y-60000
X115000Y-61000
X115000Y-68000
X115000Y-70000
X115000Y-71000
X115000Y-103000
X115000Y-108000
X116000Y-99000
X116000Y-101000
X116000Y-112000
X118000Y-68000
X118000Y-77000
X118000Y-89000
X118055Y-80055
X119000Y-64150
X119000Y-67000
X119000Y-86000
X119000Y-96000
X119810Y-61810
X120000Y-64000
X120000Y-65000
X120000Y-104000
X120000Y-109000
X120000Y-111000
X121000Y-63000
X121000Y-111000
X122000Y-73000
T3
X94000Y-57000
X94000Y-59540
X94000Y-62080
X94000Y-64620
X94000Y-67160
X94000Y-69700
X94000Y-72240
X94000Y-74780
X94000Y-77320
X94000Y-79860
X94460Y-98000
X94460Y-100540
X94460Y-103080
X94460Y-105620
X97000Y-98000
X97000Y-100540
X97000Y-103080
X97000Y-105620
X101460Y-98000
X101460Y-100540
X101460Y-103080
X101460Y-105620
X104000Y-98000
X104000Y-100540
X104000Y-103080
X104000Y-105620
X108000Y-92460
X108000Y-95000
X111000Y-114000
X113540Y-114000
X122000Y-58000
X122000Y-60540
X122000Y-63080
X122000Y-65620
X122000Y-68160
X122000Y-70700
X122000Y-76380
X122000Y-78920
X122000Y-81460
X122000Y-84000
T4
X97920Y-94000
X100460Y-94000
X103000Y-94000
T2
G00X116550Y-116400
M15
G01X116550Y-115600
M16
G05
G00X123700Y-115600
M15
G01X123700Y-116400
M16
G05
M30
