%TF.GenerationSoftware,KiCad,Pcbnew,8.0.1*%
%TF.CreationDate,2024-03-25T00:20:22-03:00*%
%TF.ProjectId,estacao_metereologica_lora,65737461-6361-46f5-9f6d-65746572656f,rev?*%
%TF.SameCoordinates,Original*%
%TF.FileFunction,Soldermask,Top*%
%TF.FilePolarity,Negative*%
%FSLAX46Y46*%
G04 Gerber Fmt 4.6, Leading zero omitted, Abs format (unit mm)*
G04 Created by KiCad (PCBNEW 8.0.1) date 2024-03-25 00:20:22*
%MOMM*%
%LPD*%
G01*
G04 APERTURE LIST*
G04 Aperture macros list*
%AMRoundRect*
0 Rectangle with rounded corners*
0 $1 Rounding radius*
0 $2 $3 $4 $5 $6 $7 $8 $9 X,Y pos of 4 corners*
0 Add a 4 corners polygon primitive as box body*
4,1,4,$2,$3,$4,$5,$6,$7,$8,$9,$2,$3,0*
0 Add four circle primitives for the rounded corners*
1,1,$1+$1,$2,$3*
1,1,$1+$1,$4,$5*
1,1,$1+$1,$6,$7*
1,1,$1+$1,$8,$9*
0 Add four rect primitives between the rounded corners*
20,1,$1+$1,$2,$3,$4,$5,0*
20,1,$1+$1,$4,$5,$6,$7,0*
20,1,$1+$1,$6,$7,$8,$9,0*
20,1,$1+$1,$8,$9,$2,$3,0*%
%AMFreePoly0*
4,1,9,3.862500,-0.866500,0.737500,-0.866500,0.737500,-0.450000,-0.737500,-0.450000,-0.737500,0.450000,0.737500,0.450000,0.737500,0.866500,3.862500,0.866500,3.862500,-0.866500,3.862500,-0.866500,$1*%
G04 Aperture macros list end*
%ADD10RoundRect,0.250000X0.650000X-0.325000X0.650000X0.325000X-0.650000X0.325000X-0.650000X-0.325000X0*%
%ADD11RoundRect,0.250000X0.625000X-0.312500X0.625000X0.312500X-0.625000X0.312500X-0.625000X-0.312500X0*%
%ADD12RoundRect,0.225000X-0.375000X0.225000X-0.375000X-0.225000X0.375000X-0.225000X0.375000X0.225000X0*%
%ADD13RoundRect,0.250000X0.375000X0.625000X-0.375000X0.625000X-0.375000X-0.625000X0.375000X-0.625000X0*%
%ADD14RoundRect,0.250000X0.312500X0.625000X-0.312500X0.625000X-0.312500X-0.625000X0.312500X-0.625000X0*%
%ADD15R,1.700000X1.700000*%
%ADD16O,1.700000X1.700000*%
%ADD17RoundRect,0.225000X0.425000X0.225000X-0.425000X0.225000X-0.425000X-0.225000X0.425000X-0.225000X0*%
%ADD18FreePoly0,180.000000*%
%ADD19R,0.400000X1.400000*%
%ADD20O,1.050000X1.900000*%
%ADD21R,1.150000X1.450000*%
%ADD22R,1.750000X1.900000*%
%ADD23RoundRect,0.250000X-0.650000X0.325000X-0.650000X-0.325000X0.650000X-0.325000X0.650000X0.325000X0*%
%ADD24RoundRect,0.250000X-0.325000X-0.650000X0.325000X-0.650000X0.325000X0.650000X-0.325000X0.650000X0*%
%ADD25R,1.905000X2.000000*%
%ADD26O,1.905000X2.000000*%
%ADD27R,1.250000X1.000000*%
%ADD28RoundRect,0.102000X0.605000X0.295000X-0.605000X0.295000X-0.605000X-0.295000X0.605000X-0.295000X0*%
%ADD29RoundRect,0.250000X0.325000X0.650000X-0.325000X0.650000X-0.325000X-0.650000X0.325000X-0.650000X0*%
%ADD30RoundRect,0.056280X0.345720X-1.030720X0.345720X1.030720X-0.345720X1.030720X-0.345720X-1.030720X0*%
%ADD31RoundRect,0.102000X1.651000X-1.206500X1.651000X1.206500X-1.651000X1.206500X-1.651000X-1.206500X0*%
%ADD32RoundRect,0.030200X-0.851800X-0.271800X0.851800X-0.271800X0.851800X0.271800X-0.851800X0.271800X0*%
%ADD33R,1.000000X1.250000*%
%ADD34R,1.500000X0.900000*%
%ADD35R,0.900000X1.500000*%
%ADD36R,1.100000X1.100000*%
G04 APERTURE END LIST*
D10*
%TO.C,C5*%
X116000000Y-90000000D03*
X116000000Y-87050000D03*
%TD*%
D11*
%TO.C,R5*%
X110000000Y-88925000D03*
X110000000Y-86000000D03*
%TD*%
D12*
%TO.C,D3*%
X94000000Y-85700000D03*
X94000000Y-89000000D03*
%TD*%
D13*
%TO.C,D2*%
X120400000Y-108000000D03*
X117600000Y-108000000D03*
%TD*%
D14*
%TO.C,R1*%
X104537500Y-114000000D03*
X107462500Y-114000000D03*
%TD*%
D15*
%TO.C,J1*%
X111000000Y-114000000D03*
D16*
X113540000Y-114000000D03*
%TD*%
D17*
%TO.C,U4*%
X99950000Y-88500000D03*
D18*
X99862500Y-87000000D03*
D17*
X99950000Y-85500000D03*
%TD*%
D19*
%TO.C,J2*%
X118825000Y-113350000D03*
X119475000Y-113350000D03*
X120125000Y-113350000D03*
X120775000Y-113350000D03*
X121425000Y-113350000D03*
D20*
X116550000Y-116000000D03*
D21*
X117805000Y-113770000D03*
D22*
X119000000Y-116000000D03*
X121250000Y-116000000D03*
D21*
X122445000Y-113770000D03*
D20*
X123700000Y-116000000D03*
%TD*%
D23*
%TO.C,C6*%
X104000000Y-86000000D03*
X104000000Y-88950000D03*
%TD*%
D24*
%TO.C,C2*%
X119050000Y-102000000D03*
X122000000Y-102000000D03*
%TD*%
D25*
%TO.C,Q2*%
X97920000Y-94000000D03*
D26*
X100460000Y-94000000D03*
X103000000Y-94000000D03*
%TD*%
D15*
%TO.C,J3*%
X108000000Y-95000000D03*
D16*
X108000000Y-92460000D03*
%TD*%
D27*
%TO.C,SW1*%
X92125000Y-110000000D03*
X99875000Y-110000000D03*
%TD*%
D28*
%TO.C,U3*%
X120000000Y-98900000D03*
X120000000Y-97950000D03*
X120000000Y-97000000D03*
X117490000Y-97000000D03*
X117490000Y-97950000D03*
X117490000Y-98900000D03*
%TD*%
D23*
%TO.C,C8*%
X107000000Y-86000000D03*
X107000000Y-88950000D03*
%TD*%
D15*
%TO.C,J5*%
X94000000Y-57000000D03*
D16*
X94000000Y-59540000D03*
X94000000Y-62080000D03*
X94000000Y-64620000D03*
X94000000Y-67160000D03*
X94000000Y-69700000D03*
X94000000Y-72240000D03*
X94000000Y-74780000D03*
X94000000Y-77320000D03*
X94000000Y-79860000D03*
%TD*%
D13*
%TO.C,D1*%
X120400000Y-105000000D03*
X117600000Y-105000000D03*
%TD*%
D29*
%TO.C,C4*%
X114475000Y-95000000D03*
X111525000Y-95000000D03*
%TD*%
D30*
%TO.C,U2*%
X109190000Y-110000000D03*
X110460000Y-110000000D03*
X111730000Y-110000000D03*
X113000000Y-110000000D03*
X113000000Y-105050000D03*
X111730000Y-105050000D03*
X110460000Y-105050000D03*
X109190000Y-105050000D03*
D31*
X111095000Y-107525000D03*
%TD*%
D32*
%TO.C,Q1*%
X108120000Y-99025000D03*
X108120000Y-99675000D03*
X108120000Y-100325000D03*
X108120000Y-100975000D03*
X113880000Y-100975000D03*
X113880000Y-100325000D03*
X113880000Y-99675000D03*
X113880000Y-99025000D03*
%TD*%
D15*
%TO.C,J6*%
X101460000Y-98000000D03*
D16*
X104000000Y-98000000D03*
X101460000Y-100540000D03*
X104000000Y-100540000D03*
X101460000Y-103080000D03*
X104000000Y-103080000D03*
X101460000Y-105620000D03*
X104000000Y-105620000D03*
%TD*%
D11*
%TO.C,R6*%
X113000000Y-88925000D03*
X113000000Y-86000000D03*
%TD*%
D15*
%TO.C,J10*%
X122000000Y-58000000D03*
D16*
X122000000Y-60540000D03*
X122000000Y-63080000D03*
X122000000Y-65620000D03*
X122000000Y-68160000D03*
X122000000Y-70700000D03*
%TD*%
D33*
%TO.C,SW3*%
X122500000Y-95750000D03*
X122500000Y-88000000D03*
%TD*%
D34*
%TO.C,U1*%
X99000000Y-56000000D03*
X99000000Y-57500000D03*
X99000000Y-59000000D03*
X99000000Y-60500000D03*
X99000000Y-62000000D03*
X99000000Y-63500000D03*
X99000000Y-65000000D03*
X99000000Y-66500000D03*
X99000000Y-68000000D03*
X99000000Y-69500000D03*
X99000000Y-71000000D03*
X99000000Y-72500000D03*
X99000000Y-74000000D03*
X99000000Y-75500000D03*
X99000000Y-77000000D03*
X99000000Y-78500000D03*
D35*
X101000000Y-79250000D03*
X102500000Y-79250000D03*
X104000000Y-79250000D03*
X105500000Y-79250000D03*
X107000000Y-79250000D03*
X108500000Y-79250000D03*
X110000000Y-79250000D03*
X111500000Y-79250000D03*
X113000000Y-79250000D03*
X114500000Y-79250000D03*
D34*
X116500000Y-78500000D03*
X116500000Y-77000000D03*
X116500000Y-75500000D03*
X116500000Y-74000000D03*
X116500000Y-72500000D03*
X116500000Y-71000000D03*
X116500000Y-69500000D03*
X116500000Y-68000000D03*
X116500000Y-66500000D03*
X116500000Y-65000000D03*
X116500000Y-63500000D03*
X116500000Y-62000000D03*
X116500000Y-60500000D03*
X116500000Y-59000000D03*
X116500000Y-57500000D03*
X116500000Y-56000000D03*
D36*
X105060000Y-62550000D03*
X105060000Y-64050000D03*
X105060000Y-65550000D03*
X106560000Y-62550000D03*
X106560000Y-64050000D03*
X106560000Y-65550000D03*
X108060000Y-62550000D03*
X108060000Y-64050000D03*
X108060000Y-65550000D03*
%TD*%
D11*
%TO.C,R8*%
X94000000Y-94462500D03*
X94000000Y-91537500D03*
%TD*%
D15*
%TO.C,J4*%
X94460000Y-98000000D03*
D16*
X97000000Y-98000000D03*
X94460000Y-100540000D03*
X97000000Y-100540000D03*
X94460000Y-103080000D03*
X97000000Y-103080000D03*
X94460000Y-105620000D03*
X97000000Y-105620000D03*
%TD*%
D14*
%TO.C,R7*%
X114000000Y-92000000D03*
X111075000Y-92000000D03*
%TD*%
D11*
%TO.C,R4*%
X119000000Y-93925000D03*
X119000000Y-91000000D03*
%TD*%
D27*
%TO.C,SW2*%
X92125000Y-115000000D03*
X99875000Y-115000000D03*
%TD*%
D15*
%TO.C,J9*%
X122000000Y-84000000D03*
D16*
X122000000Y-81460000D03*
X122000000Y-78920000D03*
X122000000Y-76380000D03*
%TD*%
M02*
